<svg width="505" height="259" viewBox="0 0 505 259" fill="none" xmlns="http://www.w3.org/2000/svg">
<path d="M42.272 42.174V43.462H40.62V46.808H39.234V39.5H40.62V42.174H42.272ZM35.706 40.858H30.344V39.696H37.092V43.882H35.706V40.858ZM38.24 45.436C37.5307 45.7533 36.21 45.912 34.278 45.912H29.77V44.778H32.108V42.286H33.48V44.778H34.32C36.1867 44.778 37.4933 44.6193 38.24 44.302V45.436ZM35.65 46.864C37.2273 46.864 38.4827 47.06 39.416 47.452C40.3587 47.8347 40.83 48.4133 40.83 49.188C40.83 49.9627 40.3587 50.5413 39.416 50.924C38.4733 51.3067 37.218 51.498 35.65 51.498C34.082 51.498 32.8267 51.3067 31.884 50.924C30.9413 50.5413 30.47 49.9627 30.47 49.188C30.47 48.4133 30.9367 47.8347 31.87 47.452C32.8127 47.06 34.0727 46.864 35.65 46.864ZM35.65 50.42C36.7793 50.42 37.68 50.3173 38.352 50.112C39.0333 49.916 39.374 49.608 39.374 49.188C39.374 48.768 39.0333 48.4553 38.352 48.25C37.6707 48.0447 36.77 47.942 35.65 47.942C34.53 47.942 33.6293 48.0447 32.948 48.25C32.2667 48.4553 31.926 48.768 31.926 49.188C31.926 49.608 32.262 49.916 32.934 50.112C33.6153 50.3173 34.5207 50.42 35.65 50.42ZM51.2868 42.104H43.1808V40.886H46.5268V39.374H47.9408V40.886H51.2868V42.104ZM55.7388 45.562H54.0868V51.456H52.7008V39.5H54.0868V44.232H55.7388V45.562ZM47.9268 49.51C49.7095 49.4913 50.9695 49.314 51.7068 48.978V50.238C51.3335 50.406 50.8015 50.532 50.1108 50.616C49.4295 50.7 48.6595 50.742 47.8008 50.742H43.2368V49.51H46.5408V47.732C45.6915 47.6387 45.0195 47.382 44.5248 46.962C44.0395 46.5327 43.7968 45.982 43.7968 45.31C43.7968 44.5447 44.1095 43.9427 44.7348 43.504C45.3601 43.056 46.2001 42.832 47.2548 42.832C48.3095 42.832 49.1495 43.056 49.7748 43.504C50.4001 43.9427 50.7128 44.5447 50.7128 45.31C50.7128 45.982 50.4655 46.5327 49.9708 46.962C49.4761 47.3913 48.7948 47.6527 47.9268 47.746V49.51ZM45.1128 45.31C45.1128 45.702 45.2995 46.024 45.6728 46.276C46.0461 46.5187 46.5735 46.64 47.2548 46.64C47.9361 46.64 48.4635 46.5187 48.8368 46.276C49.2101 46.024 49.3968 45.702 49.3968 45.31C49.3968 44.918 49.2101 44.596 48.8368 44.344C48.4635 44.092 47.9361 43.966 47.2548 43.966C46.5735 43.966 46.0461 44.092 45.6728 44.344C45.2995 44.596 45.1128 44.918 45.1128 45.31ZM67.7776 44.428H57.5576V39.64H67.7776V44.428ZM66.3916 40.788H58.9436V43.28H66.3916V40.788ZM68.6456 45.632V46.808H63.3676V48.866H61.9676V46.808H56.7036V45.632H68.6456ZM58.9436 50.126H68.0436V51.316H57.5436V47.83H58.9436V50.126ZM81.4264 39.5V46.64H80.0544V45.114H77.9404L78.0244 43.882H80.0544V42.006H78.0244L77.9404 40.774H80.0544V39.5H81.4264ZM77.6184 42.944C77.6184 43.5787 77.4691 44.148 77.1704 44.652C76.8717 45.156 76.4424 45.5527 75.8824 45.842C75.3317 46.122 74.6877 46.262 73.9504 46.262C73.2131 46.262 72.5644 46.122 72.0044 45.842C71.4444 45.5527 71.0151 45.156 70.7164 44.652C70.4177 44.148 70.2684 43.5787 70.2684 42.944C70.2684 42.3093 70.4177 41.74 70.7164 41.236C71.0151 40.732 71.4444 40.34 72.0044 40.06C72.5644 39.7707 73.2131 39.626 73.9504 39.626C74.6877 39.626 75.3317 39.7707 75.8824 40.06C76.4424 40.34 76.8717 40.732 77.1704 41.236C77.4691 41.74 77.6184 42.3093 77.6184 42.944ZM71.6544 42.944C71.6544 43.6067 71.8644 44.134 72.2844 44.526C72.7044 44.9087 73.2597 45.1 73.9504 45.1C74.6224 45.1 75.1684 44.904 75.5884 44.512C76.0177 44.12 76.2324 43.5973 76.2324 42.944C76.2324 42.2813 76.0224 41.7587 75.6024 41.376C75.1824 40.984 74.6317 40.788 73.9504 40.788C73.2597 40.788 72.7044 40.984 72.2844 41.376C71.8644 41.7587 71.6544 42.2813 71.6544 42.944ZM71.2904 47.298H81.4264V51.456H80.0124V48.502H71.2904V47.298Z" fill="black"/>
<path d="M149.072 42.014H147.392V44.856H146.006V38.5H147.392V40.67H149.072V42.014ZM145.138 43.75C144.764 43.9087 144.237 44.0393 143.556 44.142C142.884 44.2353 142.128 44.282 141.288 44.282H136.99V38.724H138.39V43.078H141.372C142.184 43.078 142.916 43.0313 143.57 42.938C144.232 42.8447 144.755 42.714 145.138 42.546V43.75ZM137.396 45.584H147.392V50.302H137.396V45.584ZM138.782 49.126H146.006V46.774H138.782V49.126ZM162.539 41.216V42.546H160.859V47.376H159.473V38.5H160.859V41.216H162.539ZM154.041 42.756C153.593 43.5307 153.028 44.1653 152.347 44.66C151.675 45.1547 150.914 45.458 150.065 45.57V44.268C150.802 44.1373 151.441 43.806 151.983 43.274C152.524 42.7327 152.939 42.056 153.229 41.244C153.527 40.4227 153.681 39.5453 153.691 38.612L155.077 38.696C155.077 39.7227 154.913 40.6887 154.587 41.594L158.367 44.45L157.527 45.444L154.041 42.756ZM152.263 49.042H161.181V50.302H150.863V46.494H152.263V49.042ZM173.205 39.774H164.287V38.64H174.591V42.28H173.205V39.774ZM175.445 43.036V44.156H163.503V43.036H167.983V41.034H169.383V43.036H175.445ZM165.687 49.224H174.829V50.316H164.329V47.194H173.261V46.228H164.301V45.136H174.619V48.244H165.687V49.224ZM137.914 55.768H129.794V54.634H133.154V53.29H134.554V54.634H137.914V55.768ZM142.338 56.776V58.106H140.658V62.46H139.272V53.5H140.658V56.776H142.338ZM133.854 61.34C133.182 61.34 132.576 61.2467 132.034 61.06C131.502 60.864 131.082 60.5793 130.774 60.206C130.466 59.8327 130.312 59.394 130.312 58.89C130.312 58.386 130.466 57.9473 130.774 57.574C131.082 57.2007 131.502 56.9207 132.034 56.734C132.576 56.538 133.182 56.44 133.854 56.44C134.526 56.44 135.128 56.538 135.66 56.734C136.192 56.9207 136.612 57.2007 136.92 57.574C137.228 57.938 137.382 58.3767 137.382 58.89C137.382 59.4033 137.228 59.8467 136.92 60.22C136.612 60.584 136.192 60.864 135.66 61.06C135.128 61.2467 134.526 61.34 133.854 61.34ZM133.854 57.504C133.192 57.504 132.66 57.6347 132.258 57.896C131.857 58.1573 131.656 58.4887 131.656 58.89C131.656 59.3007 131.857 59.6367 132.258 59.898C132.66 60.15 133.192 60.276 133.854 60.276C134.517 60.276 135.049 60.15 135.45 59.898C135.852 59.6367 136.052 59.3007 136.052 58.89C136.052 58.4887 135.852 58.1573 135.45 57.896C135.049 57.6347 134.517 57.504 133.854 57.504ZM132.062 64.07H140.98V65.302H130.662V62.026H132.062V64.07ZM155.245 59.464V60.612H143.303V59.464H148.567V58.386C147.195 58.33 146.085 58.0967 145.235 57.686C144.386 57.266 143.961 56.6733 143.961 55.908C143.961 55.0867 144.456 54.4707 145.445 54.06C146.444 53.64 147.718 53.43 149.267 53.43C150.817 53.43 152.086 53.64 153.075 54.06C154.074 54.4707 154.573 55.0867 154.573 55.908C154.573 56.6733 154.149 57.266 153.299 57.686C152.45 58.0967 151.339 58.33 149.967 58.386V59.464H155.245ZM145.431 55.908C145.431 56.3467 145.795 56.6873 146.523 56.93C147.251 57.1727 148.166 57.294 149.267 57.294C150.369 57.294 151.283 57.1727 152.011 56.93C152.739 56.6873 153.103 56.3467 153.103 55.908C153.103 55.4693 152.739 55.1333 152.011 54.9C151.283 54.6573 150.369 54.536 149.267 54.536C148.166 54.536 147.251 54.6573 146.523 54.9C145.795 55.1333 145.431 55.4693 145.431 55.908ZM144.031 61.788H154.405V65.47H153.005V62.936H144.031V61.788ZM169.272 59.674H167.592V65.456H166.206V53.5H167.592V58.344H169.272V59.674ZM157.33 53.934H163.98V64.742H157.33V53.934ZM158.716 63.454H162.594V55.222H158.716V63.454ZM176.201 57.812C174.633 57.812 173.363 57.6393 172.393 57.294C171.431 56.9393 170.951 56.384 170.951 55.628C170.951 54.8813 171.431 54.3353 172.393 53.99C173.363 53.6353 174.633 53.458 176.201 53.458C177.769 53.458 179.033 53.6353 179.995 53.99C180.965 54.3353 181.451 54.8813 181.451 55.628C181.451 56.384 180.965 56.9393 179.995 57.294C179.033 57.6393 177.769 57.812 176.201 57.812ZM176.201 56.748C177.33 56.748 178.249 56.6547 178.959 56.468C179.668 56.2813 180.023 56.0013 180.023 55.628C180.023 55.2547 179.663 54.9747 178.945 54.788C178.235 54.6013 177.321 54.508 176.201 54.508C175.081 54.508 174.161 54.6013 173.443 54.788C172.733 54.9747 172.379 55.2547 172.379 55.628C172.379 56.0013 172.733 56.2813 173.443 56.468C174.152 56.6547 175.071 56.748 176.201 56.748ZM170.237 58.554H182.179V59.632H170.237V58.554ZM171.063 62.46H179.995V61.62H171.035V60.584H181.353V63.44H172.421V64.28H181.563V65.316H171.063V62.46Z" fill="black"/>
<path d="M226.402 38.5V45.22H225.086V42.252H223.14V45.094H221.824V38.57H223.14V40.964H225.086V38.5H226.402ZM220.62 41.79C220.62 42.77 220.377 43.5493 219.892 44.128C219.416 44.7067 218.739 44.996 217.862 44.996C216.984 44.996 216.303 44.7067 215.818 44.128C215.332 43.5493 215.09 42.77 215.09 41.79C215.09 40.81 215.332 40.0353 215.818 39.466C216.303 38.8873 216.984 38.598 217.862 38.598C218.739 38.598 219.416 38.8873 219.892 39.466C220.377 40.0353 220.62 40.81 220.62 41.79ZM216.392 41.79C216.392 42.4433 216.518 42.952 216.77 43.316C217.031 43.6707 217.395 43.848 217.862 43.848C218.328 43.848 218.688 43.6707 218.94 43.316C219.192 42.952 219.318 42.4433 219.318 41.79C219.318 41.1367 219.192 40.6327 218.94 40.278C218.688 39.914 218.328 39.732 217.862 39.732C217.395 39.732 217.031 39.914 216.77 40.278C216.518 40.6327 216.392 41.1367 216.392 41.79ZM216.098 45.878H226.402V50.302H216.098V45.878ZM217.47 49.14H225.03V47.04H217.47V49.14ZM239.868 38.5V50.456H238.552V44.618H236.606V50.246H235.29V38.57H236.606V43.316H238.552V38.5H239.868ZM232.574 38.85H233.862V49.742H228.738V38.85H230.026V42.994H232.574V38.85ZM232.574 48.482V44.24H230.026V48.482H232.574ZM253.097 38.5V50.456H251.711V44.128H248.631V42.826H251.711V38.5H253.097ZM246.839 38.85C246.839 40.4367 246.723 41.9207 246.489 43.302L250.227 49.014L249.065 49.77L246.083 45.066C245.673 46.494 245.113 47.614 244.403 48.426C243.694 49.2287 242.873 49.6673 241.939 49.742V48.328C242.686 48.2067 243.316 47.712 243.829 46.844C244.352 45.976 244.744 44.8467 245.005 43.456C245.276 42.056 245.416 40.502 245.425 38.794L246.839 38.85ZM266.564 38.5V50.456H265.178V44.66H260.754V43.358H265.178V38.5H266.564ZM260.516 48.482C261.085 48.482 261.65 48.4307 262.21 48.328C262.779 48.2253 263.246 48.09 263.61 47.922V49.182C263.255 49.35 262.784 49.4853 262.196 49.588C261.617 49.6907 261.034 49.742 260.446 49.742H255.938V38.934H262.882V40.194H257.352V48.482H260.516ZM283.955 38.5V50.456H282.569V44.128H279.489V42.826H282.569V38.5H283.955ZM277.697 38.85C277.697 40.4367 277.58 41.9207 277.347 43.302L281.085 49.014L279.923 49.77L276.941 45.066C276.53 46.494 275.97 47.614 275.261 48.426C274.551 49.2287 273.73 49.6673 272.797 49.742V48.328C273.543 48.2067 274.173 47.712 274.687 46.844C275.209 45.976 275.601 44.8467 275.863 43.456C276.133 42.056 276.273 40.502 276.283 38.794L277.697 38.85ZM292.13 42.812C290.562 42.812 289.292 42.6393 288.322 42.294C287.36 41.9393 286.88 41.384 286.88 40.628C286.88 39.8813 287.36 39.3353 288.322 38.99C289.292 38.6353 290.562 38.458 292.13 38.458C293.698 38.458 294.962 38.6353 295.924 38.99C296.894 39.3353 297.38 39.8813 297.38 40.628C297.38 41.384 296.894 41.9393 295.924 42.294C294.962 42.6393 293.698 42.812 292.13 42.812ZM292.13 39.508C291.01 39.508 290.09 39.6013 289.372 39.788C288.662 39.9747 288.308 40.2547 288.308 40.628C288.308 41.0013 288.662 41.2813 289.372 41.468C290.081 41.6547 291 41.748 292.13 41.748C293.259 41.748 294.178 41.6547 294.888 41.468C295.597 41.2813 295.952 41.0013 295.952 40.628C295.952 40.2547 295.592 39.9747 294.874 39.788C294.164 39.6013 293.25 39.508 292.13 39.508ZM292.816 44.506V45.584H297.282V48.44H288.35V49.28H297.492V50.316H286.992V47.46H295.924V46.62H286.964V45.584H291.444V44.506H286.166V43.428H298.108V44.506H292.816ZM239.616 57.7H229.06V56.65H231.174V54.69H229.186V53.64H239.49V54.69H237.502V56.65H239.616V57.7ZM232.56 56.65H236.116V54.69H232.56V56.65ZM235.024 59.716V60.752H239.49V63.51H230.558V64.294H239.7V65.316H229.2V62.544H238.132V61.774H229.172V60.752H233.652V59.716H228.374V58.638H240.316V59.716H235.024ZM254.343 56.342V57.672H252.663V62.376H251.277V53.5H252.663V56.342H254.343ZM249.247 60.248H242.261V53.794H249.247V60.248ZM247.875 54.998H243.633V59.044H247.875V54.998ZM244.067 64.042H252.985V65.302H242.667V61.424H244.067V64.042ZM270.74 56.272H259.652V55.026H264.468V53.346H265.896V55.026H270.74V56.272ZM271.174 63.636V64.882H259.232V63.636H264.496V61.802C263.18 61.746 262.135 61.5267 261.36 61.144C260.585 60.7613 260.198 60.2013 260.198 59.464C260.198 58.6613 260.651 58.064 261.556 57.672C262.471 57.28 263.684 57.084 265.196 57.084C266.708 57.084 267.917 57.28 268.822 57.672C269.737 58.064 270.194 58.6613 270.194 59.464C270.194 60.2013 269.807 60.7613 269.032 61.144C268.257 61.5267 267.212 61.746 265.896 61.802V63.636H271.174ZM261.612 59.464C261.612 59.8747 261.939 60.178 262.592 60.374C263.245 60.57 264.113 60.668 265.196 60.668C266.279 60.668 267.147 60.57 267.8 60.374C268.453 60.178 268.78 59.8747 268.78 59.464C268.78 59.044 268.453 58.736 267.8 58.54C267.156 58.344 266.288 58.246 265.196 58.246C264.113 58.246 263.245 58.344 262.592 58.54C261.939 58.736 261.612 59.044 261.612 59.464ZM284.193 59.786H282.877V53.5H284.193V59.786ZM279.993 56.748H278.537V55.558H279.993V53.57H281.295V59.66H279.993V56.748ZM278.915 59.03C278.196 59.3007 277.067 59.436 275.527 59.436H273.063V53.794H278.215V54.83H274.379V56.09H277.879V57.084H274.379V58.4H275.639C277.085 58.4 278.177 58.2647 278.915 57.994V59.03ZM284.487 64.28V65.302H273.749V62.376H282.835V61.452H273.721V60.43H284.193V63.342H275.107V64.28H284.487Z" fill="black"/>
<path d="M339.994 47.376H338.608V38.5H339.994V47.376ZM333.036 42.77C332.579 43.5447 332.005 44.1793 331.314 44.674C330.624 45.1593 329.858 45.458 329.018 45.57V44.268C329.756 44.1373 330.4 43.8013 330.95 43.26C331.51 42.7187 331.94 42.042 332.238 41.23C332.546 40.418 332.705 39.5453 332.714 38.612L334.1 38.696C334.1 39.7133 333.928 40.684 333.582 41.608L337.418 44.436L336.592 45.444L333.036 42.77ZM340.316 49.07V50.302H329.858V46.494H331.258V49.07H340.316ZM354.805 44.674H353.125V50.456H351.739V38.5H353.125V43.344H354.805V44.674ZM347.609 48.468C348.188 48.468 348.757 48.4167 349.317 48.314C349.887 48.2113 350.349 48.076 350.703 47.908V49.168C350.349 49.3453 349.887 49.4853 349.317 49.588C348.748 49.6907 348.169 49.742 347.581 49.742H342.863V43.61H348.085V40.208H342.835V38.934H349.471V44.884H344.235V48.468H347.609ZM367.278 41.272H356.19V40.026H361.006V38.346H362.434V40.026H367.278V41.272ZM367.712 48.636V49.882H355.77V48.636H361.034V46.802C359.718 46.746 358.673 46.5267 357.898 46.144C357.123 45.7613 356.736 45.2013 356.736 44.464C356.736 43.6613 357.189 43.064 358.094 42.672C359.009 42.28 360.222 42.084 361.734 42.084C363.246 42.084 364.455 42.28 365.36 42.672C366.275 43.064 366.732 43.6613 366.732 44.464C366.732 45.2013 366.345 45.7613 365.57 46.144C364.795 46.5267 363.75 46.746 362.434 46.802V48.636H367.712ZM358.15 44.464C358.15 44.8747 358.477 45.178 359.13 45.374C359.783 45.57 360.651 45.668 361.734 45.668C362.817 45.668 363.685 45.57 364.338 45.374C364.991 45.178 365.318 44.8747 365.318 44.464C365.318 44.044 364.991 43.736 364.338 43.54C363.694 43.344 362.826 43.246 361.734 43.246C360.651 43.246 359.783 43.344 359.13 43.54C358.477 43.736 358.15 44.044 358.15 44.464ZM380.731 44.786H379.415V38.5H380.731V44.786ZM376.531 41.748H375.075V40.558H376.531V38.57H377.833V44.66H376.531V41.748ZM375.453 44.03C374.734 44.3007 373.605 44.436 372.065 44.436H369.601V38.794H374.753V39.83H370.917V41.09H374.417V42.084H370.917V43.4H372.177C373.623 43.4 374.715 43.2647 375.453 42.994V44.03ZM381.025 49.28V50.302H370.287V47.376H379.373V46.452H370.259V45.43H380.731V48.342H371.645V49.28H381.025ZM334.605 55.782V57.098H332.925V60.108H331.539V53.5H332.925V55.782H334.605ZM326.289 57.434C325.878 58.1153 325.323 58.6707 324.623 59.1C323.932 59.52 323.148 59.7767 322.271 59.87V58.624C323.242 58.4933 324.021 58.1013 324.609 57.448C325.206 56.7853 325.552 55.9687 325.645 54.998H322.425V53.808H330.055V54.998H327.031C327.003 55.446 326.924 55.8893 326.793 56.328L330.433 58.568L329.747 59.604L326.289 57.434ZM327.983 60.5C329.523 60.5 330.76 60.7007 331.693 61.102C332.636 61.5033 333.107 62.1287 333.107 62.978C333.107 63.8273 332.636 64.4527 331.693 64.854C330.76 65.2553 329.523 65.456 327.983 65.456C326.443 65.456 325.202 65.2553 324.259 64.854C323.326 64.4527 322.859 63.8273 322.859 62.978C322.859 62.1287 323.326 61.5033 324.259 61.102C325.202 60.7007 326.443 60.5 327.983 60.5ZM327.983 64.308C329.066 64.308 329.943 64.196 330.615 63.972C331.287 63.748 331.623 63.4167 331.623 62.978C331.623 62.5393 331.287 62.208 330.615 61.984C329.943 61.76 329.066 61.648 327.983 61.648C326.91 61.648 326.032 61.76 325.351 61.984C324.679 62.208 324.343 62.5393 324.343 62.978C324.343 63.4167 324.679 63.748 325.351 63.972C326.023 64.196 326.9 64.308 327.983 64.308ZM341.226 56.888C340.628 57.3547 339.863 57.7187 338.93 57.98C338.006 58.232 337.044 58.3673 336.046 58.386V57.294C337.147 57.266 338.174 57.0747 339.126 56.72C340.087 56.3653 340.689 55.8847 340.932 55.278H336.27V54.2H340.834V53.024H342.248V54.2H346.798V55.278H342.374C342.308 55.5393 342.201 55.7867 342.052 56.02L347.064 57.35L346.742 58.4L341.226 56.888ZM342.234 60.29V61.452C343.615 61.4893 344.721 61.6667 345.552 61.984C346.392 62.3013 346.812 62.7913 346.812 63.454C346.812 64.1727 346.326 64.6907 345.356 65.008C344.394 65.3253 343.12 65.484 341.534 65.484C339.947 65.484 338.668 65.3253 337.698 65.008C336.736 64.6907 336.256 64.1727 336.256 63.454C336.256 62.7913 336.671 62.3013 337.502 61.984C338.342 61.6667 339.452 61.4893 340.834 61.452V60.29H335.57V59.198H347.512V60.29H342.234ZM345.356 63.454C345.356 63.118 344.992 62.8753 344.264 62.726C343.545 62.5767 342.635 62.502 341.534 62.502C340.432 62.502 339.518 62.5767 338.79 62.726C338.071 62.8753 337.712 63.118 337.712 63.454C337.712 63.7993 338.071 64.042 338.79 64.182C339.508 64.3313 340.423 64.406 341.534 64.406C342.644 64.406 343.559 64.3313 344.278 64.182C344.996 64.042 345.356 63.7993 345.356 63.454ZM361.539 56.342V57.672H359.859V62.376H358.473V53.5H359.859V56.342H361.539ZM357.605 59.73C357.231 59.8887 356.704 60.0193 356.023 60.122C355.351 60.2153 354.595 60.262 353.755 60.262H349.457V53.794H356.751V54.998H350.857V59.058H353.839C354.66 59.058 355.397 59.016 356.051 58.932C356.704 58.8387 357.222 58.708 357.605 58.54V59.73ZM351.263 64.042H360.181V65.302H349.863V61.424H351.263V64.042ZM372.177 54.816H363.301V53.64H373.563V57.7H372.177V54.816ZM374.445 58.54V59.688H362.503V58.54H366.983V56.202H368.383V58.54H374.445ZM368.467 60.808C370.017 60.808 371.277 60.9993 372.247 61.382C373.227 61.7647 373.717 62.348 373.717 63.132C373.717 63.9253 373.227 64.5133 372.247 64.896C371.277 65.2787 370.017 65.47 368.467 65.47C366.918 65.47 365.653 65.2787 364.673 64.896C363.703 64.5133 363.217 63.9253 363.217 63.132C363.217 62.32 363.698 61.732 364.659 61.368C365.63 60.9947 366.899 60.808 368.467 60.808ZM368.467 64.364C369.522 64.364 370.418 64.2567 371.155 64.042C371.893 63.8367 372.261 63.5333 372.261 63.132C372.261 62.74 371.893 62.4413 371.155 62.236C370.418 62.0213 369.522 61.914 368.467 61.914C367.394 61.914 366.493 62.0167 365.765 62.222C365.037 62.418 364.673 62.7213 364.673 63.132C364.673 63.5333 365.042 63.8367 365.779 64.042C366.517 64.2567 367.413 64.364 368.467 64.364ZM385.84 61.004V53.5H387.226V62.866H385.84V62.124H382.214V61.004H385.84ZM380.226 58.19C379.162 58.19 378.304 57.9847 377.65 57.574C377.006 57.1633 376.684 56.5893 376.684 55.852C376.684 55.1147 377.006 54.5453 377.65 54.144C378.304 53.7333 379.162 53.528 380.226 53.528C381.29 53.528 382.144 53.7333 382.788 54.144C383.442 54.5453 383.768 55.1147 383.768 55.852C383.768 56.5893 383.442 57.1633 382.788 57.574C382.144 57.9847 381.29 58.19 380.226 58.19ZM380.226 54.62C379.573 54.62 379.046 54.7273 378.644 54.942C378.243 55.1473 378.042 55.4507 378.042 55.852C378.042 56.2533 378.243 56.5613 378.644 56.776C379.046 56.9907 379.573 57.098 380.226 57.098C380.88 57.098 381.407 56.9907 381.808 56.776C382.21 56.5613 382.41 56.2533 382.41 55.852C382.41 55.4507 382.21 55.1473 381.808 54.942C381.407 54.7273 380.88 54.62 380.226 54.62ZM379.274 60.178H375.97V59.03H380.912C382.779 59.03 384.086 58.8713 384.832 58.554V59.702C384.123 60.0193 382.802 60.178 380.87 60.178H380.66V62.32H379.274V60.178ZM387.534 64.126V65.302H377.076V61.676H378.462V64.126H387.534Z" fill="black"/>
<path d="M424.62 38.948L431.41 47.684V38.878H432.894V50.092H431.508L424.718 41.356V50.162H423.248V38.948H424.62ZM446.115 38.5V50.456H444.729V44.128H441.649V42.826H444.729V38.5H446.115ZM439.857 38.85C439.857 40.4367 439.74 41.9207 439.507 43.302L443.245 49.014L442.083 49.77L439.101 45.066C438.69 46.494 438.13 47.614 437.421 48.426C436.712 49.2287 435.89 49.6673 434.957 49.742V48.328C435.704 48.2067 436.334 47.712 436.847 46.844C437.37 45.976 437.762 44.8467 438.023 43.456C438.294 42.056 438.434 40.502 438.443 38.794L439.857 38.85ZM454.29 42.812C452.722 42.812 451.452 42.6393 450.482 42.294C449.52 41.9393 449.04 41.384 449.04 40.628C449.04 39.8813 449.52 39.3353 450.482 38.99C451.452 38.6353 452.722 38.458 454.29 38.458C455.858 38.458 457.122 38.6353 458.084 38.99C459.054 39.3353 459.54 39.8813 459.54 40.628C459.54 41.384 459.054 41.9393 458.084 42.294C457.122 42.6393 455.858 42.812 454.29 42.812ZM454.29 39.508C453.17 39.508 452.25 39.6013 451.532 39.788C450.822 39.9747 450.468 40.2547 450.468 40.628C450.468 41.0013 450.822 41.2813 451.532 41.468C452.241 41.6547 453.16 41.748 454.29 41.748C455.419 41.748 456.338 41.6547 457.048 41.468C457.757 41.2813 458.112 41.0013 458.112 40.628C458.112 40.2547 457.752 39.9747 457.034 39.788C456.324 39.6013 455.41 39.508 454.29 39.508ZM454.976 44.506V45.584H459.442V48.44H450.51V49.28H459.652V50.316H449.152V47.46H458.084V46.62H449.124V45.584H453.604V44.506H448.326V43.428H460.268V44.506H454.976ZM474.294 44.674H472.614V50.456H471.228V38.5H472.614V43.344H474.294V44.674ZM467.098 48.468C467.668 48.468 468.232 48.4167 468.792 48.314C469.362 48.2113 469.828 48.076 470.192 47.908V49.168C469.838 49.3453 469.371 49.4853 468.792 49.588C468.223 49.6907 467.644 49.742 467.056 49.742H462.352V38.934H469.254V40.208H463.738V43.61H469.044V44.884H463.738V48.468H467.098ZM486.515 38.5V50.456H485.129V49H481.503V47.824H485.129V38.5H486.515ZM479.445 44.45C478.755 44.45 478.139 44.3333 477.597 44.1C477.065 43.8573 476.645 43.5213 476.337 43.092C476.039 42.6627 475.889 42.1633 475.889 41.594C475.889 41.0247 476.039 40.5253 476.337 40.096C476.645 39.6667 477.065 39.3353 477.597 39.102C478.139 38.8593 478.755 38.738 479.445 38.738C480.136 38.738 480.747 38.8593 481.279 39.102C481.821 39.3353 482.241 39.6667 482.539 40.096C482.847 40.5253 483.001 41.0247 483.001 41.594C483.001 42.1633 482.847 42.6627 482.539 43.092C482.241 43.5213 481.821 43.8573 481.279 44.1C480.747 44.3333 480.136 44.45 479.445 44.45ZM479.445 39.872C478.773 39.872 478.232 40.0307 477.821 40.348C477.42 40.6653 477.219 41.0807 477.219 41.594C477.219 42.1073 477.42 42.5227 477.821 42.84C478.232 43.1573 478.773 43.316 479.445 43.316C480.108 43.316 480.64 43.1573 481.041 42.84C481.452 42.5227 481.657 42.1073 481.657 41.594C481.657 41.0807 481.452 40.6653 481.041 40.348C480.64 40.0307 480.108 39.872 479.445 39.872ZM484.121 46.186C483.3 46.494 481.998 46.648 480.215 46.648H479.977V50.456H478.591V46.648H475.259V45.43H480.201C482.04 45.43 483.347 45.2713 484.121 44.954V46.186Z" fill="black"/>
<path d="M426.947 130.39H430.125V131.622H422.369V130.39H425.533V128.472H426.947V130.39ZM434.605 134.674H432.925V140.456H431.539V128.5H432.925V133.344H434.605V134.674ZM426.247 132.574C426.891 132.574 427.465 132.728 427.969 133.036C428.473 133.335 428.865 133.764 429.145 134.324C429.425 134.875 429.565 135.509 429.565 136.228C429.565 136.947 429.425 137.586 429.145 138.146C428.865 138.697 428.473 139.121 427.969 139.42C427.465 139.728 426.891 139.882 426.247 139.882C425.603 139.882 425.029 139.728 424.525 139.42C424.021 139.121 423.624 138.697 423.335 138.146C423.055 137.586 422.915 136.947 422.915 136.228C422.915 135.509 423.055 134.875 423.335 134.324C423.624 133.764 424.021 133.335 424.525 133.036C425.029 132.728 425.603 132.574 426.247 132.574ZM426.247 138.678C426.62 138.678 426.956 138.58 427.255 138.384C427.554 138.188 427.787 137.903 427.955 137.53C428.132 137.157 428.221 136.723 428.221 136.228C428.221 135.733 428.132 135.299 427.955 134.926C427.787 134.553 427.554 134.268 427.255 134.072C426.956 133.876 426.62 133.778 426.247 133.778C425.668 133.778 425.192 134.002 424.819 134.45C424.446 134.889 424.259 135.481 424.259 136.228C424.259 136.975 424.446 137.572 424.819 138.02C425.192 138.459 425.668 138.678 426.247 138.678ZM446.392 131.076V132.896H448.072V134.1H446.392V136.69H445.006V128.5H446.392V129.872H448.072V131.076H446.392ZM439.294 135.262C438.556 135.262 437.903 135.122 437.334 134.842C436.774 134.553 436.34 134.156 436.032 133.652C435.733 133.148 435.584 132.579 435.584 131.944C435.584 131.309 435.733 130.74 436.032 130.236C436.34 129.732 436.774 129.34 437.334 129.06C437.903 128.771 438.556 128.626 439.294 128.626C440.031 128.626 440.68 128.771 441.24 129.06C441.8 129.34 442.229 129.732 442.528 130.236C442.836 130.74 442.99 131.309 442.99 131.944C442.99 132.579 442.836 133.148 442.528 133.652C442.229 134.156 441.8 134.553 441.24 134.842C440.68 135.122 440.031 135.262 439.294 135.262ZM439.294 129.788C438.603 129.788 438.043 129.984 437.614 130.376C437.184 130.759 436.97 131.281 436.97 131.944C436.97 132.607 437.184 133.134 437.614 133.526C438.043 133.909 438.603 134.1 439.294 134.1C439.984 134.1 440.54 133.904 440.96 133.512C441.389 133.12 441.604 132.597 441.604 131.944C441.604 131.291 441.389 130.768 440.96 130.376C440.54 129.984 439.984 129.788 439.294 129.788ZM442.64 135.878C442.528 136.345 442.36 136.783 442.136 137.194L446.938 139.252L446.392 140.456L441.408 138.188C440.81 138.851 440.064 139.364 439.168 139.728C438.272 140.101 437.343 140.293 436.382 140.302V139C437.128 138.991 437.842 138.851 438.524 138.58C439.205 138.3 439.788 137.908 440.274 137.404C440.759 136.9 441.081 136.307 441.24 135.626L442.64 135.878ZM460.377 136.578H449.835V128.934H460.195V130.18H451.221V132.14H460.041V133.358H451.221V135.332H460.377V136.578ZM460.979 138.608V139.882H449.037V138.608H460.979ZM474.011 131.272H462.923V130.026H467.739V128.346H469.167V130.026H474.011V131.272ZM474.445 138.636V139.882H462.503V138.636H467.767V136.802C466.451 136.746 465.406 136.527 464.631 136.144C463.857 135.761 463.469 135.201 463.469 134.464C463.469 133.661 463.922 133.064 464.827 132.672C465.742 132.28 466.955 132.084 468.467 132.084C469.979 132.084 471.188 132.28 472.093 132.672C473.008 133.064 473.465 133.661 473.465 134.464C473.465 135.201 473.078 135.761 472.303 136.144C471.529 136.527 470.483 136.746 469.167 136.802V138.636H474.445ZM464.883 134.464C464.883 134.875 465.21 135.178 465.863 135.374C466.517 135.57 467.385 135.668 468.467 135.668C469.55 135.668 470.418 135.57 471.071 135.374C471.725 135.178 472.051 134.875 472.051 134.464C472.051 134.044 471.725 133.736 471.071 133.54C470.427 133.344 469.559 133.246 468.467 133.246C467.385 133.246 466.517 133.344 465.863 133.54C465.21 133.736 464.883 134.044 464.883 134.464ZM487.464 134.786H486.148V128.5H487.464V134.786ZM483.264 131.748H481.808V130.558H483.264V128.57H484.566V134.66H483.264V131.748ZM482.186 134.03C481.468 134.301 480.338 134.436 478.798 134.436H476.334V128.794H481.486V129.83H477.65V131.09H481.15V132.084H477.65V133.4H478.91C480.357 133.4 481.449 133.265 482.186 132.994V134.03ZM487.758 139.28V140.302H477.02V137.376H486.106V136.452H476.992V135.43H487.464V138.342H478.378V139.28H487.758Z" fill="black"/>
<path d="M327.812 134.002V135.122H315.87V134.002H321.148V132.77H316.724V128.64H326.958V129.76H318.11V131.65H327.098V132.77H322.52V134.002H327.812ZM321.834 136.116C323.411 136.116 324.68 136.289 325.642 136.634C326.612 136.979 327.098 137.535 327.098 138.3C327.098 139.065 326.612 139.621 325.642 139.966C324.671 140.321 323.402 140.498 321.834 140.498C320.266 140.498 318.996 140.321 318.026 139.966C317.055 139.621 316.57 139.065 316.57 138.3C316.57 137.535 317.05 136.979 318.012 136.634C318.982 136.289 320.256 136.116 321.834 136.116ZM321.834 139.406C322.926 139.406 323.831 139.317 324.55 139.14C325.278 138.963 325.642 138.683 325.642 138.3C325.642 137.927 325.278 137.651 324.55 137.474C323.831 137.297 322.926 137.208 321.834 137.208C320.742 137.208 319.832 137.297 319.104 137.474C318.385 137.651 318.026 137.927 318.026 138.3C318.026 138.683 318.385 138.963 319.104 139.14C319.832 139.317 320.742 139.406 321.834 139.406ZM340.83 128.5V140.456H339.514V134.618H337.568V140.246H336.252V128.57H337.568V133.316H339.514V128.5H340.83ZM332.598 138.51C333.112 138.51 333.611 138.473 334.096 138.398C334.591 138.314 335.02 138.197 335.384 138.048V139.266C335.039 139.415 334.6 139.532 334.068 139.616C333.536 139.7 332.995 139.742 332.444 139.742H329.7V128.934H334.866V130.166H331.058V138.51H332.598ZM353.877 133.428H343.657V128.64H353.877V133.428ZM352.491 129.788H345.043V132.28H352.491V129.788ZM354.745 134.632V135.808H349.467V137.866H348.067V135.808H342.803V134.632H354.745ZM345.043 139.126H354.143V140.316H343.643V136.83H345.043V139.126ZM366.042 128.5H367.428V140.456L366.042 140.47V128.5ZM356.97 128.934H363.998V130.208H358.37V138.468H361.842C362.411 138.468 362.976 138.417 363.536 138.314C364.105 138.211 364.572 138.071 364.936 137.894V139.168C364.572 139.345 364.101 139.485 363.522 139.588C362.953 139.691 362.379 139.742 361.8 139.742H356.97V128.934ZM382.239 134.674H380.559V140.456H379.173V128.5H380.559V133.344H382.239V134.674ZM374.665 130.208C374.655 131.589 374.534 132.854 374.301 134.002L378.137 138.818L377.045 139.644L373.895 135.57C373.484 136.811 372.933 137.791 372.243 138.51C371.561 139.229 370.773 139.639 369.877 139.742V138.37C370.567 138.239 371.165 137.81 371.669 137.082C372.173 136.354 372.56 135.397 372.831 134.212C373.101 133.027 373.246 131.692 373.265 130.208H370.157V128.934H377.675V130.208H374.665ZM392.976 128.5H394.362V137.376H392.976V128.5ZM387.11 135.57C386.344 135.57 385.672 135.421 385.094 135.122C384.524 134.823 384.086 134.413 383.778 133.89C383.47 133.358 383.316 132.761 383.316 132.098C383.316 131.435 383.47 130.843 383.778 130.32C384.086 129.788 384.524 129.373 385.094 129.074C385.672 128.775 386.344 128.626 387.11 128.626C387.875 128.626 388.542 128.775 389.112 129.074C389.681 129.373 390.12 129.783 390.428 130.306C390.736 130.829 390.89 131.426 390.89 132.098C390.89 132.77 390.736 133.367 390.428 133.89C390.12 134.413 389.681 134.823 389.112 135.122C388.542 135.421 387.875 135.57 387.11 135.57ZM387.11 134.394C387.828 134.394 388.407 134.189 388.846 133.778C389.284 133.358 389.504 132.798 389.504 132.098C389.504 131.398 389.28 130.838 388.832 130.418C388.393 129.998 387.819 129.788 387.11 129.788C386.391 129.788 385.808 129.998 385.36 130.418C384.921 130.838 384.702 131.398 384.702 132.098C384.702 132.798 384.921 133.358 385.36 133.778C385.808 134.189 386.391 134.394 387.11 134.394ZM384.366 136.396H385.78V139.042H394.684V140.302H384.366V136.396ZM325.163 147.714H314.607V146.664H316.721V144.69H314.733V143.64H325.037V144.69H323.049V146.664H325.163V147.714ZM318.107 146.664H321.663V144.69H318.107V146.664ZM325.863 148.708V149.786H313.921V148.708H325.863ZM316.105 154.294H325.247V155.316H314.747V152.544H323.679V151.774H314.719V150.752H325.037V153.51H316.105V154.294ZM339.89 149.674H338.21V155.456H336.824V143.5H338.21V148.344H339.89V149.674ZM332.694 153.468C333.273 153.468 333.842 153.417 334.402 153.314C334.971 153.211 335.433 153.076 335.788 152.908V154.168C335.433 154.345 334.971 154.485 334.402 154.588C333.833 154.691 333.254 154.742 332.666 154.742H327.948V148.61H333.17V145.208H327.92V143.934H334.556V149.884H329.32V153.468H332.694ZM353.357 149.674H351.677V155.456H350.291V143.5H351.677V148.344H353.357V149.674ZM345.783 145.208C345.774 146.589 345.652 147.854 345.419 149.002L349.255 153.818L348.163 154.644L345.013 150.57C344.602 151.811 344.052 152.791 343.361 153.51C342.68 154.229 341.891 154.639 340.995 154.742V153.37C341.686 153.239 342.283 152.81 342.787 152.082C343.291 151.354 343.678 150.397 343.949 149.212C344.22 148.027 344.364 146.692 344.383 145.208H341.275V143.934H348.793V145.208H345.783ZM356.702 155.708C355.871 154.812 355.227 153.851 354.77 152.824C354.322 151.797 354.098 150.677 354.098 149.464C354.098 148.251 354.322 147.131 354.77 146.104C355.227 145.077 355.871 144.116 356.702 143.22H358.256C357.406 144.088 356.739 145.049 356.254 146.104C355.768 147.159 355.526 148.279 355.526 149.464C355.526 150.649 355.768 151.769 356.254 152.824C356.739 153.879 357.406 154.84 358.256 155.708H356.702ZM363.749 143.948C365.019 143.948 366.111 144.181 367.025 144.648C367.94 145.115 368.64 145.773 369.125 146.622C369.611 147.462 369.853 148.442 369.853 149.562C369.853 150.682 369.611 151.662 369.125 152.502C368.649 153.342 367.949 153.995 367.025 154.462C366.111 154.929 365.019 155.162 363.749 155.162H359.773V143.948H363.749ZM363.791 153.832C365.219 153.832 366.339 153.459 367.151 152.712C367.963 151.965 368.369 150.915 368.369 149.562C368.369 148.209 367.963 147.154 367.151 146.398C366.339 145.642 365.219 145.264 363.791 145.264H361.243V153.832H363.791ZM375.767 143.948C377.036 143.948 378.128 144.181 379.043 144.648C379.958 145.115 380.658 145.773 381.143 146.622C381.628 147.462 381.871 148.442 381.871 149.562C381.871 150.682 381.628 151.662 381.143 152.502C380.667 153.342 379.967 153.995 379.043 154.462C378.128 154.929 377.036 155.162 375.767 155.162H371.791V143.948H375.767ZM375.809 153.832C377.237 153.832 378.357 153.459 379.169 152.712C379.981 151.965 380.387 150.915 380.387 149.562C380.387 148.209 379.981 147.154 379.169 146.398C378.357 145.642 377.237 145.264 375.809 145.264H373.261V153.832H375.809ZM387.784 143.948C388.736 143.948 389.558 144.111 390.248 144.438C390.948 144.755 391.48 145.208 391.844 145.796C392.218 146.384 392.404 147.065 392.404 147.84C392.404 148.615 392.218 149.296 391.844 149.884C391.48 150.472 390.948 150.929 390.248 151.256C389.558 151.573 388.736 151.732 387.784 151.732H385.278V155.162H383.808V143.948H387.784ZM387.672 150.402C388.699 150.402 389.497 150.183 390.066 149.744C390.645 149.296 390.934 148.661 390.934 147.84C390.934 147.019 390.645 146.389 390.066 145.95C389.497 145.502 388.699 145.278 387.672 145.278H385.278V150.402H387.672ZM393.153 155.708C394.002 154.849 394.665 153.893 395.141 152.838C395.626 151.774 395.869 150.649 395.869 149.464C395.869 148.279 395.626 147.159 395.141 146.104C394.665 145.04 394.002 144.079 393.153 143.22H394.693C396.429 145.077 397.297 147.159 397.297 149.464C397.297 151.769 396.429 153.851 394.693 155.708H393.153Z" fill="black"/>
<path d="M247.564 128.5V140.456H246.248V134.618H244.302V140.246H242.986V128.57H244.302V133.316H246.248V128.5H247.564ZM239.332 138.51C239.845 138.51 240.344 138.473 240.83 138.398C241.324 138.314 241.754 138.197 242.118 138.048V139.266C241.772 139.415 241.334 139.532 240.802 139.616C240.27 139.7 239.728 139.742 239.178 139.742H236.434V128.934H241.6V130.166H237.792V138.51H239.332ZM257.615 130.698H249.495V129.592H252.855V128.29H254.255V129.592H257.615V130.698ZM262.039 132.882H260.359V136.13H258.973V128.5H260.359V131.552H262.039V132.882ZM253.555 135.976C252.892 135.976 252.29 135.883 251.749 135.696C251.207 135.509 250.783 135.243 250.475 134.898C250.167 134.543 250.013 134.128 250.013 133.652C250.013 133.185 250.167 132.779 250.475 132.434C250.783 132.079 251.207 131.809 251.749 131.622C252.29 131.435 252.892 131.342 253.555 131.342C254.217 131.342 254.815 131.435 255.347 131.622C255.888 131.809 256.313 132.079 256.621 132.434C256.929 132.779 257.083 133.185 257.083 133.652C257.083 134.128 256.929 134.543 256.621 134.898C256.313 135.243 255.888 135.509 255.347 135.696C254.815 135.883 254.217 135.976 253.555 135.976ZM253.555 132.392C252.892 132.392 252.36 132.509 251.959 132.742C251.557 132.975 251.357 133.279 251.357 133.652C251.357 134.025 251.557 134.333 251.959 134.576C252.36 134.809 252.892 134.926 253.555 134.926C254.217 134.926 254.749 134.809 255.151 134.576C255.552 134.333 255.753 134.025 255.753 133.652C255.753 133.288 255.547 132.989 255.137 132.756C254.735 132.513 254.208 132.392 253.555 132.392ZM250.251 136.774H260.359V140.456H258.959V137.964H250.251V136.774ZM274.945 138.608V139.882H263.003V138.608H268.239V136.354H263.801V132.042H272.789V130.166H263.801V128.934H274.161V133.232H265.187V135.122H274.343V136.354H269.653V138.608H274.945Z" fill="black"/>
<path d="M140.074 132.994C139.654 133.619 139.112 134.128 138.45 134.52C137.796 134.912 137.059 135.155 136.238 135.248V134.044C137.134 133.913 137.866 133.554 138.436 132.966C139.005 132.378 139.36 131.65 139.5 130.782H136.364V129.62H139.528V128.29H140.928V129.62H144.05V130.782H140.914C140.858 131.193 140.76 131.575 140.62 131.93L144.26 134.044L143.602 135.094L140.074 132.994ZM148.572 131.146V132.476H146.892V135.598H145.506V128.5H146.892V131.146H148.572ZM141.95 135.948C143.508 135.948 144.75 136.13 145.674 136.494C146.607 136.849 147.074 137.418 147.074 138.202C147.074 138.986 146.607 139.555 145.674 139.91C144.75 140.274 143.508 140.456 141.95 140.456C140.4 140.456 139.159 140.274 138.226 139.91C137.292 139.555 136.826 138.986 136.826 138.202C136.826 137.418 137.292 136.849 138.226 136.494C139.159 136.13 140.4 135.948 141.95 135.948ZM141.95 139.35C143.051 139.35 143.933 139.257 144.596 139.07C145.268 138.883 145.604 138.594 145.604 138.202C145.604 137.81 145.268 137.521 144.596 137.334C143.933 137.147 143.051 137.054 141.95 137.054C140.848 137.054 139.962 137.147 139.29 137.334C138.627 137.521 138.296 137.81 138.296 138.202C138.296 138.594 138.627 138.883 139.29 139.07C139.962 139.257 140.848 139.35 141.95 139.35ZM159.407 133.806H156.859V132.588H159.407V131.006H157.321V129.788H159.407V128.5H160.793V135.108H159.407V133.806ZM156.733 130.096C156.733 131.664 156.131 132.831 154.927 133.596C153.732 134.352 152.061 134.73 149.915 134.73V133.526C151.632 133.517 152.962 133.246 153.905 132.714C154.857 132.173 155.333 131.379 155.333 130.334V129.97H149.915V128.794H156.733V130.096ZM155.753 135.5C157.311 135.5 158.567 135.701 159.519 136.102C160.48 136.494 160.961 137.119 160.961 137.978C160.961 138.827 160.48 139.453 159.519 139.854C158.557 140.255 157.302 140.456 155.753 140.456C154.203 140.456 152.948 140.255 151.987 139.854C151.025 139.453 150.545 138.827 150.545 137.978C150.545 137.119 151.021 136.494 151.973 136.102C152.934 135.701 154.194 135.5 155.753 135.5ZM155.753 139.308C156.845 139.308 157.741 139.201 158.441 138.986C159.141 138.762 159.491 138.426 159.491 137.978C159.491 137.53 159.141 137.199 158.441 136.984C157.741 136.76 156.845 136.648 155.753 136.648C154.661 136.648 153.765 136.76 153.065 136.984C152.365 137.199 152.015 137.53 152.015 137.978C152.015 138.426 152.365 138.762 153.065 138.986C153.765 139.201 154.661 139.308 155.753 139.308ZM172.677 129.816H163.773V128.64H174.077V132.504H172.677V129.816ZM169.667 134.268V135.822C171.03 135.878 172.127 136.097 172.957 136.48C173.797 136.853 174.217 137.404 174.217 138.132C174.217 138.925 173.727 139.513 172.747 139.896C171.777 140.279 170.517 140.47 168.967 140.47C167.418 140.47 166.153 140.279 165.173 139.896C164.203 139.513 163.717 138.925 163.717 138.132C163.717 137.385 164.128 136.83 164.949 136.466C165.78 136.093 166.886 135.878 168.267 135.822V134.268H163.003V133.106H174.945V134.268H169.667ZM172.761 138.132C172.761 137.74 172.393 137.441 171.655 137.236C170.918 137.021 170.022 136.914 168.967 136.914C167.894 136.914 166.993 137.017 166.265 137.222C165.537 137.418 165.173 137.721 165.173 138.132C165.173 138.533 165.542 138.837 166.279 139.042C167.017 139.257 167.913 139.364 168.967 139.364C170.022 139.364 170.918 139.257 171.655 139.042C172.393 138.837 172.761 138.533 172.761 138.132Z" fill="black"/>
<path d="M40.0738 132.994C39.6538 133.619 39.1125 134.128 38.4498 134.52C37.7965 134.912 37.0591 135.155 36.2378 135.248V134.044C37.1338 133.913 37.8665 133.554 38.4358 132.966C39.0051 132.378 39.3598 131.65 39.4998 130.782H36.3638V129.62H39.5278V128.29H40.9278V129.62H44.0498V130.782H40.9138C40.8578 131.193 40.7598 131.575 40.6198 131.93L44.2598 134.044L43.6018 135.094L40.0738 132.994ZM48.5718 131.146V132.476H46.8918V135.598H45.5058V128.5H46.8918V131.146H48.5718ZM41.9498 135.948C43.5085 135.948 44.7498 136.13 45.6738 136.494C46.6071 136.849 47.0738 137.418 47.0738 138.202C47.0738 138.986 46.6071 139.555 45.6738 139.91C44.7498 140.274 43.5085 140.456 41.9498 140.456C40.4005 140.456 39.1591 140.274 38.2258 139.91C37.2925 139.555 36.8258 138.986 36.8258 138.202C36.8258 137.418 37.2925 136.849 38.2258 136.494C39.1591 136.13 40.4005 135.948 41.9498 135.948ZM41.9498 139.35C43.0511 139.35 43.9331 139.257 44.5958 139.07C45.2678 138.883 45.6038 138.594 45.6038 138.202C45.6038 137.81 45.2678 137.521 44.5958 137.334C43.9331 137.147 43.0511 137.054 41.9498 137.054C40.8485 137.054 39.9618 137.147 39.2898 137.334C38.6271 137.521 38.2958 137.81 38.2958 138.202C38.2958 138.594 38.6271 138.883 39.2898 139.07C39.9618 139.257 40.8485 139.35 41.9498 139.35ZM60.7926 128.5V135.892H59.4066V132.546H55.4026V131.384H59.4066V128.5H60.7926ZM58.0066 134.884C57.6333 135.033 57.1059 135.15 56.4246 135.234C55.7526 135.309 54.9966 135.346 54.1566 135.346H50.0266V128.794H57.1526V129.956H51.4266V134.198H54.2406C55.0526 134.198 55.7853 134.161 56.4386 134.086C57.0919 134.002 57.6146 133.885 58.0066 133.736V134.884ZM50.5166 136.55H60.7926V140.456H59.3786V137.726H50.5166V136.55ZM72.6774 129.816H63.7734V128.64H74.0774V132.504H72.6774V129.816ZM69.6674 134.268V135.822C71.0301 135.878 72.1267 136.097 72.9574 136.48C73.7974 136.853 74.2174 137.404 74.2174 138.132C74.2174 138.925 73.7274 139.513 72.7474 139.896C71.7767 140.279 70.5167 140.47 68.9674 140.47C67.4181 140.47 66.1534 140.279 65.1734 139.896C64.2027 139.513 63.7174 138.925 63.7174 138.132C63.7174 137.385 64.1281 136.83 64.9494 136.466C65.7801 136.093 66.8861 135.878 68.2674 135.822V134.268H63.0034V133.106H74.9454V134.268H69.6674ZM72.7614 138.132C72.7614 137.74 72.3927 137.441 71.6554 137.236C70.9181 137.021 70.0221 136.914 68.9674 136.914C67.8941 136.914 66.9934 137.017 66.2654 137.222C65.5374 137.418 65.1734 137.721 65.1734 138.132C65.1734 138.533 65.5421 138.837 66.2794 139.042C67.0167 139.257 67.9127 139.364 68.9674 139.364C70.0221 139.364 70.9181 139.257 71.6554 139.042C72.3927 138.837 72.7614 138.533 72.7614 138.132Z" fill="black"/>
<path d="M28.7178 215.5H30.1038V224.376H28.7178V215.5ZM22.8518 222.57C22.0864 222.57 21.4144 222.421 20.8358 222.122C20.2664 221.823 19.8278 221.413 19.5198 220.89C19.2118 220.358 19.0578 219.761 19.0578 219.098C19.0578 218.435 19.2118 217.843 19.5198 217.32C19.8278 216.788 20.2664 216.373 20.8358 216.074C21.4144 215.775 22.0864 215.626 22.8518 215.626C23.6171 215.626 24.2844 215.775 24.8538 216.074C25.4231 216.373 25.8618 216.783 26.1698 217.306C26.4778 217.829 26.6318 218.426 26.6318 219.098C26.6318 219.77 26.4778 220.367 26.1698 220.89C25.8618 221.413 25.4231 221.823 24.8538 222.122C24.2844 222.421 23.6171 222.57 22.8518 222.57ZM22.8518 221.394C23.5704 221.394 24.1491 221.189 24.5878 220.778C25.0264 220.358 25.2458 219.798 25.2458 219.098C25.2458 218.398 25.0218 217.838 24.5738 217.418C24.1351 216.998 23.5611 216.788 22.8518 216.788C22.1331 216.788 21.5498 216.998 21.1018 217.418C20.6631 217.838 20.4438 218.398 20.4438 219.098C20.4438 219.798 20.6631 220.358 21.1018 220.778C21.5498 221.189 22.1331 221.394 22.8518 221.394ZM20.1078 223.396H21.5218V226.042H30.4258V227.302H20.1078V223.396ZM44.9146 221.674H43.2346V227.456H41.8486V215.5H43.2346V220.344H44.9146V221.674ZM37.5786 215.85C37.5599 217.745 37.4012 219.401 37.1026 220.82L40.8686 225.916L39.7486 226.714L36.6686 222.444C36.2392 223.76 35.6699 224.791 34.9606 225.538C34.2512 226.275 33.4346 226.677 32.5106 226.742V225.342C33.2852 225.221 33.9432 224.726 34.4846 223.858C35.0352 222.99 35.4506 221.856 35.7306 220.456C36.0106 219.056 36.1552 217.502 36.1646 215.794L37.5786 215.85ZM57.8214 221.002V222.122H45.8794V221.002H51.1574V219.77H46.7334V215.64H56.9674V216.76H48.1194V218.65H57.1074V219.77H52.5294V221.002H57.8214ZM51.8434 223.116C53.4207 223.116 54.69 223.289 55.6514 223.634C56.622 223.979 57.1074 224.535 57.1074 225.3C57.1074 226.065 56.622 226.621 55.6514 226.966C54.6807 227.321 53.4114 227.498 51.8434 227.498C50.2754 227.498 49.006 227.321 48.0354 226.966C47.0647 226.621 46.5794 226.065 46.5794 225.3C46.5794 224.535 47.06 223.979 48.0214 223.634C48.992 223.289 50.266 223.116 51.8434 223.116ZM51.8434 226.406C52.9354 226.406 53.8407 226.317 54.5594 226.14C55.2874 225.963 55.6514 225.683 55.6514 225.3C55.6514 224.927 55.2874 224.651 54.5594 224.474C53.8407 224.297 52.9354 224.208 51.8434 224.208C50.7514 224.208 49.8414 224.297 49.1134 224.474C48.3947 224.651 48.0354 224.927 48.0354 225.3C48.0354 225.683 48.3947 225.963 49.1134 226.14C49.8414 226.317 50.7514 226.406 51.8434 226.406ZM60.4942 228.576H59.3462L59.7942 225.412H61.1942L60.4942 228.576ZM77.7346 220.484H67.5146V215.57H68.8866V216.942H76.3766V215.57H77.7346V220.484ZM76.3766 219.392V217.992H68.8866V219.392H76.3766ZM73.3106 222.71V223.984H77.7626V227.47H76.3626V225.118H67.3886V223.984H71.9386V222.71H66.6606V221.562H78.6026V222.71H73.3106ZM85.7974 219.154C85.1814 219.695 84.4068 220.125 83.4734 220.442C82.5401 220.75 81.5834 220.913 80.6034 220.932V219.784C81.2661 219.765 81.9334 219.663 82.6054 219.476C83.2774 219.28 83.8701 219.009 84.3834 218.664C84.8968 218.319 85.2514 217.913 85.4474 217.446H80.8274V216.326H85.3914V215.024H86.8054V216.326H91.3554V217.446H86.9174C86.8521 217.698 86.7354 217.964 86.5674 218.244L91.6634 219.868L91.2714 220.946L85.7974 219.154ZM92.0694 222.122V223.284H80.1274V222.122H85.3914V220.456H86.7914V222.122H92.0694ZM82.3674 226.14H91.4534V227.316H80.9534V224.138H82.3674V226.14Z" fill="black"/>
<path d="M133.924 220.05C133.495 220.685 132.949 221.207 132.286 221.618C131.633 222.029 130.896 222.276 130.074 222.36V221.156C130.97 221.025 131.708 220.652 132.286 220.036C132.865 219.411 133.22 218.659 133.35 217.782H130.2V216.62H133.364V215.29H134.764V216.62H137.886V217.782H134.764C134.708 218.202 134.61 218.599 134.47 218.972L138.096 221.226L137.438 222.262L133.924 220.05ZM139.706 218.398V215.5H141.092V222.626H139.706V219.63H137.41V218.398H139.706ZM136.038 223.004C137.616 223.004 138.876 223.181 139.818 223.536C140.761 223.881 141.232 224.446 141.232 225.23C141.232 226.005 140.761 226.569 139.818 226.924C138.876 227.279 137.616 227.456 136.038 227.456C134.461 227.456 133.201 227.279 132.258 226.924C131.316 226.569 130.844 226.005 130.844 225.23C130.844 224.446 131.316 223.881 132.258 223.536C133.201 223.181 134.461 223.004 136.038 223.004ZM136.038 226.35C137.158 226.35 138.059 226.257 138.74 226.07C139.422 225.893 139.762 225.613 139.762 225.23C139.762 224.847 139.422 224.567 138.74 224.39C138.059 224.203 137.158 224.11 136.038 224.11C134.918 224.11 134.018 224.203 133.336 224.39C132.655 224.567 132.314 224.847 132.314 225.23C132.314 225.613 132.655 225.893 133.336 226.07C134.018 226.257 134.918 226.35 136.038 226.35ZM155.805 221.562H154.153V227.456H152.767V215.5H154.153V220.232H155.805V221.562ZM147.909 225.44C149.711 225.44 150.999 225.272 151.773 224.936V226.238C150.952 226.574 149.65 226.742 147.867 226.742H143.303V225.44H146.537V223.102C145.66 222.953 144.951 222.551 144.409 221.898C143.868 221.235 143.597 220.423 143.597 219.462C143.597 218.743 143.751 218.104 144.059 217.544C144.367 216.975 144.797 216.536 145.347 216.228C145.898 215.911 146.523 215.752 147.223 215.752C147.914 215.752 148.535 215.911 149.085 216.228C149.645 216.536 150.084 216.975 150.401 217.544C150.719 218.104 150.877 218.743 150.877 219.462C150.877 220.097 150.751 220.675 150.499 221.198C150.247 221.711 149.897 222.136 149.449 222.472C149.001 222.799 148.488 223.009 147.909 223.102V225.44ZM144.955 219.462C144.955 220.171 145.161 220.759 145.571 221.226C145.982 221.683 146.533 221.912 147.223 221.912C147.671 221.912 148.068 221.805 148.413 221.59C148.768 221.375 149.039 221.081 149.225 220.708C149.421 220.335 149.519 219.919 149.519 219.462C149.519 218.995 149.421 218.575 149.225 218.202C149.039 217.829 148.773 217.535 148.427 217.32C148.082 217.105 147.681 216.998 147.223 216.998C146.533 216.998 145.982 217.231 145.571 217.698C145.161 218.155 144.955 218.743 144.955 219.462ZM168.264 215.5V227.456H166.948V221.618H165.002V227.246H163.686V215.57H165.002V220.316H166.948V215.5H168.264ZM160.032 225.51C160.545 225.51 161.045 225.473 161.53 225.398C162.025 225.314 162.454 225.197 162.818 225.048V226.266C162.473 226.415 162.034 226.532 161.502 226.616C160.97 226.7 160.429 226.742 159.878 226.742H157.134V215.934H162.3V217.166H158.492V225.51H160.032ZM182.739 217.88V219.21H181.059V221.842H179.673V215.5H181.059V217.88H182.739ZM177.657 218.594C177.657 219.182 177.507 219.7 177.209 220.148C176.91 220.587 176.481 220.932 175.921 221.184C175.361 221.427 174.712 221.548 173.975 221.548C173.228 221.548 172.575 221.427 172.015 221.184C171.464 220.932 171.035 220.587 170.727 220.148C170.428 219.7 170.279 219.182 170.279 218.594C170.279 218.015 170.428 217.502 170.727 217.054C171.035 216.606 171.464 216.256 172.015 216.004C172.575 215.752 173.228 215.626 173.975 215.626C174.712 215.626 175.356 215.752 175.907 216.004C176.467 216.256 176.896 216.606 177.195 217.054C177.503 217.502 177.657 218.015 177.657 218.594ZM171.665 218.594C171.665 219.163 171.875 219.611 172.295 219.938C172.715 220.255 173.275 220.414 173.975 220.414C174.665 220.414 175.221 220.255 175.641 219.938C176.061 219.611 176.271 219.163 176.271 218.594C176.271 218.025 176.061 217.577 175.641 217.25C175.221 216.923 174.665 216.76 173.975 216.76C173.284 216.76 172.724 216.923 172.295 217.25C171.875 217.577 171.665 218.025 171.665 218.594ZM179.169 226.196H181.311V227.344H171.091V226.196H173.247V223.662H171.231V222.528H181.171V223.662H179.169V226.196ZM174.619 226.196H177.783V223.662H174.619V226.196Z" fill="black"/>
<path d="M245.44 220.806H242.892V219.588H245.44V218.006H243.354V216.788H245.44V215.5H246.826V222.108H245.44V220.806ZM242.766 217.096C242.766 218.664 242.164 219.831 240.96 220.596C239.765 221.352 238.094 221.73 235.948 221.73V220.526C237.665 220.517 238.995 220.246 239.938 219.714C240.89 219.173 241.366 218.379 241.366 217.334V216.97H235.948V215.794H242.766V217.096ZM241.786 222.5C243.344 222.5 244.6 222.701 245.552 223.102C246.513 223.494 246.994 224.119 246.994 224.978C246.994 225.827 246.513 226.453 245.552 226.854C244.59 227.255 243.335 227.456 241.786 227.456C240.236 227.456 238.981 227.255 238.02 226.854C237.058 226.453 236.578 225.827 236.578 224.978C236.578 224.119 237.054 223.494 238.006 223.102C238.967 222.701 240.227 222.5 241.786 222.5ZM241.786 226.308C242.878 226.308 243.774 226.201 244.474 225.986C245.174 225.762 245.524 225.426 245.524 224.978C245.524 224.53 245.174 224.199 244.474 223.984C243.774 223.76 242.878 223.648 241.786 223.648C240.694 223.648 239.798 223.76 239.098 223.984C238.398 224.199 238.048 224.53 238.048 224.978C238.048 225.426 238.398 225.762 239.098 225.986C239.798 226.201 240.694 226.308 241.786 226.308ZM260.979 221.716V222.864H249.037V221.716H254.315V220.484H249.891V215.57H251.263V216.942H258.753V215.57H260.111V220.484H255.687V221.716H260.979ZM251.263 219.392H258.753V217.992H251.263V219.392ZM249.765 223.984H260.139V227.47H258.739V225.118H249.765V223.984ZM272.177 216.816H263.273V215.64H273.577V219.504H272.177V216.816ZM269.167 221.268V222.822C270.53 222.878 271.627 223.097 272.457 223.48C273.297 223.853 273.717 224.404 273.717 225.132C273.717 225.925 273.227 226.513 272.247 226.896C271.277 227.279 270.017 227.47 268.467 227.47C266.918 227.47 265.653 227.279 264.673 226.896C263.703 226.513 263.217 225.925 263.217 225.132C263.217 224.385 263.628 223.83 264.449 223.466C265.28 223.093 266.386 222.878 267.767 222.822V221.268H262.503V220.106H274.445V221.268H269.167ZM272.261 225.132C272.261 224.74 271.893 224.441 271.155 224.236C270.418 224.021 269.522 223.914 268.467 223.914C267.394 223.914 266.493 224.017 265.765 224.222C265.037 224.418 264.673 224.721 264.673 225.132C264.673 225.533 265.042 225.837 265.779 226.042C266.517 226.257 267.413 226.364 268.467 226.364C269.522 226.364 270.418 226.257 271.155 226.042C271.893 225.837 272.261 225.533 272.261 225.132ZM231.875 230.5H233.261V239.376H231.875V230.5ZM222.649 230.794H229.761V237.248H222.649V230.794ZM228.389 236.044V231.998H224.021V236.044H228.389ZM223.125 238.424H224.525V241.042H233.583V242.302H223.125V238.424ZM241.422 233.006C240.768 233.706 239.956 234.266 238.986 234.686C238.015 235.097 237.021 235.311 236.004 235.33V234.126C236.788 234.098 237.562 233.921 238.328 233.594C239.102 233.267 239.76 232.815 240.302 232.236C240.852 231.648 241.202 230.976 241.352 230.22L242.738 230.444C242.626 231.004 242.425 231.541 242.136 232.054L247.148 234.322L246.63 235.386L241.422 233.006ZM247.512 236.464V237.612H235.57V236.464H240.848V234.644H242.22V236.464H247.512ZM236.298 238.788H246.672V242.47H245.272V239.936H236.298V238.788ZM261.539 234.546H259.859V237.836H258.473V230.5H259.859V233.216H261.539V234.546ZM256.443 237.178H249.457V230.71H250.815V232.698H255.085V230.71H256.443V237.178ZM255.085 236.016V233.832H250.815V236.016H255.085ZM249.751 238.494H259.859V242.456H258.459V239.684H249.751V238.494ZM273.577 234.518H263.357V230.64H273.577V234.518ZM272.205 231.704H264.743V233.454H272.205V231.704ZM269.153 236.506V237.584H273.619V240.44H264.687V241.28H273.829V242.316H263.329V239.46H272.261V238.62H263.301V237.584H267.781V236.506H262.503V235.428H274.445V236.506H269.153ZM288.472 233.734V235.036H286.82V239.586H285.434V230.5H286.82V233.734H288.472ZM281.906 231.9H276.544V230.696H283.292V235.33H281.906V231.9ZM284.44 237.136C283.75 237.444 282.429 237.598 280.478 237.598H275.97V236.408H278.308V233.566H279.68V236.408H280.52C282.406 236.408 283.712 236.254 284.44 235.946V237.136ZM278.21 241.098H287.142V242.302H276.81V238.788H278.21V241.098ZM229.845 247.782H222.131V246.676H225.449V245.29H226.849V246.676H229.845V247.782ZM231.987 252.178H230.181V251.002H231.987V249.378H230.181V248.202H231.987V245.5H233.359V254.446H231.987V252.178ZM226.149 253.34C225.132 253.34 224.296 253.13 223.643 252.71C222.999 252.281 222.677 251.683 222.677 250.918C222.677 250.162 222.999 249.569 223.643 249.14C224.296 248.711 225.132 248.496 226.149 248.496C227.157 248.496 227.983 248.711 228.627 249.14C229.28 249.569 229.607 250.162 229.607 250.918C229.607 251.683 229.285 252.281 228.641 252.71C227.997 253.13 227.166 253.34 226.149 253.34ZM226.149 249.56C225.496 249.56 224.973 249.691 224.581 249.952C224.198 250.204 224.007 250.526 224.007 250.918C224.007 251.319 224.198 251.651 224.581 251.912C224.973 252.164 225.496 252.29 226.149 252.29C226.802 252.29 227.32 252.164 227.703 251.912C228.086 251.651 228.277 251.319 228.277 250.918C228.277 250.526 228.086 250.204 227.703 249.952C227.32 249.691 226.802 249.56 226.149 249.56ZM233.639 256.07V257.302H223.181V253.9H224.581V256.07H233.639ZM247.064 245.5V257.456H245.748V251.618H243.802V257.246H242.486V245.57H243.802V250.316H245.748V245.5H247.064ZM238.832 255.51C239.345 255.51 239.844 255.473 240.33 255.398C240.824 255.314 241.254 255.197 241.618 255.048V256.266C241.272 256.415 240.834 256.532 240.302 256.616C239.77 256.7 239.228 256.742 238.678 256.742H235.934V245.934H241.1V247.166H237.292V255.51H238.832ZM258.809 245.5H260.195V257.456H258.809V245.5ZM249.723 245.934H256.499V256.742H249.723V245.934ZM255.113 255.44V247.236H251.109V255.44H255.113ZM268.369 247.614C267.707 248.23 266.885 248.725 265.905 249.098C264.935 249.471 263.945 249.667 262.937 249.686V248.538C263.731 248.51 264.505 248.361 265.261 248.09C266.027 247.81 266.68 247.427 267.221 246.942C267.772 246.447 268.127 245.873 268.285 245.22L269.671 245.472C269.578 245.883 269.396 246.303 269.125 246.732L274.067 248.678L273.619 249.714L268.369 247.614ZM269.153 251.506V252.584H273.619V255.44H264.687V256.28H273.829V257.316H263.329V254.46H272.261V253.62H263.301V252.584H267.781V251.506H262.503V250.428H274.445V251.506H269.153ZM288.472 248.734V250.036H286.82V254.586H285.434V245.5H286.82V248.734H288.472ZM281.906 246.9H276.544V245.696H283.292V250.33H281.906V246.9ZM284.44 252.136C283.75 252.444 282.429 252.598 280.478 252.598H275.97V251.408H278.308V248.566H279.68V251.408H280.52C282.406 251.408 283.712 251.254 284.44 250.946V252.136ZM278.21 256.098H287.142V257.302H276.81V253.788H278.21V256.098Z" fill="black"/>
<path d="M327.364 215.5V227.456H326.048V215.5H327.364ZM323.038 215.57H324.354V227.246H323.038V220.904H321.148V219.588H323.038V215.57ZM319.846 215.85C319.846 217.623 319.757 219.243 319.58 220.708L322.478 225.972L321.316 226.588L319.216 222.668C318.917 223.872 318.497 224.81 317.956 225.482C317.424 226.154 316.761 226.574 315.968 226.742V225.342C316.873 225.043 317.522 224.087 317.914 222.472C318.306 220.848 318.506 218.622 318.516 215.794L319.846 215.85ZM335.076 218.482C334.479 218.967 333.723 219.345 332.808 219.616C331.894 219.887 330.942 220.031 329.952 220.05V218.916C330.652 218.897 331.343 218.799 332.024 218.622C332.715 218.445 333.308 218.197 333.802 217.88C334.306 217.563 334.633 217.189 334.782 216.76H330.148V215.64H340.452V216.76H336.196C336.14 217.04 336.033 217.311 335.874 217.572L340.774 219.014L340.41 220.106L335.076 218.482ZM341.278 221.044V222.164H329.336V221.044H334.614V219.602H335.986V221.044H341.278ZM335.3 223.13C336.878 223.13 338.147 223.303 339.108 223.648C340.079 223.984 340.564 224.535 340.564 225.3C340.564 226.065 340.079 226.621 339.108 226.966C338.138 227.321 336.868 227.498 335.3 227.498C333.732 227.498 332.463 227.321 331.492 226.966C330.522 226.621 330.036 226.065 330.036 225.3C330.036 224.535 330.517 223.984 331.478 223.648C332.449 223.303 333.723 223.13 335.3 223.13ZM335.3 226.406C336.392 226.406 337.298 226.317 338.016 226.14C338.735 225.963 339.094 225.683 339.094 225.3C339.094 224.927 338.735 224.656 338.016 224.488C337.298 224.311 336.392 224.222 335.3 224.222C334.208 224.222 333.303 224.311 332.584 224.488C331.866 224.656 331.506 224.927 331.506 225.3C331.506 225.683 331.866 225.963 332.584 226.14C333.303 226.317 334.208 226.406 335.3 226.406ZM353.877 220.428H343.657V215.64H353.877V220.428ZM352.491 216.788H345.043V219.28H352.491V216.788ZM354.745 221.632V222.808H349.467V224.866H348.067V222.808H342.803V221.632H354.745ZM345.043 226.126H354.143V227.316H343.643V223.83H345.043V226.126ZM364.32 218.104H356.214V216.886H359.56V215.374H360.974V216.886H364.32V218.104ZM368.772 221.562H367.12V227.456H365.734V215.5H367.12V220.232H368.772V221.562ZM360.96 225.51C362.743 225.491 364.003 225.314 364.74 224.978V226.238C364.367 226.406 363.835 226.532 363.144 226.616C362.463 226.7 361.693 226.742 360.834 226.742H356.27V225.51H359.574V223.732C358.725 223.639 358.053 223.382 357.558 222.962C357.073 222.533 356.83 221.982 356.83 221.31C356.83 220.545 357.143 219.943 357.768 219.504C358.393 219.056 359.233 218.832 360.288 218.832C361.343 218.832 362.183 219.056 362.808 219.504C363.433 219.943 363.746 220.545 363.746 221.31C363.746 221.982 363.499 222.533 363.004 222.962C362.509 223.391 361.828 223.653 360.96 223.746V225.51ZM358.146 221.31C358.146 221.702 358.333 222.024 358.706 222.276C359.079 222.519 359.607 222.64 360.288 222.64C360.969 222.64 361.497 222.519 361.87 222.276C362.243 222.024 362.43 221.702 362.43 221.31C362.43 220.918 362.243 220.596 361.87 220.344C361.497 220.092 360.969 219.966 360.288 219.966C359.607 219.966 359.079 220.092 358.706 220.344C358.333 220.596 358.146 220.918 358.146 221.31ZM378.011 218.104H369.793V216.886H373.195V215.374H374.609V216.886H378.011V218.104ZM380.923 215.5V227.456H379.537V215.5H380.923ZM374.623 225.51C376.461 225.51 377.768 225.333 378.543 224.978V226.238C378.169 226.406 377.637 226.532 376.947 226.616C376.265 226.7 375.495 226.742 374.637 226.742H369.737V225.51H373.223V223.732C372.345 223.639 371.659 223.382 371.165 222.962C370.67 222.533 370.423 221.982 370.423 221.31C370.423 220.545 370.735 219.943 371.361 219.504C371.995 219.056 372.849 218.832 373.923 218.832C374.996 218.832 375.845 219.056 376.471 219.504C377.105 219.943 377.423 220.545 377.423 221.31C377.423 221.982 377.171 222.533 376.667 222.962C376.172 223.391 375.486 223.653 374.609 223.746V225.51H374.623ZM371.739 221.31C371.739 221.702 371.925 222.024 372.299 222.276C372.681 222.519 373.223 222.64 373.923 222.64C374.623 222.64 375.159 222.519 375.533 222.276C375.915 222.024 376.107 221.702 376.107 221.31C376.107 220.918 375.915 220.596 375.533 220.344C375.159 220.092 374.623 219.966 373.923 219.966C373.223 219.966 372.681 220.092 372.299 220.344C371.925 220.596 371.739 220.918 371.739 221.31ZM395.706 218.734V220.036H394.054V224.586H392.668V215.5H394.054V218.734H395.706ZM389.14 216.9H383.778V215.696H390.526V220.33H389.14V216.9ZM391.674 222.136C390.983 222.444 389.662 222.598 387.712 222.598H383.204V221.408H385.542V218.566H386.914V221.408H387.754C389.639 221.408 390.946 221.254 391.674 220.946V222.136ZM385.444 226.098H394.376V227.302H384.044V223.788H385.444V226.098ZM335.105 233.174V234.462H333.453V237.808H332.067V230.5H333.453V233.174H335.105ZM328.539 231.858H323.177V230.696H329.925V234.882H328.539V231.858ZM331.073 236.436C330.364 236.753 329.043 236.912 327.111 236.912H322.603V235.778H324.941V233.286H326.313V235.778H327.153C329.02 235.778 330.326 235.619 331.073 235.302V236.436ZM328.483 237.864C330.06 237.864 331.316 238.06 332.249 238.452C333.192 238.835 333.663 239.413 333.663 240.188C333.663 240.963 333.192 241.541 332.249 241.924C331.306 242.307 330.051 242.498 328.483 242.498C326.915 242.498 325.66 242.307 324.717 241.924C323.774 241.541 323.303 240.963 323.303 240.188C323.303 239.413 323.77 238.835 324.703 238.452C325.646 238.06 326.906 237.864 328.483 237.864ZM328.483 241.42C329.612 241.42 330.513 241.317 331.185 241.112C331.866 240.916 332.207 240.608 332.207 240.188C332.207 239.768 331.866 239.455 331.185 239.25C330.504 239.045 329.603 238.942 328.483 238.942C327.363 238.942 326.462 239.045 325.781 239.25C325.1 239.455 324.759 239.768 324.759 240.188C324.759 240.608 325.095 240.916 325.767 241.112C326.448 241.317 327.354 241.42 328.483 241.42ZM344.12 233.104H336.014V231.886H339.36V230.374H340.774V231.886H344.12V233.104ZM348.572 236.562H346.92V242.456H345.534V230.5H346.92V235.232H348.572V236.562ZM340.76 240.51C342.542 240.491 343.802 240.314 344.54 239.978V241.238C344.166 241.406 343.634 241.532 342.944 241.616C342.262 241.7 341.492 241.742 340.634 241.742H336.07V240.51H339.374V238.732C338.524 238.639 337.852 238.382 337.358 237.962C336.872 237.533 336.63 236.982 336.63 236.31C336.63 235.545 336.942 234.943 337.568 234.504C338.193 234.056 339.033 233.832 340.088 233.832C341.142 233.832 341.982 234.056 342.608 234.504C343.233 234.943 343.546 235.545 343.546 236.31C343.546 236.982 343.298 237.533 342.804 237.962C342.309 238.391 341.628 238.653 340.76 238.746V240.51ZM337.946 236.31C337.946 236.702 338.132 237.024 338.506 237.276C338.879 237.519 339.406 237.64 340.088 237.64C340.769 237.64 341.296 237.519 341.67 237.276C342.043 237.024 342.23 236.702 342.23 236.31C342.23 235.918 342.043 235.596 341.67 235.344C341.296 235.092 340.769 234.966 340.088 234.966C339.406 234.966 338.879 235.092 338.506 235.344C338.132 235.596 337.946 235.918 337.946 236.31ZM360.611 235.428H350.391V230.64H360.611V235.428ZM359.225 231.788H351.777V234.28H359.225V231.788ZM361.479 236.632V237.808H356.201V239.866H354.801V237.808H349.537V236.632H361.479ZM351.777 241.126H360.877V242.316H350.377V238.83H351.777V241.126ZM375.505 233.174V234.462H373.853V237.808H372.467V230.5H373.853V233.174H375.505ZM368.939 231.858H363.577V230.696H370.325V234.882H368.939V231.858ZM371.473 236.436C370.764 236.753 369.443 236.912 367.511 236.912H363.003V235.778H365.341V233.286H366.713V235.778H367.553C369.42 235.778 370.727 235.619 371.473 235.302V236.436ZM368.883 237.864C370.461 237.864 371.716 238.06 372.649 238.452C373.592 238.835 374.063 239.413 374.063 240.188C374.063 240.963 373.592 241.541 372.649 241.924C371.707 242.307 370.451 242.498 368.883 242.498C367.315 242.498 366.06 242.307 365.117 241.924C364.175 241.541 363.703 240.963 363.703 240.188C363.703 239.413 364.17 238.835 365.103 238.452C366.046 238.06 367.306 237.864 368.883 237.864ZM368.883 241.42C370.013 241.42 370.913 241.317 371.585 241.112C372.267 240.916 372.607 240.608 372.607 240.188C372.607 239.768 372.267 239.455 371.585 239.25C370.904 239.045 370.003 238.942 368.883 238.942C367.763 238.942 366.863 239.045 366.181 239.25C365.5 239.455 365.159 239.768 365.159 240.188C365.159 240.608 365.495 240.916 366.167 241.112C366.849 241.317 367.754 241.42 368.883 241.42ZM388.972 232.782V234.098H387.292V237.108H385.906V230.5H387.292V232.782H388.972ZM380.656 234.434C380.246 235.115 379.69 235.671 378.99 236.1C378.3 236.52 377.516 236.777 376.638 236.87V235.624C377.609 235.493 378.388 235.101 378.976 234.448C379.574 233.785 379.919 232.969 380.012 231.998H376.792V230.808H384.422V231.998H381.398C381.37 232.446 381.291 232.889 381.16 233.328L384.8 235.568L384.114 236.604L380.656 234.434ZM382.35 237.5C383.89 237.5 385.127 237.701 386.06 238.102C387.003 238.503 387.474 239.129 387.474 239.978C387.474 240.827 387.003 241.453 386.06 241.854C385.127 242.255 383.89 242.456 382.35 242.456C380.81 242.456 379.569 242.255 378.626 241.854C377.693 241.453 377.226 240.827 377.226 239.978C377.226 239.129 377.693 238.503 378.626 238.102C379.569 237.701 380.81 237.5 382.35 237.5ZM382.35 241.308C383.433 241.308 384.31 241.196 384.982 240.972C385.654 240.748 385.99 240.417 385.99 239.978C385.99 239.539 385.654 239.208 384.982 238.984C384.31 238.76 383.433 238.648 382.35 238.648C381.277 238.648 380.4 238.76 379.718 238.984C379.046 239.208 378.71 239.539 378.71 239.978C378.71 240.417 379.046 240.748 379.718 240.972C380.39 241.196 381.268 241.308 382.35 241.308Z" fill="black"/>
<path d="M442.338 218.174V219.462H440.686V222.808H439.3V215.5H440.686V218.174H442.338ZM435.772 216.858H430.41V215.696H437.158V219.882H435.772V216.858ZM438.306 221.436C437.597 221.753 436.276 221.912 434.344 221.912H429.836V220.778H432.174V218.286H433.546V220.778H434.386C436.253 220.778 437.56 220.619 438.306 220.302V221.436ZM435.716 222.864C437.294 222.864 438.549 223.06 439.482 223.452C440.425 223.835 440.896 224.413 440.896 225.188C440.896 225.963 440.425 226.541 439.482 226.924C438.54 227.307 437.284 227.498 435.716 227.498C434.148 227.498 432.893 227.307 431.95 226.924C431.008 226.541 430.536 225.963 430.536 225.188C430.536 224.413 431.003 223.835 431.936 223.452C432.879 223.06 434.139 222.864 435.716 222.864ZM435.716 226.42C436.846 226.42 437.746 226.317 438.418 226.112C439.1 225.916 439.44 225.608 439.44 225.188C439.44 224.768 439.1 224.455 438.418 224.25C437.737 224.045 436.836 223.942 435.716 223.942C434.596 223.942 433.696 224.045 433.014 224.25C432.333 224.455 431.992 224.768 431.992 225.188C431.992 225.608 432.328 225.916 433 226.112C433.682 226.317 434.587 226.42 435.716 226.42ZM451.353 218.104H443.247V216.886H446.593V215.374H448.007V216.886H451.353V218.104ZM455.805 221.562H454.153V227.456H452.767V215.5H454.153V220.232H455.805V221.562ZM447.993 225.51C449.776 225.491 451.036 225.314 451.773 224.978V226.238C451.4 226.406 450.868 226.532 450.177 226.616C449.496 226.7 448.726 226.742 447.867 226.742H443.303V225.51H446.607V223.732C445.758 223.639 445.086 223.382 444.591 222.962C444.106 222.533 443.863 221.982 443.863 221.31C443.863 220.545 444.176 219.943 444.801 219.504C445.427 219.056 446.267 218.832 447.321 218.832C448.376 218.832 449.216 219.056 449.841 219.504C450.467 219.943 450.779 220.545 450.779 221.31C450.779 221.982 450.532 222.533 450.037 222.962C449.543 223.391 448.861 223.653 447.993 223.746V225.51ZM445.179 221.31C445.179 221.702 445.366 222.024 445.739 222.276C446.113 222.519 446.64 222.64 447.321 222.64C448.003 222.64 448.53 222.519 448.903 222.276C449.277 222.024 449.463 221.702 449.463 221.31C449.463 220.918 449.277 220.596 448.903 220.344C448.53 220.092 448.003 219.966 447.321 219.966C446.64 219.966 446.113 220.092 445.739 220.344C445.366 220.596 445.179 220.918 445.179 221.31ZM467.844 220.428H457.624V215.64H467.844V220.428ZM466.458 216.788H459.01V219.28H466.458V216.788ZM468.712 221.632V222.808H463.434V224.866H462.034V222.808H456.77V221.632H468.712ZM459.01 226.126H468.11V227.316H457.61V223.83H459.01V226.126ZM481.493 215.5V222.64H480.121V221.114H478.007L478.091 219.882H480.121V218.006H478.091L478.007 216.774H480.121V215.5H481.493ZM477.685 218.944C477.685 219.579 477.535 220.148 477.237 220.652C476.938 221.156 476.509 221.553 475.949 221.842C475.398 222.122 474.754 222.262 474.017 222.262C473.279 222.262 472.631 222.122 472.071 221.842C471.511 221.553 471.081 221.156 470.783 220.652C470.484 220.148 470.335 219.579 470.335 218.944C470.335 218.309 470.484 217.74 470.783 217.236C471.081 216.732 471.511 216.34 472.071 216.06C472.631 215.771 473.279 215.626 474.017 215.626C474.754 215.626 475.398 215.771 475.949 216.06C476.509 216.34 476.938 216.732 477.237 217.236C477.535 217.74 477.685 218.309 477.685 218.944ZM471.721 218.944C471.721 219.607 471.931 220.134 472.351 220.526C472.771 220.909 473.326 221.1 474.017 221.1C474.689 221.1 475.235 220.904 475.655 220.512C476.084 220.12 476.299 219.597 476.299 218.944C476.299 218.281 476.089 217.759 475.669 217.376C475.249 216.984 474.698 216.788 474.017 216.788C473.326 216.788 472.771 216.984 472.351 217.376C471.931 217.759 471.721 218.281 471.721 218.944ZM471.357 223.298H481.493V227.456H480.079V224.502H471.357V223.298Z" fill="black"/>
<circle cx="56" cy="15" r="15" fill="#FDD118"/>
<circle cx="56" cy="15" r="7" fill="white"/>
<circle cx="156" cy="15" r="15" fill="#FDD118"/>
<circle cx="156" cy="15" r="7" fill="white"/>
<circle cx="256" cy="15" r="15" fill="#FDD118"/>
<circle cx="256" cy="15" r="7" fill="white"/>
<circle cx="356" cy="15" r="15" fill="#FDD118"/>
<circle cx="356" cy="15" r="7" fill="white"/>
<circle cx="456" cy="15" r="15" fill="#FDD118"/>
<circle cx="456" cy="15" r="7" fill="white"/>
<circle cx="456" cy="105" r="15" fill="#FDD118"/>
<circle cx="456" cy="105" r="7" fill="white"/>
<circle cx="456" cy="195" r="15" fill="#FDD118"/>
<circle cx="456" cy="195" r="7" fill="white"/>
<circle cx="356" cy="105" r="15" fill="#FDD118"/>
<circle cx="356" cy="105" r="7" fill="white"/>
<circle cx="356" cy="195" r="15" fill="#FDD118"/>
<circle cx="356" cy="195" r="7" fill="white"/>
<circle cx="256" cy="105" r="15" fill="#FDD118"/>
<circle cx="256" cy="105" r="7" fill="white"/>
<circle cx="256" cy="195" r="15" fill="#FDD118"/>
<circle cx="256" cy="195" r="7" fill="white"/>
<circle cx="156" cy="105" r="15" fill="#FDD118"/>
<circle cx="156" cy="105" r="7" fill="white"/>
<circle cx="156" cy="195" r="15" fill="#FDD118"/>
<circle cx="156" cy="195" r="7" fill="white"/>
<circle cx="56" cy="105" r="15" fill="#FDD118"/>
<circle cx="56" cy="105" r="7" fill="white"/>
<circle cx="56" cy="195" r="15" fill="#FDD118"/>
<circle cx="56" cy="195" r="7" fill="white"/>
<rect x="70" y="13" width="72" height="5" fill="#FDD118"/>
<rect x="70" y="102" width="72" height="5" fill="#FDD118"/>
<rect x="70" y="192" width="72" height="5" fill="#FDD118"/>
<rect x="170" y="13" width="72" height="5" fill="#FDD118"/>
<rect x="170" y="102" width="72" height="5" fill="#FDD118"/>
<rect x="170" y="192" width="72" height="5" fill="#FDD118"/>
<rect x="270" y="13" width="72" height="5" fill="#FDD118"/>
<rect x="270" y="102" width="72" height="5" fill="#FDD118"/>
<rect x="270" y="192" width="72" height="5" fill="#FDD118"/>
<rect x="370" y="13" width="72" height="5" fill="#FDD118"/>
<rect x="370" y="102" width="72" height="5" fill="#FDD118"/>
<rect x="370" y="192" width="72" height="5" fill="#FDD118"/>
<path d="M42 194C-10.1464 194 -9.85343 105 42 105" stroke="#FDD118" stroke-width="5"/>
<path d="M463 16C515.146 16 514.853 105 463 105" stroke="#FDD118" stroke-width="5"/>
</svg>
