<svg width="505" height="334" viewBox="0 0 505 334" fill="none" xmlns="http://www.w3.org/2000/svg">
<path d="M27.712 44.002V45.122H15.77V44.002H21.048V42.77H16.624V38.64H26.858V39.76H18.01V41.65H26.998V42.77H22.42V44.002H27.712ZM21.734 46.116C23.3113 46.116 24.5807 46.2887 25.542 46.634C26.5127 46.9793 26.998 47.5347 26.998 48.3C26.998 49.0653 26.5127 49.6207 25.542 49.966C24.5713 50.3207 23.302 50.498 21.734 50.498C20.166 50.498 18.8967 50.3207 17.926 49.966C16.9553 49.6207 16.47 49.0653 16.47 48.3C16.47 47.5347 16.9507 46.9793 17.912 46.634C18.8827 46.2887 20.1567 46.116 21.734 46.116ZM21.734 49.406C22.826 49.406 23.7313 49.3173 24.45 49.14C25.178 48.9627 25.542 48.6827 25.542 48.3C25.542 47.9267 25.178 47.6513 24.45 47.474C23.7313 47.2967 22.826 47.208 21.734 47.208C20.642 47.208 19.732 47.2967 19.004 47.474C18.2853 47.6513 17.926 47.9267 17.926 48.3C17.926 48.6827 18.2853 48.9627 19.004 49.14C19.732 49.3173 20.642 49.406 21.734 49.406ZM40.7308 38.5V50.456H39.4148V44.618H37.4688V50.246H36.1528V38.57H37.4688V43.316H39.4148V38.5H40.7308ZM32.4988 48.51C33.0121 48.51 33.5115 48.4727 33.9968 48.398C34.4915 48.314 34.9208 48.1973 35.2848 48.048V49.266C34.9395 49.4153 34.5008 49.532 33.9688 49.616C33.4368 49.7 32.8955 49.742 32.3448 49.742H29.6008V38.934H34.7668V40.166H30.9588V48.51H32.4988ZM53.7776 43.428H43.5576V38.64H53.7776V43.428ZM52.3916 39.788H44.9436V42.28H52.3916V39.788ZM54.6456 44.632V45.808H49.3676V47.866H47.9676V45.808H42.7036V44.632H54.6456ZM44.9436 49.126H54.0436V50.316H43.5436V46.83H44.9436V49.126ZM65.9424 38.5H67.3284V50.456L65.9424 50.47V38.5ZM56.8704 38.934H63.8984V40.208H58.2704V48.468H61.7424C62.3117 48.468 62.8764 48.4167 63.4364 48.314C64.0057 48.2113 64.4724 48.0713 64.8364 47.894V49.168C64.4724 49.3453 64.0011 49.4853 63.4224 49.588C62.8531 49.6907 62.2791 49.742 61.7004 49.742H56.8704V38.934ZM82.1392 44.674H80.4592V50.456H79.0732V38.5H80.4592V43.344H82.1392V44.674ZM74.5652 40.208C74.5559 41.5893 74.4345 42.854 74.2012 44.002L78.0372 48.818L76.9452 49.644L73.7952 45.57C73.3845 46.8113 72.8339 47.7913 72.1432 48.51C71.4619 49.2287 70.6732 49.6393 69.7772 49.742V48.37C70.4679 48.2393 71.0652 47.81 71.5692 47.082C72.0732 46.354 72.4605 45.3973 72.7312 44.212C73.0019 43.0267 73.1465 41.692 73.1652 40.208H70.0572V38.934H77.5752V40.208H74.5652ZM92.876 38.5H94.262V47.376H92.876V38.5ZM87.01 45.57C86.2447 45.57 85.5727 45.4207 84.994 45.122C84.4247 44.8233 83.986 44.4127 83.678 43.89C83.37 43.358 83.216 42.7607 83.216 42.098C83.216 41.4353 83.37 40.8427 83.678 40.32C83.986 39.788 84.4247 39.3727 84.994 39.074C85.5727 38.7753 86.2447 38.626 87.01 38.626C87.7753 38.626 88.4427 38.7753 89.012 39.074C89.5813 39.3727 90.02 39.7833 90.328 40.306C90.636 40.8287 90.79 41.426 90.79 42.098C90.79 42.77 90.636 43.3673 90.328 43.89C90.02 44.4127 89.5813 44.8233 89.012 45.122C88.4427 45.4207 87.7753 45.57 87.01 45.57ZM87.01 44.394C87.7287 44.394 88.3073 44.1887 88.746 43.778C89.1847 43.358 89.404 42.798 89.404 42.098C89.404 41.398 89.18 40.838 88.732 40.418C88.2933 39.998 87.7193 39.788 87.01 39.788C86.2913 39.788 85.708 39.998 85.26 40.418C84.8213 40.838 84.602 41.398 84.602 42.098C84.602 42.798 84.8213 43.358 85.26 43.778C85.708 44.1887 86.2913 44.394 87.01 44.394ZM84.266 46.396H85.68V49.042H94.584V50.302H84.266V46.396ZM27.012 57.714H16.456V56.664H18.57V54.69H16.582V53.64H26.886V54.69H24.898V56.664H27.012V57.714ZM19.956 56.664H23.512V54.69H19.956V56.664ZM27.712 58.708V59.786H15.77V58.708H27.712ZM17.954 64.294H27.096V65.316H16.596V62.544H25.528V61.774H16.568V60.752H26.886V63.51H17.954V64.294ZM41.7388 59.674H40.0588V65.456H38.6728V53.5H40.0588V58.344H41.7388V59.674ZM34.5428 63.468C35.1215 63.468 35.6908 63.4167 36.2508 63.314C36.8201 63.2113 37.2821 63.076 37.6368 62.908V64.168C37.2821 64.3453 36.8201 64.4853 36.2508 64.588C35.6815 64.6907 35.1028 64.742 34.5148 64.742H29.7968V58.61H35.0188V55.208H29.7688V53.934H36.4048V59.884H31.1688V63.468H34.5428ZM55.2056 59.674H53.5256V65.456H52.1396V53.5H53.5256V58.344H55.2056V59.674ZM47.6316 55.208C47.6223 56.5893 47.5009 57.854 47.2676 59.002L51.1036 63.818L50.0116 64.644L46.8616 60.57C46.4509 61.8113 45.9003 62.7913 45.2096 63.51C44.5283 64.2287 43.7396 64.6393 42.8436 64.742V63.37C43.5343 63.2393 44.1316 62.81 44.6356 62.082C45.1396 61.354 45.5269 60.3973 45.7976 59.212C46.0683 58.0267 46.2129 56.692 46.2316 55.208H43.1236V53.934H50.6416V55.208H47.6316ZM58.5504 65.708C57.7197 64.812 57.0757 63.8507 56.6184 62.824C56.1704 61.7973 55.9464 60.6773 55.9464 59.464C55.9464 58.2507 56.1704 57.1307 56.6184 56.104C57.0757 55.0773 57.7197 54.116 58.5504 53.22H60.1044C59.2551 54.088 58.5877 55.0493 58.1024 56.104C57.6171 57.1587 57.3744 58.2787 57.3744 59.464C57.3744 60.6493 57.6171 61.7693 58.1024 62.824C58.5877 63.8787 59.2551 64.84 60.1044 65.708H58.5504ZM65.598 53.948C66.8673 53.948 67.9593 54.1813 68.874 54.648C69.7886 55.1147 70.4886 55.7727 70.974 56.622C71.4593 57.462 71.702 58.442 71.702 59.562C71.702 60.682 71.4593 61.662 70.974 62.502C70.498 63.342 69.798 63.9953 68.874 64.462C67.9593 64.9287 66.8673 65.162 65.598 65.162H61.622V53.948H65.598ZM65.64 63.832C67.068 63.832 68.188 63.4587 69 62.712C69.812 61.9653 70.218 60.9153 70.218 59.562C70.218 58.2087 69.812 57.154 69 56.398C68.188 55.642 67.068 55.264 65.64 55.264H63.092V63.832H65.64ZM77.6155 53.948C78.8849 53.948 79.9769 54.1813 80.8915 54.648C81.8062 55.1147 82.5062 55.7727 82.9915 56.622C83.4769 57.462 83.7195 58.442 83.7195 59.562C83.7195 60.682 83.4769 61.662 82.9915 62.502C82.5155 63.342 81.8155 63.9953 80.8915 64.462C79.9769 64.9287 78.8849 65.162 77.6155 65.162H73.6395V53.948H77.6155ZM77.6575 63.832C79.0855 63.832 80.2055 63.4587 81.0175 62.712C81.8295 61.9653 82.2355 60.9153 82.2355 59.562C82.2355 58.2087 81.8295 57.154 81.0175 56.398C80.2055 55.642 79.0855 55.264 77.6575 55.264H75.1095V63.832H77.6575ZM89.6331 53.948C90.5851 53.948 91.4065 54.1113 92.0971 54.438C92.7971 54.7553 93.3291 55.208 93.6931 55.796C94.0665 56.384 94.2531 57.0653 94.2531 57.84C94.2531 58.6147 94.0665 59.296 93.6931 59.884C93.3291 60.472 92.7971 60.9293 92.0971 61.256C91.4065 61.5733 90.5851 61.732 89.6331 61.732H87.1271V65.162H85.6571V53.948H89.6331ZM89.5211 60.402C90.5478 60.402 91.3458 60.1827 91.9151 59.744C92.4938 59.296 92.7831 58.6613 92.7831 57.84C92.7831 57.0187 92.4938 56.3887 91.9151 55.95C91.3458 55.502 90.5478 55.278 89.5211 55.278H87.1271V60.402H89.5211ZM95.0017 65.708C95.851 64.8493 96.5137 63.8927 96.9897 62.838C97.475 61.774 97.7177 60.6493 97.7177 59.464C97.7177 58.2787 97.475 57.1587 96.9897 56.104C96.5137 55.04 95.851 54.0787 95.0017 53.22H96.5417C98.2777 55.0773 99.1457 57.1587 99.1457 59.464C99.1457 61.7693 98.2777 63.8507 96.5417 65.708H95.0017Z" fill="black"/>
<path d="M125.714 41.02V42.35H124.034V45.318H122.648V38.5H124.034V41.02H125.714ZM120.618 44.618H113.632V38.71H114.99V40.432H119.26V38.71H120.618V44.618ZM119.26 43.47V41.566H114.99V43.47H119.26ZM119.092 45.696C120.632 45.696 121.869 45.892 122.802 46.284C123.745 46.6667 124.216 47.264 124.216 48.076C124.216 48.888 123.745 49.4853 122.802 49.868C121.869 50.26 120.632 50.456 119.092 50.456C117.552 50.456 116.311 50.26 115.368 49.868C114.435 49.4853 113.968 48.888 113.968 48.076C113.968 47.264 114.435 46.6667 115.368 46.284C116.311 45.892 117.552 45.696 119.092 45.696ZM119.092 49.322C120.175 49.322 121.052 49.2147 121.724 49C122.406 48.7947 122.746 48.4867 122.746 48.076C122.746 47.6653 122.406 47.3573 121.724 47.152C121.052 46.9373 120.175 46.83 119.092 46.83C118.019 46.83 117.142 46.9373 116.46 47.152C115.779 47.3573 115.438 47.6653 115.438 48.076C115.438 48.4867 115.774 48.7947 116.446 49C117.128 49.2147 118.01 49.322 119.092 49.322ZM139.181 41.216V42.546H137.501V47.376H136.115V38.5H137.501V41.216H139.181ZM130.683 42.756C130.235 43.5307 129.671 44.1653 128.989 44.66C128.317 45.1547 127.557 45.458 126.707 45.57V44.268C127.445 44.1373 128.084 43.806 128.625 43.274C129.167 42.7327 129.582 42.056 129.871 41.244C130.17 40.4227 130.324 39.5453 130.333 38.612L131.719 38.696C131.719 39.7227 131.556 40.6887 131.229 41.594L135.009 44.45L134.169 45.444L130.683 42.756ZM128.905 49.042H137.823V50.302H127.505V46.494H128.905V49.042ZM141.294 51.576H140.146L140.594 48.412H141.994L141.294 51.576ZM153.228 41.552C152.64 42.0187 151.889 42.3827 150.974 42.644C150.06 42.896 149.094 43.0313 148.076 43.05V41.916C148.804 41.8973 149.514 41.804 150.204 41.636C150.904 41.4587 151.502 41.2113 151.996 40.894C152.5 40.5767 152.813 40.1987 152.934 39.76H148.272V38.64H158.576V39.76H154.348C154.311 40.0773 154.204 40.3713 154.026 40.642L158.898 42.014L158.534 43.106L153.228 41.552ZM154.11 45.024V46.158C155.501 46.2047 156.607 46.4007 157.428 46.746C158.259 47.082 158.674 47.6 158.674 48.3C158.674 49.0653 158.189 49.6207 157.218 49.966C156.257 50.3113 154.992 50.484 153.424 50.484C151.856 50.484 150.587 50.3113 149.616 49.966C148.655 49.6207 148.174 49.0653 148.174 48.3C148.174 47.6 148.585 47.082 149.406 46.746C150.237 46.4007 151.348 46.2047 152.738 46.158V45.024H147.46V43.904H159.402V45.024H154.11ZM157.218 48.3C157.218 47.9267 156.859 47.656 156.14 47.488C155.422 47.32 154.516 47.236 153.424 47.236C152.332 47.236 151.427 47.32 150.708 47.488C149.999 47.656 149.644 47.9267 149.644 48.3C149.644 48.6827 149.999 48.958 150.708 49.126C151.427 49.3033 152.332 49.392 153.424 49.392C154.516 49.392 155.422 49.3033 156.14 49.126C156.859 48.958 157.218 48.6827 157.218 48.3ZM172.029 44.842H161.753V38.71H163.125V40.39H170.657V38.71H172.029V44.842ZM170.657 43.61V41.622H163.125V43.61H170.657ZM172.869 47.404H167.605V50.736H166.177V47.404H160.927V46.116H172.869V47.404ZM185.552 38.5V50.456H184.166V38.5H185.552ZM179.742 38.85C179.723 40.7167 179.565 42.3547 179.266 43.764L183.13 48.916L182.01 49.714L178.832 45.374C178.384 46.7087 177.801 47.754 177.082 48.51C176.363 49.266 175.537 49.6767 174.604 49.742V48.342C175.379 48.2207 176.046 47.726 176.606 46.858C177.166 45.9807 177.591 44.842 177.88 43.442C178.169 42.042 178.319 40.4927 178.328 38.794L179.742 38.85ZM200.363 40.782V42.098H198.683V45.108H197.297V38.5H198.683V40.782H200.363ZM192.047 42.434C191.636 43.1153 191.081 43.6707 190.381 44.1C189.69 44.52 188.906 44.7767 188.029 44.87V43.624C188.999 43.4933 189.779 43.1013 190.367 42.448C190.964 41.7853 191.309 40.9687 191.403 39.998H188.183V38.808H195.813V39.998H192.789C192.761 40.446 192.681 40.8893 192.551 41.328L196.191 43.568L195.505 44.604L192.047 42.434ZM193.741 45.5C195.281 45.5 196.517 45.7007 197.451 46.102C198.393 46.5033 198.865 47.1287 198.865 47.978C198.865 48.8273 198.393 49.4527 197.451 49.854C196.517 50.2553 195.281 50.456 193.741 50.456C192.201 50.456 190.959 50.2553 190.017 49.854C189.083 49.4527 188.617 48.8273 188.617 47.978C188.617 47.1287 189.083 46.5033 190.017 46.102C190.959 45.7007 192.201 45.5 193.741 45.5ZM193.741 49.308C194.823 49.308 195.701 49.196 196.373 48.972C197.045 48.748 197.381 48.4167 197.381 47.978C197.381 47.5393 197.045 47.208 196.373 46.984C195.701 46.76 194.823 46.648 193.741 46.648C192.667 46.648 191.79 46.76 191.109 46.984C190.437 47.208 190.101 47.5393 190.101 47.978C190.101 48.4167 190.437 48.748 191.109 48.972C191.781 49.196 192.658 49.308 193.741 49.308Z" fill="black"/>
<path d="M231.193 42.812C229.625 42.812 228.356 42.6393 227.385 42.294C226.424 41.9393 225.943 41.384 225.943 40.628C225.943 39.8813 226.424 39.3353 227.385 38.99C228.356 38.6353 229.625 38.458 231.193 38.458C232.761 38.458 234.026 38.6353 234.987 38.99C235.958 39.3353 236.443 39.8813 236.443 40.628C236.443 41.384 235.958 41.9393 234.987 42.294C234.026 42.6393 232.761 42.812 231.193 42.812ZM231.193 41.748C232.322 41.748 233.242 41.6547 233.951 41.468C234.66 41.2813 235.015 41.0013 235.015 40.628C235.015 40.2547 234.656 39.9747 233.937 39.788C233.228 39.6013 232.313 39.508 231.193 39.508C230.073 39.508 229.154 39.6013 228.435 39.788C227.726 39.9747 227.371 40.2547 227.371 40.628C227.371 41.0013 227.726 41.2813 228.435 41.468C229.144 41.6547 230.064 41.748 231.193 41.748ZM225.229 43.554H237.171V44.632H225.229V43.554ZM226.055 47.46H234.987V46.62H226.027V45.584H236.345V48.44H227.413V49.28H236.555V50.316H226.055V47.46ZM249.854 38.5V50.456H248.468V38.5H249.854ZM243.806 40.208C243.796 41.5333 243.67 42.7933 243.428 43.988L247.334 48.818L246.242 49.644L243.022 45.542C242.611 46.7927 242.056 47.782 241.356 48.51C240.665 49.2287 239.867 49.6393 238.962 49.742V48.37C239.662 48.2393 240.264 47.81 240.768 47.082C241.281 46.354 241.678 45.3973 241.958 44.212C242.238 43.0267 242.387 41.692 242.406 40.208H239.242V38.934H246.872V40.208H243.806ZM264.105 48.608V49.882H252.163V48.608H257.399V46.354H252.961V42.042H261.949V40.166H252.961V38.934H263.321V43.232H254.347V45.122H263.503V46.354H258.813V48.608H264.105ZM269.437 50.414C268.653 50.414 267.963 50.2647 267.365 49.966C266.777 49.6767 266.32 49.2753 265.993 48.762C265.667 48.2393 265.489 47.6513 265.461 46.998H266.917C266.936 47.6233 267.169 48.1367 267.617 48.538C268.065 48.9393 268.672 49.14 269.437 49.14C269.951 49.14 270.394 49.0513 270.767 48.874C271.15 48.6967 271.439 48.454 271.635 48.146C271.841 47.838 271.943 47.4973 271.943 47.124C271.943 46.4987 271.705 46.0087 271.229 45.654C270.753 45.2993 270.091 45.122 269.241 45.122H268.009V43.904H269.241C269.951 43.904 270.525 43.722 270.963 43.358C271.411 42.9847 271.635 42.5087 271.635 41.93C271.635 41.566 271.542 41.2347 271.355 40.936C271.169 40.628 270.893 40.3853 270.529 40.208C270.175 40.0307 269.759 39.942 269.283 39.942C268.798 39.942 268.378 40.0447 268.023 40.25C267.669 40.4553 267.398 40.7307 267.211 41.076C267.034 41.4213 266.945 41.7947 266.945 42.196H265.475C265.475 41.5427 265.634 40.95 265.951 40.418C266.269 39.8767 266.717 39.452 267.295 39.144C267.874 38.836 268.537 38.682 269.283 38.682C270.03 38.682 270.693 38.8267 271.271 39.116C271.85 39.396 272.298 39.7833 272.615 40.278C272.933 40.7633 273.091 41.3 273.091 41.888C273.091 42.5413 272.895 43.1013 272.503 43.568C272.111 44.0347 271.64 44.3333 271.089 44.464C271.715 44.576 272.251 44.8653 272.699 45.332C273.157 45.7893 273.385 46.382 273.385 47.11C273.385 47.7353 273.217 48.3 272.881 48.804C272.555 49.2987 272.088 49.6907 271.481 49.98C270.884 50.2693 270.203 50.414 269.437 50.414ZM287.346 44.674H285.666V50.456H284.28V38.5H285.666V43.344H287.346V44.674ZM275.278 38.934H281.788V41.818C281.788 43.3953 281.527 44.7813 281.004 45.976C280.482 47.1613 279.73 48.0807 278.75 48.734C277.77 49.3873 276.613 49.714 275.278 49.714V48.398C276.352 48.398 277.266 48.132 278.022 47.6C278.788 47.0587 279.371 46.298 279.772 45.318C280.174 44.338 280.374 43.1807 280.374 41.846V40.208H275.278V38.934Z" fill="black"/>
<path d="M328.067 42.812C326.499 42.812 325.23 42.6393 324.259 42.294C323.298 41.9393 322.817 41.384 322.817 40.628C322.817 39.8813 323.298 39.3353 324.259 38.99C325.23 38.6353 326.499 38.458 328.067 38.458C329.635 38.458 330.9 38.6353 331.861 38.99C332.832 39.3353 333.317 39.8813 333.317 40.628C333.317 41.384 332.832 41.9393 331.861 42.294C330.9 42.6393 329.635 42.812 328.067 42.812ZM328.067 41.748C329.196 41.748 330.116 41.6547 330.825 41.468C331.534 41.2813 331.889 41.0013 331.889 40.628C331.889 40.2547 331.53 39.9747 330.811 39.788C330.102 39.6013 329.187 39.508 328.067 39.508C326.947 39.508 326.028 39.6013 325.309 39.788C324.6 39.9747 324.245 40.2547 324.245 40.628C324.245 41.0013 324.6 41.2813 325.309 41.468C326.018 41.6547 326.938 41.748 328.067 41.748ZM322.103 43.554H334.045V44.632H322.103V43.554ZM322.929 47.46H331.861V46.62H322.901V45.584H333.219V48.44H324.287V49.28H333.429V50.316H322.929V47.46ZM346.728 38.5V50.456H345.342V38.5H346.728ZM340.68 40.208C340.67 41.5333 340.544 42.7933 340.302 43.988L344.208 48.818L343.116 49.644L339.896 45.542C339.485 46.7927 338.93 47.782 338.23 48.51C337.539 49.2287 336.741 49.6393 335.836 49.742V48.37C336.536 48.2393 337.138 47.81 337.642 47.082C338.155 46.354 338.552 45.3973 338.832 44.212C339.112 43.0267 339.261 41.692 339.28 40.208H336.116V38.934H343.746V40.208H340.68ZM360.979 48.608V49.882H349.037V48.608H354.273V46.354H349.835V42.042H358.823V40.166H349.835V38.934H360.195V43.232H351.221V45.122H360.377V46.354H355.687V48.608H360.979ZM373.661 38.5V44.632H372.275V38.5H373.661ZM370.161 41.594C370.161 42.182 370.007 42.7 369.699 43.148C369.391 43.596 368.953 43.946 368.383 44.198C367.823 44.4407 367.17 44.562 366.423 44.562C365.667 44.562 365.005 44.4407 364.435 44.198C363.875 43.946 363.441 43.596 363.133 43.148C362.825 42.7 362.671 42.182 362.671 41.594C362.671 41.0153 362.825 40.502 363.133 40.054C363.441 39.606 363.875 39.256 364.435 39.004C365.005 38.752 365.667 38.626 366.423 38.626C367.17 38.626 367.823 38.752 368.383 39.004C368.953 39.256 369.391 39.606 369.699 40.054C370.007 40.502 370.161 41.0153 370.161 41.594ZM364.057 41.594C364.057 42.1633 364.272 42.6113 364.701 42.938C365.14 43.2647 365.714 43.428 366.423 43.428C367.133 43.428 367.702 43.2647 368.131 42.938C368.561 42.6113 368.775 42.1633 368.775 41.594C368.775 41.0247 368.561 40.5767 368.131 40.25C367.702 39.9233 367.133 39.76 366.423 39.76C365.714 39.76 365.14 39.9233 364.701 40.25C364.272 40.5767 364.057 41.0247 364.057 41.594ZM372.303 45.29H373.661V50.302H363.665V45.29H365.037V46.55H372.303V45.29ZM372.303 49.168V47.656H365.037V49.168H372.303ZM385.616 40.082H376.754V38.78H387.058V44.24H385.616V40.082ZM387.912 46.55H382.578V50.736H381.15V46.55H375.97V45.234H387.912V46.55Z" fill="black"/>
<path d="M440.158 43.05C439.728 43.6847 439.182 44.2073 438.52 44.618C437.866 45.0287 437.129 45.276 436.308 45.36V44.156C437.204 44.0253 437.941 43.652 438.52 43.036C439.098 42.4107 439.453 41.6593 439.584 40.782H436.434V39.62H439.598V38.29H440.998V39.62H444.12V40.782H440.998C440.942 41.202 440.844 41.5987 440.704 41.972L444.33 44.226L443.672 45.262L440.158 43.05ZM445.94 41.398V38.5H447.326V45.626H445.94V42.63H443.644V41.398H445.94ZM442.272 46.004C443.849 46.004 445.109 46.1813 446.052 46.536C446.994 46.8813 447.466 47.446 447.466 48.23C447.466 49.0047 446.994 49.5693 446.052 49.924C445.109 50.2787 443.849 50.456 442.272 50.456C440.694 50.456 439.434 50.2787 438.492 49.924C437.549 49.5693 437.078 49.0047 437.078 48.23C437.078 47.446 437.549 46.8813 438.492 46.536C439.434 46.1813 440.694 46.004 442.272 46.004ZM442.272 49.35C443.392 49.35 444.292 49.2567 444.974 49.07C445.655 48.8927 445.996 48.6127 445.996 48.23C445.996 47.8473 445.655 47.5673 444.974 47.39C444.292 47.2033 443.392 47.11 442.272 47.11C441.152 47.11 440.251 47.2033 439.57 47.39C438.888 47.5673 438.548 47.8473 438.548 48.23C438.548 48.6127 438.888 48.8927 439.57 49.07C440.251 49.2567 441.152 49.35 442.272 49.35ZM462.039 44.562H460.387V50.456H459.001V38.5H460.387V43.232H462.039V44.562ZM454.143 48.44C455.944 48.44 457.232 48.272 458.007 47.936V49.238C457.185 49.574 455.883 49.742 454.101 49.742H449.537V48.44H452.771V46.102C451.893 45.9527 451.184 45.5513 450.643 44.898C450.101 44.2353 449.831 43.4233 449.831 42.462C449.831 41.7433 449.985 41.104 450.293 40.544C450.601 39.9747 451.03 39.536 451.581 39.228C452.131 38.9107 452.757 38.752 453.457 38.752C454.147 38.752 454.768 38.9107 455.319 39.228C455.879 39.536 456.317 39.9747 456.635 40.544C456.952 41.104 457.111 41.7433 457.111 42.462C457.111 43.0967 456.985 43.6753 456.733 44.198C456.481 44.7113 456.131 45.136 455.683 45.472C455.235 45.7987 454.721 46.0087 454.143 46.102V48.44ZM451.189 42.462C451.189 43.1713 451.394 43.7593 451.805 44.226C452.215 44.6833 452.766 44.912 453.457 44.912C453.905 44.912 454.301 44.8047 454.647 44.59C455.001 44.3753 455.272 44.0813 455.459 43.708C455.655 43.3347 455.753 42.9193 455.753 42.462C455.753 41.9953 455.655 41.5753 455.459 41.202C455.272 40.8287 455.006 40.5347 454.661 40.32C454.315 40.1053 453.914 39.998 453.457 39.998C452.766 39.998 452.215 40.2313 451.805 40.698C451.394 41.1553 451.189 41.7433 451.189 42.462ZM474.497 38.5V50.456H473.181V44.618H471.235V50.246H469.919V38.57H471.235V43.316H473.181V38.5H474.497ZM466.265 48.51C466.779 48.51 467.278 48.4727 467.763 48.398C468.258 48.314 468.687 48.1973 469.051 48.048V49.266C468.706 49.4153 468.267 49.532 467.735 49.616C467.203 49.7 466.662 49.742 466.111 49.742H463.367V38.934H468.533V40.166H464.725V48.51H466.265Z" fill="black"/>
<path d="M440.778 134.646V135.724H428.836V134.646H434.114V133.582H429.704V128.64H439.98V129.676H431.09V130.614H439.784V131.608H431.09V132.546H440.092V133.582H435.486V134.646H440.778ZM434.8 136.536C436.359 136.536 437.624 136.695 438.594 137.012C439.565 137.329 440.05 137.829 440.05 138.51C440.05 139.191 439.56 139.691 438.58 140.008C437.61 140.335 436.35 140.498 434.8 140.498C433.251 140.498 431.986 140.335 431.006 140.008C430.036 139.691 429.55 139.191 429.55 138.51C429.55 137.829 430.036 137.329 431.006 137.012C431.977 136.695 433.242 136.536 434.8 136.536ZM434.8 139.462C435.874 139.462 436.774 139.383 437.502 139.224C438.23 139.065 438.594 138.827 438.594 138.51C438.594 138.193 438.226 137.955 437.488 137.796C436.76 137.637 435.864 137.558 434.8 137.558C433.736 137.558 432.836 137.637 432.098 137.796C431.37 137.955 431.006 138.193 431.006 138.51C431.006 138.827 431.37 139.065 432.098 139.224C432.826 139.383 433.727 139.462 434.8 139.462ZM452.075 128.5H453.461V137.376H452.075V128.5ZM446.209 135.57C445.444 135.57 444.772 135.421 444.193 135.122C443.624 134.823 443.185 134.413 442.877 133.89C442.569 133.358 442.415 132.761 442.415 132.098C442.415 131.435 442.569 130.843 442.877 130.32C443.185 129.788 443.624 129.373 444.193 129.074C444.772 128.775 445.444 128.626 446.209 128.626C446.975 128.626 447.642 128.775 448.211 129.074C448.781 129.373 449.219 129.783 449.527 130.306C449.835 130.829 449.989 131.426 449.989 132.098C449.989 132.77 449.835 133.367 449.527 133.89C449.219 134.413 448.781 134.823 448.211 135.122C447.642 135.421 446.975 135.57 446.209 135.57ZM446.209 134.394C446.928 134.394 447.507 134.189 447.945 133.778C448.384 133.358 448.603 132.798 448.603 132.098C448.603 131.398 448.379 130.838 447.931 130.418C447.493 129.998 446.919 129.788 446.209 129.788C445.491 129.788 444.907 129.998 444.459 130.418C444.021 130.838 443.801 131.398 443.801 132.098C443.801 132.798 444.021 133.358 444.459 133.778C444.907 134.189 445.491 134.394 446.209 134.394ZM443.465 136.396H444.879V139.042H453.783V140.302H443.465V136.396ZM466.928 128.5V140.456H465.542V128.5H466.928ZM461.118 128.85C461.099 130.717 460.941 132.355 460.642 133.764L464.506 138.916L463.386 139.714L460.208 135.374C459.76 136.709 459.177 137.754 458.458 138.51C457.739 139.266 456.913 139.677 455.98 139.742V138.342C456.755 138.221 457.422 137.726 457.982 136.858C458.542 135.981 458.967 134.842 459.256 133.442C459.545 132.042 459.695 130.493 459.704 128.794L461.118 128.85ZM481.739 130.782V132.098H480.059V135.108H478.673V128.5H480.059V130.782H481.739ZM473.423 132.434C473.012 133.115 472.457 133.671 471.757 134.1C471.066 134.52 470.282 134.777 469.405 134.87V133.624C470.375 133.493 471.155 133.101 471.743 132.448C472.34 131.785 472.685 130.969 472.779 129.998H469.559V128.808H477.189V129.998H474.165C474.137 130.446 474.057 130.889 473.927 131.328L477.567 133.568L476.881 134.604L473.423 132.434ZM475.117 135.5C476.657 135.5 477.893 135.701 478.827 136.102C479.769 136.503 480.241 137.129 480.241 137.978C480.241 138.827 479.769 139.453 478.827 139.854C477.893 140.255 476.657 140.456 475.117 140.456C473.577 140.456 472.335 140.255 471.393 139.854C470.459 139.453 469.993 138.827 469.993 137.978C469.993 137.129 470.459 136.503 471.393 136.102C472.335 135.701 473.577 135.5 475.117 135.5ZM475.117 139.308C476.199 139.308 477.077 139.196 477.749 138.972C478.421 138.748 478.757 138.417 478.757 137.978C478.757 137.539 478.421 137.208 477.749 136.984C477.077 136.76 476.199 136.648 475.117 136.648C474.043 136.648 473.166 136.76 472.485 136.984C471.813 137.208 471.477 137.539 471.477 137.978C471.477 138.417 471.813 138.748 472.485 138.972C473.157 139.196 474.034 139.308 475.117 139.308Z" fill="black"/>
<path d="M334.605 131.174V132.462H332.953V135.808H331.567V128.5H332.953V131.174H334.605ZM328.039 129.858H322.677V128.696H329.425V132.882H328.039V129.858ZM330.573 134.436C329.864 134.753 328.543 134.912 326.611 134.912H322.103V133.778H324.441V131.286H325.813V133.778H326.653C328.52 133.778 329.826 133.619 330.573 133.302V134.436ZM327.983 135.864C329.56 135.864 330.816 136.06 331.749 136.452C332.692 136.835 333.163 137.413 333.163 138.188C333.163 138.963 332.692 139.541 331.749 139.924C330.806 140.307 329.551 140.498 327.983 140.498C326.415 140.498 325.16 140.307 324.217 139.924C323.274 139.541 322.803 138.963 322.803 138.188C322.803 137.413 323.27 136.835 324.203 136.452C325.146 136.06 326.406 135.864 327.983 135.864ZM327.983 139.42C329.112 139.42 330.013 139.317 330.685 139.112C331.366 138.916 331.707 138.608 331.707 138.188C331.707 137.768 331.366 137.455 330.685 137.25C330.004 137.045 329.103 136.942 327.983 136.942C326.863 136.942 325.962 137.045 325.281 137.25C324.6 137.455 324.259 137.768 324.259 138.188C324.259 138.608 324.595 138.916 325.267 139.112C325.948 139.317 326.854 139.42 327.983 139.42ZM343.62 131.104H335.514V129.886H338.86V128.374H340.274V129.886H343.62V131.104ZM348.072 134.562H346.42V140.456H345.034V128.5H346.42V133.232H348.072V134.562ZM340.26 138.51C342.042 138.491 343.302 138.314 344.04 137.978V139.238C343.666 139.406 343.134 139.532 342.444 139.616C341.762 139.7 340.992 139.742 340.134 139.742H335.57V138.51H338.874V136.732C338.024 136.639 337.352 136.382 336.858 135.962C336.372 135.533 336.13 134.982 336.13 134.31C336.13 133.545 336.442 132.943 337.068 132.504C337.693 132.056 338.533 131.832 339.588 131.832C340.642 131.832 341.482 132.056 342.108 132.504C342.733 132.943 343.046 133.545 343.046 134.31C343.046 134.982 342.798 135.533 342.304 135.962C341.809 136.391 341.128 136.653 340.26 136.746V138.51ZM337.446 134.31C337.446 134.702 337.632 135.024 338.006 135.276C338.379 135.519 338.906 135.64 339.588 135.64C340.269 135.64 340.796 135.519 341.17 135.276C341.543 135.024 341.73 134.702 341.73 134.31C341.73 133.918 341.543 133.596 341.17 133.344C340.796 133.092 340.269 132.966 339.588 132.966C338.906 132.966 338.379 133.092 338.006 133.344C337.632 133.596 337.446 133.918 337.446 134.31ZM360.111 133.428H349.891V128.64H360.111V133.428ZM358.725 129.788H351.277V132.28H358.725V129.788ZM360.979 134.632V135.808H355.701V137.866H354.301V135.808H349.037V134.632H360.979ZM351.277 139.126H360.377V140.316H349.877V136.83H351.277V139.126ZM375.005 131.174V132.462H373.353V135.808H371.967V128.5H373.353V131.174H375.005ZM368.439 129.858H363.077V128.696H369.825V132.882H368.439V129.858ZM370.973 134.436C370.264 134.753 368.943 134.912 367.011 134.912H362.503V133.778H364.841V131.286H366.213V133.778H367.053C368.92 133.778 370.227 133.619 370.973 133.302V134.436ZM368.383 135.864C369.961 135.864 371.216 136.06 372.149 136.452C373.092 136.835 373.563 137.413 373.563 138.188C373.563 138.963 373.092 139.541 372.149 139.924C371.207 140.307 369.951 140.498 368.383 140.498C366.815 140.498 365.56 140.307 364.617 139.924C363.675 139.541 363.203 138.963 363.203 138.188C363.203 137.413 363.67 136.835 364.603 136.452C365.546 136.06 366.806 135.864 368.383 135.864ZM368.383 139.42C369.513 139.42 370.413 139.317 371.085 139.112C371.767 138.916 372.107 138.608 372.107 138.188C372.107 137.768 371.767 137.455 371.085 137.25C370.404 137.045 369.503 136.942 368.383 136.942C367.263 136.942 366.363 137.045 365.681 137.25C365 137.455 364.659 137.768 364.659 138.188C364.659 138.608 364.995 138.916 365.667 139.112C366.349 139.317 367.254 139.42 368.383 139.42ZM388.472 130.782V132.098H386.792V135.108H385.406V128.5H386.792V130.782H388.472ZM380.156 132.434C379.746 133.115 379.19 133.671 378.49 134.1C377.8 134.52 377.016 134.777 376.138 134.87V133.624C377.109 133.493 377.888 133.101 378.476 132.448C379.074 131.785 379.419 130.969 379.512 129.998H376.292V128.808H383.922V129.998H380.898C380.87 130.446 380.791 130.889 380.66 131.328L384.3 133.568L383.614 134.604L380.156 132.434ZM381.85 135.5C383.39 135.5 384.627 135.701 385.56 136.102C386.503 136.503 386.974 137.129 386.974 137.978C386.974 138.827 386.503 139.453 385.56 139.854C384.627 140.255 383.39 140.456 381.85 140.456C380.31 140.456 379.069 140.255 378.126 139.854C377.193 139.453 376.726 138.827 376.726 137.978C376.726 137.129 377.193 136.503 378.126 136.102C379.069 135.701 380.31 135.5 381.85 135.5ZM381.85 139.308C382.933 139.308 383.81 139.196 384.482 138.972C385.154 138.748 385.49 138.417 385.49 137.978C385.49 137.539 385.154 137.208 384.482 136.984C383.81 136.76 382.933 136.648 381.85 136.648C380.777 136.648 379.9 136.76 379.218 136.984C378.546 137.208 378.21 137.539 378.21 137.978C378.21 138.417 378.546 138.748 379.218 138.972C379.89 139.196 380.768 139.308 381.85 139.308Z" fill="black"/>
<path d="M247.326 128.5V140.456H245.94V134.128H242.86V132.826H245.94V128.5H247.326ZM241.068 128.85C241.068 130.437 240.951 131.921 240.718 133.302L244.456 139.014L243.294 139.77L240.312 135.066C239.901 136.494 239.341 137.614 238.632 138.426C237.922 139.229 237.101 139.667 236.168 139.742V138.328C236.914 138.207 237.544 137.712 238.058 136.844C238.58 135.976 238.972 134.847 239.234 133.456C239.504 132.056 239.644 130.502 239.654 128.794L241.068 128.85ZM255.501 132.812C253.933 132.812 252.663 132.639 251.693 132.294C250.731 131.939 250.251 131.384 250.251 130.628C250.251 129.881 250.731 129.335 251.693 128.99C252.663 128.635 253.933 128.458 255.501 128.458C257.069 128.458 258.333 128.635 259.295 128.99C260.265 129.335 260.751 129.881 260.751 130.628C260.751 131.384 260.265 131.939 259.295 132.294C258.333 132.639 257.069 132.812 255.501 132.812ZM255.501 129.508C254.381 129.508 253.461 129.601 252.743 129.788C252.033 129.975 251.679 130.255 251.679 130.628C251.679 131.001 252.033 131.281 252.743 131.468C253.452 131.655 254.371 131.748 255.501 131.748C256.63 131.748 257.549 131.655 258.259 131.468C258.968 131.281 259.323 131.001 259.323 130.628C259.323 130.255 258.963 129.975 258.245 129.788C257.535 129.601 256.621 129.508 255.501 129.508ZM256.187 134.506V135.584H260.653V138.44H251.721V139.28H260.863V140.316H250.363V137.46H259.295V136.62H250.335V135.584H254.815V134.506H249.537V133.428H261.479V134.506H256.187ZM274.259 128.5V135.64H272.887V134.114H270.773L270.857 132.882H272.887V131.006H270.857L270.773 129.774H272.887V128.5H274.259ZM270.451 131.944C270.451 132.579 270.302 133.148 270.003 133.652C269.705 134.156 269.275 134.553 268.715 134.842C268.165 135.122 267.521 135.262 266.783 135.262C266.046 135.262 265.397 135.122 264.837 134.842C264.277 134.553 263.848 134.156 263.549 133.652C263.251 133.148 263.101 132.579 263.101 131.944C263.101 131.309 263.251 130.74 263.549 130.236C263.848 129.732 264.277 129.34 264.837 129.06C265.397 128.771 266.046 128.626 266.783 128.626C267.521 128.626 268.165 128.771 268.715 129.06C269.275 129.34 269.705 129.732 270.003 130.236C270.302 130.74 270.451 131.309 270.451 131.944ZM264.487 131.944C264.487 132.607 264.697 133.134 265.117 133.526C265.537 133.909 266.093 134.1 266.783 134.1C267.455 134.1 268.001 133.904 268.421 133.512C268.851 133.12 269.065 132.597 269.065 131.944C269.065 131.281 268.855 130.759 268.435 130.376C268.015 129.984 267.465 129.788 266.783 129.788C266.093 129.788 265.537 129.984 265.117 130.376C264.697 130.759 264.487 131.281 264.487 131.944ZM264.123 136.298H274.259V140.456H272.845V137.502H264.123V136.298Z" fill="black"/>
<path d="M134.605 132.014H132.925V134.856H131.539V128.5H132.925V130.67H134.605V132.014ZM130.671 133.75C130.298 133.909 129.77 134.039 129.089 134.142C128.417 134.235 127.661 134.282 126.821 134.282H122.523V128.724H123.923V133.078H126.905C127.717 133.078 128.45 133.031 129.103 132.938C129.766 132.845 130.288 132.714 130.671 132.546V133.75ZM122.929 135.584H132.925V140.302H122.929V135.584ZM124.315 139.126H131.539V136.774H124.315V139.126ZM147.064 128.5V140.456H145.748V134.618H143.802V140.246H142.486V128.57H143.802V133.316H145.748V128.5H147.064ZM138.832 138.51C139.345 138.51 139.844 138.473 140.33 138.398C140.824 138.314 141.254 138.197 141.618 138.048V139.266C141.272 139.415 140.834 139.532 140.302 139.616C139.77 139.7 139.228 139.742 138.678 139.742H135.934V128.934H141.1V130.166H137.292V138.51H138.832ZM160.111 133.428H149.891V128.64H160.111V133.428ZM158.725 129.788H151.277V132.28H158.725V129.788ZM160.979 134.632V135.808H155.701V137.866H154.301V135.808H149.037V134.632H160.979ZM151.277 139.126H160.377V140.316H149.877V136.83H151.277V139.126ZM173.661 128.5V140.456H172.275V128.5H173.661ZM167.851 128.85C167.833 130.717 167.674 132.355 167.375 133.764L171.239 138.916L170.119 139.714L166.941 135.374C166.493 136.709 165.91 137.754 165.191 138.51C164.473 139.266 163.647 139.677 162.713 139.742V138.342C163.488 138.221 164.155 137.726 164.715 136.858C165.275 135.981 165.7 134.842 165.989 133.442C166.279 132.042 166.428 130.493 166.437 128.794L167.851 128.85ZM188.472 130.782V132.098H186.792V135.108H185.406V128.5H186.792V130.782H188.472ZM180.156 132.434C179.746 133.115 179.19 133.671 178.49 134.1C177.8 134.52 177.016 134.777 176.138 134.87V133.624C177.109 133.493 177.888 133.101 178.476 132.448C179.074 131.785 179.419 130.969 179.512 129.998H176.292V128.808H183.922V129.998H180.898C180.87 130.446 180.791 130.889 180.66 131.328L184.3 133.568L183.614 134.604L180.156 132.434ZM181.85 135.5C183.39 135.5 184.627 135.701 185.56 136.102C186.503 136.503 186.974 137.129 186.974 137.978C186.974 138.827 186.503 139.453 185.56 139.854C184.627 140.255 183.39 140.456 181.85 140.456C180.31 140.456 179.069 140.255 178.126 139.854C177.193 139.453 176.726 138.827 176.726 137.978C176.726 137.129 177.193 136.503 178.126 136.102C179.069 135.701 180.31 135.5 181.85 135.5ZM181.85 139.308C182.933 139.308 183.81 139.196 184.482 138.972C185.154 138.748 185.49 138.417 185.49 137.978C185.49 137.539 185.154 137.208 184.482 136.984C183.81 136.76 182.933 136.648 181.85 136.648C180.777 136.648 179.9 136.76 179.218 136.984C178.546 137.208 178.21 137.539 178.21 137.978C178.21 138.417 178.546 138.748 179.218 138.972C179.89 139.196 180.768 139.308 181.85 139.308Z" fill="black"/>
<path d="M34.605 132.014H32.925V134.856H31.539V128.5H32.925V130.67H34.605V132.014ZM30.671 133.75C30.2977 133.909 29.7703 134.039 29.089 134.142C28.417 134.235 27.661 134.282 26.821 134.282H22.523V128.724H23.923V133.078H26.905C27.717 133.078 28.4497 133.031 29.103 132.938C29.7657 132.845 30.2883 132.714 30.671 132.546V133.75ZM22.929 135.584H32.925V140.302H22.929V135.584ZM24.315 139.126H31.539V136.774H24.315V139.126ZM48.0718 131.216V132.546H46.3918V137.376H45.0058V128.5H46.3918V131.216H48.0718ZM39.5738 132.756C39.1258 133.531 38.5611 134.165 37.8798 134.66C37.2078 135.155 36.4471 135.458 35.5978 135.57V134.268C36.3351 134.137 36.9745 133.806 37.5158 133.274C38.0571 132.733 38.4725 132.056 38.7618 131.244C39.0605 130.423 39.2145 129.545 39.2238 128.612L40.6098 128.696C40.6098 129.723 40.4465 130.689 40.1198 131.594L43.8998 134.45L43.0598 135.444L39.5738 132.756ZM37.7958 139.042H46.7138V140.302H36.3958V136.494H37.7958V139.042ZM60.9786 138.58V139.882H49.0366V138.58H54.2866V136.032C53.3439 135.967 52.5179 135.775 51.8086 135.458C51.1086 135.141 50.5673 134.721 50.1846 134.198C49.8019 133.666 49.6106 133.064 49.6106 132.392C49.6106 131.664 49.8346 131.025 50.2826 130.474C50.7306 129.914 51.3606 129.48 52.1726 129.172C52.9846 128.864 53.9273 128.71 55.0006 128.71C56.0739 128.71 57.0166 128.864 57.8286 129.172C58.6406 129.48 59.2706 129.914 59.7186 130.474C60.1666 131.025 60.3906 131.664 60.3906 132.392C60.3906 133.064 60.1993 133.666 59.8166 134.198C59.4339 134.721 58.8879 135.141 58.1786 135.458C57.4693 135.775 56.6433 135.967 55.7006 136.032V138.58H60.9786ZM51.0806 132.392C51.0806 132.868 51.2439 133.288 51.5706 133.652C51.8973 134.016 52.3546 134.301 52.9426 134.506C53.5399 134.702 54.2259 134.8 55.0006 134.8C55.7846 134.8 56.4706 134.702 57.0586 134.506C57.6559 134.301 58.1179 134.016 58.4446 133.652C58.7713 133.288 58.9346 132.868 58.9346 132.392C58.9346 131.916 58.7713 131.496 58.4446 131.132C58.1179 130.759 57.6559 130.474 57.0586 130.278C56.4706 130.073 55.7846 129.97 55.0006 129.97C54.2259 129.97 53.5399 130.073 52.9426 130.278C52.3546 130.474 51.8973 130.759 51.5706 131.132C51.2439 131.496 51.0806 131.916 51.0806 132.392ZM63.3014 132.126H72.2894V130.18H63.3014V128.934H73.6614V133.344H64.6734V135.332H73.8434V136.578H63.3014V132.126ZM62.5034 138.608H74.4454V139.882H62.5034V138.608ZM85.7422 128.5H87.1282V140.456H85.7422V128.5ZM76.6562 128.934H83.4322V139.742H76.6562V128.934ZM82.0462 138.44V130.236H78.0422V138.44H82.0462Z" fill="black"/>
<path d="M52.6872 220.344H50.7272V219.14H52.6872V217.754H50.7272V216.55H52.6872V215.5H54.0592V222.108H52.6872V220.344ZM50.0272 221.422H43.3072V215.794H50.0272V221.422ZM48.6552 216.97H44.6652V220.232H48.6552V216.97ZM48.9912 222.5C50.5499 222.5 51.8005 222.701 52.7432 223.102C53.6952 223.503 54.1712 224.129 54.1712 224.978C54.1712 225.827 53.6952 226.453 52.7432 226.854C51.8005 227.255 50.5499 227.456 48.9912 227.456C47.4325 227.456 46.1819 227.255 45.2392 226.854C44.2965 226.453 43.8252 225.827 43.8252 224.978C43.8252 224.129 44.2965 223.503 45.2392 223.102C46.1819 222.701 47.4325 222.5 48.9912 222.5ZM48.9912 226.308C50.0832 226.308 50.9699 226.196 51.6512 225.972C52.3419 225.748 52.6872 225.417 52.6872 224.978C52.6872 224.539 52.3419 224.208 51.6512 223.984C50.9699 223.76 50.0832 223.648 48.9912 223.648C47.8992 223.648 47.0079 223.76 46.3172 223.984C45.6359 224.208 45.2952 224.539 45.2952 224.978C45.2952 225.417 45.6359 225.748 46.3172 225.972C47.0079 226.196 47.8992 226.308 48.9912 226.308ZM68.212 221.002V222.122H56.27V221.002H61.548V219.77H57.124V215.64H67.358V216.76H58.51V218.65H67.498V219.77H62.92V221.002H68.212ZM62.234 223.116C63.8113 223.116 65.0807 223.289 66.042 223.634C67.0127 223.979 67.498 224.535 67.498 225.3C67.498 226.065 67.0127 226.621 66.042 226.966C65.0713 227.321 63.802 227.498 62.234 227.498C60.666 227.498 59.3967 227.321 58.426 226.966C57.4553 226.621 56.97 226.065 56.97 225.3C56.97 224.535 57.4507 223.979 58.412 223.634C59.3827 223.289 60.6567 223.116 62.234 223.116ZM62.234 226.406C63.326 226.406 64.2313 226.317 64.95 226.14C65.678 225.963 66.042 225.683 66.042 225.3C66.042 224.927 65.678 224.651 64.95 224.474C64.2313 224.297 63.326 224.208 62.234 224.208C61.142 224.208 60.232 224.297 59.504 224.474C58.7853 224.651 58.426 224.927 58.426 225.3C58.426 225.683 58.7853 225.963 59.504 226.14C60.232 226.317 61.142 226.406 62.234 226.406Z" fill="black"/>
<path d="M46.7278 314.376H45.3418V305.5H46.7278V314.376ZM39.7698 309.77C39.3125 310.545 38.7385 311.179 38.0478 311.674C37.3571 312.159 36.5918 312.458 35.7518 312.57V311.268C36.4891 311.137 37.1331 310.801 37.6838 310.26C38.2438 309.719 38.6731 309.042 38.9718 308.23C39.2798 307.418 39.4385 306.545 39.4478 305.612L40.8338 305.696C40.8338 306.713 40.6611 307.684 40.3158 308.608L44.1518 311.436L43.3258 312.444L39.7698 309.77ZM47.0498 316.07V317.302H36.5918V313.494H37.9918V316.07H47.0498ZM61.5386 307.95V309.28H59.8586V312.108H58.4726V305.5H59.8586V307.95H61.5386ZM57.6046 310.89C57.2313 311.049 56.7039 311.179 56.0226 311.282C55.3506 311.375 54.5946 311.422 53.7546 311.422H49.4566V305.794H56.7506V306.97H50.8426V310.246H53.8386C54.6506 310.246 55.3833 310.199 56.0366 310.106C56.6993 310.013 57.2219 309.882 57.6046 309.714V310.89ZM54.9166 312.5C56.4566 312.5 57.6933 312.701 58.6266 313.102C59.5693 313.503 60.0406 314.129 60.0406 314.978C60.0406 315.827 59.5693 316.453 58.6266 316.854C57.6933 317.255 56.4566 317.456 54.9166 317.456C53.3766 317.456 52.1353 317.255 51.1926 316.854C50.2593 316.453 49.7926 315.827 49.7926 314.978C49.7926 314.129 50.2593 313.503 51.1926 313.102C52.1353 312.701 53.3766 312.5 54.9166 312.5ZM54.9166 316.308C55.9993 316.308 56.8766 316.196 57.5486 315.972C58.2206 315.748 58.5566 315.417 58.5566 314.978C58.5566 314.539 58.2206 314.208 57.5486 313.984C56.8766 313.76 55.9993 313.648 54.9166 313.648C53.8433 313.648 52.9659 313.76 52.2846 313.984C51.6126 314.208 51.2766 314.539 51.2766 314.978C51.2766 315.417 51.6126 315.748 52.2846 315.972C52.9566 316.196 53.8339 316.308 54.9166 316.308ZM74.4454 311.002V312.122H62.5034V311.002H67.7814V309.77H63.3574V305.64H73.5914V306.76H64.7434V308.65H73.7314V309.77H69.1534V311.002H74.4454ZM68.4674 313.116C70.0447 313.116 71.3141 313.289 72.2754 313.634C73.2461 313.979 73.7314 314.535 73.7314 315.3C73.7314 316.065 73.2461 316.621 72.2754 316.966C71.3047 317.321 70.0354 317.498 68.4674 317.498C66.8994 317.498 65.6301 317.321 64.6594 316.966C63.6887 316.621 63.2034 316.065 63.2034 315.3C63.2034 314.535 63.6841 313.979 64.6454 313.634C65.6161 313.289 66.8901 313.116 68.4674 313.116ZM68.4674 316.406C69.5594 316.406 70.4647 316.317 71.1834 316.14C71.9114 315.963 72.2754 315.683 72.2754 315.3C72.2754 314.927 71.9114 314.651 71.1834 314.474C70.4647 314.297 69.5594 314.208 68.4674 314.208C67.3754 314.208 66.4654 314.297 65.7374 314.474C65.0187 314.651 64.6594 314.927 64.6594 315.3C64.6594 315.683 65.0187 315.963 65.7374 316.14C66.4654 316.317 67.3754 316.406 68.4674 316.406ZM34.6044 323.552C34.0164 324.019 33.2651 324.383 32.3504 324.644C31.4357 324.896 30.4697 325.031 29.4524 325.05V323.916C30.1804 323.897 30.8897 323.804 31.5804 323.636C32.2804 323.459 32.8777 323.211 33.3724 322.894C33.8764 322.577 34.1891 322.199 34.3104 321.76H29.6484V320.64H39.9524V321.76H35.7244C35.6871 322.077 35.5797 322.371 35.4024 322.642L40.2744 324.014L39.9104 325.106L34.6044 323.552ZM35.4864 327.024V328.158C36.8771 328.205 37.9831 328.401 38.8044 328.746C39.6351 329.082 40.0504 329.6 40.0504 330.3C40.0504 331.065 39.5651 331.621 38.5944 331.966C37.6331 332.311 36.3684 332.484 34.8004 332.484C33.2324 332.484 31.9631 332.311 30.9924 331.966C30.0311 331.621 29.5504 331.065 29.5504 330.3C29.5504 329.6 29.9611 329.082 30.7824 328.746C31.6131 328.401 32.7237 328.205 34.1144 328.158V327.024H28.8364V325.904H40.7784V327.024H35.4864ZM38.5944 330.3C38.5944 329.927 38.2351 329.656 37.5164 329.488C36.7977 329.32 35.8924 329.236 34.8004 329.236C33.7084 329.236 32.8031 329.32 32.0844 329.488C31.3751 329.656 31.0204 329.927 31.0204 330.3C31.0204 330.683 31.3751 330.958 32.0844 331.126C32.8031 331.303 33.7084 331.392 34.8004 331.392C35.8924 331.392 36.7977 331.303 37.5164 331.126C38.2351 330.958 38.5944 330.683 38.5944 330.3ZM54.8052 322.95V324.28H53.1252V327.108H51.7392V320.5H53.1252V322.95H54.8052ZM49.7232 323.664C49.7232 324.261 49.5739 324.793 49.2752 325.26C48.9765 325.717 48.5472 326.072 47.9872 326.324C47.4272 326.576 46.7785 326.702 46.0412 326.702C45.2945 326.702 44.6412 326.576 44.0812 326.324C43.5305 326.072 43.1012 325.717 42.7932 325.26C42.4945 324.793 42.3452 324.261 42.3452 323.664C42.3452 323.067 42.4945 322.539 42.7932 322.082C43.1012 321.625 43.5305 321.27 44.0812 321.018C44.6412 320.757 45.2945 320.626 46.0412 320.626C46.7785 320.626 47.4225 320.757 47.9732 321.018C48.5332 321.27 48.9625 321.625 49.2612 322.082C49.5692 322.539 49.7232 323.067 49.7232 323.664ZM43.7312 323.664C43.7312 324.252 43.9412 324.714 44.3612 325.05C44.7812 325.386 45.3412 325.554 46.0412 325.554C46.7319 325.554 47.2872 325.386 47.7072 325.05C48.1272 324.714 48.3372 324.252 48.3372 323.664C48.3372 323.076 48.1272 322.614 47.7072 322.278C47.2872 321.942 46.7319 321.774 46.0412 321.774C45.3412 321.774 44.7812 321.942 44.3612 322.278C43.9412 322.614 43.7312 323.076 43.7312 323.664ZM48.2532 327.5C49.7745 327.5 50.9972 327.701 51.9212 328.102C52.8452 328.503 53.3072 329.129 53.3072 329.978C53.3072 330.827 52.8452 331.453 51.9212 331.854C50.9972 332.255 49.7745 332.456 48.2532 332.456C46.7319 332.456 45.5092 332.255 44.5852 331.854C43.6612 331.453 43.1992 330.827 43.1992 329.978C43.1992 329.129 43.6612 328.503 44.5852 328.102C45.5092 327.701 46.7319 327.5 48.2532 327.5ZM48.2532 331.308C49.3172 331.308 50.1759 331.196 50.8292 330.972C51.4919 330.748 51.8232 330.417 51.8232 329.978C51.8232 329.539 51.4919 329.208 50.8292 328.984C50.1665 328.76 49.3079 328.648 48.2532 328.648C47.1985 328.648 46.3399 328.76 45.6772 328.984C45.0145 329.208 44.6832 329.539 44.6832 329.978C44.6832 330.417 45.0145 330.748 45.6772 330.972C46.3399 331.196 47.1985 331.308 48.2532 331.308ZM66.928 320.5V332.456H65.542V320.5H66.928ZM61.118 320.85C61.0993 322.717 60.9407 324.355 60.642 325.764L64.506 330.916L63.386 331.714L60.208 327.374C59.76 328.709 59.1767 329.754 58.458 330.51C57.7393 331.266 56.9133 331.677 55.98 331.742V330.342C56.7547 330.221 57.422 329.726 57.982 328.858C58.542 327.981 58.9667 326.842 59.256 325.442C59.5453 324.042 59.6947 322.493 59.704 320.794L61.118 320.85ZM81.7388 322.782V324.098H80.0588V327.108H78.6728V320.5H80.0588V322.782H81.7388ZM73.4228 324.434C73.0121 325.115 72.4568 325.671 71.7568 326.1C71.0661 326.52 70.2821 326.777 69.4048 326.87V325.624C70.3755 325.493 71.1548 325.101 71.7428 324.448C72.3401 323.785 72.6855 322.969 72.7788 321.998H69.5588V320.808H77.1888V321.998H74.1648C74.1368 322.446 74.0575 322.889 73.9268 323.328L77.5668 325.568L76.8808 326.604L73.4228 324.434ZM75.1168 327.5C76.6568 327.5 77.8935 327.701 78.8268 328.102C79.7695 328.503 80.2408 329.129 80.2408 329.978C80.2408 330.827 79.7695 331.453 78.8268 331.854C77.8935 332.255 76.6568 332.456 75.1168 332.456C73.5768 332.456 72.3355 332.255 71.3928 331.854C70.4595 331.453 69.9928 330.827 69.9928 329.978C69.9928 329.129 70.4595 328.503 71.3928 328.102C72.3355 327.701 73.5768 327.5 75.1168 327.5ZM75.1168 331.308C76.1995 331.308 77.0768 331.196 77.7488 330.972C78.4208 330.748 78.7568 330.417 78.7568 329.978C78.7568 329.539 78.4208 329.208 77.7488 328.984C77.0768 328.76 76.1995 328.648 75.1168 328.648C74.0435 328.648 73.1661 328.76 72.4848 328.984C71.8128 329.208 71.4768 329.539 71.4768 329.978C71.4768 330.417 71.8128 330.748 72.4848 330.972C73.1568 331.196 74.0341 331.308 75.1168 331.308Z" fill="black"/>
<path d="M149.043 218.482C148.446 218.967 147.69 219.345 146.775 219.616C145.861 219.887 144.909 220.031 143.919 220.05V218.916C144.619 218.897 145.31 218.799 145.991 218.622C146.682 218.445 147.275 218.197 147.769 217.88C148.273 217.563 148.6 217.189 148.749 216.76H144.115V215.64H154.419V216.76H150.163C150.107 217.04 150 217.311 149.841 217.572L154.741 219.014L154.377 220.106L149.043 218.482ZM155.245 221.044V222.164H143.303V221.044H148.581V219.602H149.953V221.044H155.245ZM149.267 223.13C150.845 223.13 152.114 223.303 153.075 223.648C154.046 223.984 154.531 224.535 154.531 225.3C154.531 226.065 154.046 226.621 153.075 226.966C152.105 227.321 150.835 227.498 149.267 227.498C147.699 227.498 146.43 227.321 145.459 226.966C144.489 226.621 144.003 226.065 144.003 225.3C144.003 224.535 144.484 223.984 145.445 223.648C146.416 223.303 147.69 223.13 149.267 223.13ZM149.267 226.406C150.359 226.406 151.265 226.317 151.983 226.14C152.702 225.963 153.061 225.683 153.061 225.3C153.061 224.927 152.702 224.656 151.983 224.488C151.265 224.311 150.359 224.222 149.267 224.222C148.175 224.222 147.27 224.311 146.551 224.488C145.833 224.656 145.473 224.927 145.473 225.3C145.473 225.683 145.833 225.963 146.551 226.14C147.27 226.317 148.175 226.406 149.267 226.406ZM169.272 219.476H167.592V222.64H166.206V215.5H167.592V218.146H169.272V219.476ZM163.966 217.208C163.966 218.888 163.355 220.143 162.132 220.974C160.919 221.805 159.234 222.22 157.078 222.22V220.988C158.814 220.979 160.163 220.68 161.124 220.092C162.085 219.495 162.566 218.608 162.566 217.432V216.998H157.078V215.794H163.966V217.208ZM157.484 223.298H167.592V227.456H166.192V224.502H157.484V223.298ZM132.355 230.5V236.52H130.969V233.776H128.687V232.614H130.969V230.5H132.355ZM125.299 234.28C124.879 234.887 124.333 235.381 123.661 235.764C122.989 236.137 122.228 236.366 121.379 236.45V235.26C122.331 235.139 123.101 234.779 123.689 234.182C124.286 233.575 124.636 232.833 124.739 231.956H121.533V230.808H129.163V231.956H126.125C126.078 232.413 125.98 232.843 125.831 233.244L129.597 235.302L128.953 236.324L125.299 234.28ZM123.381 241.238H127.035V242.302H122.107V239.222H125.635V238.242H122.079V237.178H126.909V240.258H123.381V241.238ZM127.567 237.178H132.355V242.302H127.567V237.178ZM128.827 241.224H131.095V238.256H128.827V241.224ZM140.572 235.036C139.013 235.036 137.744 234.845 136.764 234.462C135.784 234.079 135.294 233.501 135.294 232.726C135.294 231.951 135.784 231.377 136.764 231.004C137.744 230.621 139.013 230.43 140.572 230.43C142.131 230.43 143.4 230.621 144.38 231.004C145.36 231.377 145.85 231.951 145.85 232.726C145.85 233.501 145.36 234.079 144.38 234.462C143.4 234.845 142.131 235.036 140.572 235.036ZM140.572 233.93C141.692 233.93 142.607 233.832 143.316 233.636C144.025 233.431 144.38 233.127 144.38 232.726C144.38 232.334 144.021 232.035 143.302 231.83C142.593 231.625 141.683 231.522 140.572 231.522C139.461 231.522 138.547 231.625 137.828 231.83C137.119 232.035 136.764 232.334 136.764 232.726C136.764 233.127 137.119 233.431 137.828 233.636C138.537 233.832 139.452 233.93 140.572 233.93ZM134.608 235.974H146.55V237.094H134.608V235.974ZM135.434 238.256H145.71V242.316H135.434V238.256ZM144.338 241.21V239.362H136.82V241.21H144.338ZM157.889 230.5H159.275V242.456H157.889V230.5ZM152.177 238.284C151.467 238.284 150.833 238.125 150.273 237.808C149.713 237.491 149.274 237.047 148.957 236.478C148.639 235.899 148.481 235.246 148.481 234.518C148.481 233.79 148.639 233.141 148.957 232.572C149.274 231.993 149.713 231.545 150.273 231.228C150.833 230.911 151.467 230.752 152.177 230.752C152.886 230.752 153.521 230.911 154.081 231.228C154.641 231.545 155.079 231.993 155.397 232.572C155.714 233.141 155.873 233.79 155.873 234.518C155.873 235.246 155.714 235.899 155.397 236.478C155.079 237.047 154.641 237.491 154.081 237.808C153.521 238.125 152.886 238.284 152.177 238.284ZM152.177 237.024C152.643 237.024 153.049 236.917 153.395 236.702C153.749 236.478 154.025 236.179 154.221 235.806C154.417 235.423 154.515 234.994 154.515 234.518C154.515 234.042 154.417 233.613 154.221 233.23C154.025 232.847 153.749 232.549 153.395 232.334C153.04 232.11 152.634 231.998 152.177 231.998C151.71 231.998 151.299 232.11 150.945 232.334C150.59 232.549 150.315 232.847 150.119 233.23C149.932 233.613 149.839 234.042 149.839 234.518C149.839 235.246 150.053 235.848 150.483 236.324C150.912 236.791 151.477 237.024 152.177 237.024ZM148.075 240.44H152.961C153.801 240.44 154.566 240.393 155.257 240.3C155.947 240.207 156.489 240.067 156.881 239.88V241.168C156.479 241.345 155.929 241.485 155.229 241.588C154.529 241.691 153.745 241.742 152.877 241.742H148.075V240.44ZM176.721 230.5V242.456H175.335V236.66H172.143C171.742 238.237 171.005 239.474 169.931 240.37C168.858 241.266 167.537 241.714 165.969 241.714V240.398C167.043 240.398 167.957 240.132 168.713 239.6C169.479 239.059 170.062 238.298 170.463 237.318C170.865 236.338 171.065 235.181 171.065 233.846V232.208H165.969V230.934H172.479V233.818C172.479 234.387 172.447 234.901 172.381 235.358H175.335V230.5H176.721ZM188.704 230.5H190.09V242.456H188.704V230.5ZM179.618 235.61H184.966V232.208H179.59V230.934H186.352V236.884H181.004V240.468H184.504C185.073 240.468 185.638 240.417 186.198 240.314C186.767 240.211 187.234 240.071 187.598 239.894V241.168C187.243 241.345 186.781 241.485 186.212 241.588C185.643 241.691 185.059 241.742 184.462 241.742H179.618V235.61Z" fill="black"/>
<path d="M149.072 311.674H147.392V317.456H146.006V305.5H147.392V310.344H149.072V311.674ZM137.13 305.934H143.78V316.742H137.13V305.934ZM138.516 315.454H142.394V307.222H138.516V315.454ZM162.539 307.782V309.098H160.859V312.108H159.473V305.5H160.859V307.782H162.539ZM154.223 309.434C153.812 310.115 153.257 310.671 152.557 311.1C151.866 311.52 151.082 311.777 150.205 311.87V310.624C151.175 310.493 151.955 310.101 152.543 309.448C153.14 308.785 153.485 307.969 153.579 306.998H150.359V305.808H157.989V306.998H154.965C154.937 307.446 154.857 307.889 154.727 308.328L158.367 310.568L157.681 311.604L154.223 309.434ZM155.917 312.5C157.457 312.5 158.693 312.701 159.627 313.102C160.569 313.503 161.041 314.129 161.041 314.978C161.041 315.827 160.569 316.453 159.627 316.854C158.693 317.255 157.457 317.456 155.917 317.456C154.377 317.456 153.135 317.255 152.193 316.854C151.259 316.453 150.793 315.827 150.793 314.978C150.793 314.129 151.259 313.503 152.193 313.102C153.135 312.701 154.377 312.5 155.917 312.5ZM155.917 316.308C156.999 316.308 157.877 316.196 158.549 315.972C159.221 315.748 159.557 315.417 159.557 314.978C159.557 314.539 159.221 314.208 158.549 313.984C157.877 313.76 156.999 313.648 155.917 313.648C154.843 313.648 153.966 313.76 153.285 313.984C152.613 314.208 152.277 314.539 152.277 314.978C152.277 315.417 152.613 315.748 153.285 315.972C153.957 316.196 154.834 316.308 155.917 316.308ZM175.445 311.002V312.122H163.503V311.002H168.781V309.77H164.357V305.64H174.591V306.76H165.743V308.65H174.731V309.77H170.153V311.002H175.445ZM169.467 313.116C171.045 313.116 172.314 313.289 173.275 313.634C174.246 313.979 174.731 314.535 174.731 315.3C174.731 316.065 174.246 316.621 173.275 316.966C172.305 317.321 171.035 317.498 169.467 317.498C167.899 317.498 166.63 317.321 165.659 316.966C164.689 316.621 164.203 316.065 164.203 315.3C164.203 314.535 164.684 313.979 165.645 313.634C166.616 313.289 167.89 313.116 169.467 313.116ZM169.467 316.406C170.559 316.406 171.465 316.317 172.183 316.14C172.911 315.963 173.275 315.683 173.275 315.3C173.275 314.927 172.911 314.651 172.183 314.474C171.465 314.297 170.559 314.208 169.467 314.208C168.375 314.208 167.465 314.297 166.737 314.474C166.019 314.651 165.659 314.927 165.659 315.3C165.659 315.683 166.019 315.963 166.737 316.14C167.465 316.317 168.375 316.406 169.467 316.406ZM128.787 324.098C128.18 324.593 127.41 324.98 126.477 325.26C125.544 325.54 124.578 325.689 123.579 325.708V324.588C124.27 324.569 124.956 324.471 125.637 324.294C126.328 324.117 126.93 323.869 127.443 323.552C127.956 323.225 128.302 322.838 128.479 322.39H123.803V321.284H128.367V320.024H129.781V321.284H134.331V322.39H129.935C129.86 322.689 129.744 322.959 129.585 323.202L134.611 324.644L134.247 325.722L128.787 324.098ZM129.753 327.71V328.984H134.205V332.47H132.805V330.118H123.831V328.984H128.381V327.71H123.103V326.562H135.045V327.71H129.753ZM149.072 323.216V324.546H147.392V329.376H146.006V320.5H147.392V323.216H149.072ZM140.574 324.756C140.126 325.531 139.561 326.165 138.88 326.66C138.208 327.155 137.447 327.458 136.598 327.57V326.268C137.335 326.137 137.974 325.806 138.516 325.274C139.057 324.733 139.472 324.056 139.762 323.244C140.06 322.423 140.214 321.545 140.224 320.612L141.61 320.696C141.61 321.723 141.446 322.689 141.12 323.594L144.9 326.45L144.06 327.444L140.574 324.756ZM138.796 331.042H147.714V332.302H137.396V328.494H138.796V331.042ZM161.111 324.518H150.891V320.64H161.111V324.518ZM159.739 321.704H152.277V323.454H159.739V321.704ZM156.687 326.506V327.584H161.153V330.44H152.221V331.28H161.363V332.316H150.863V329.46H159.795V328.62H150.835V327.584H155.315V326.506H150.037V325.428H161.979V326.506H156.687ZM174.661 320.5V332.456H173.275V320.5H174.661ZM168.851 320.85C168.833 322.717 168.674 324.355 168.375 325.764L172.239 330.916L171.119 331.714L167.941 327.374C167.493 328.709 166.91 329.754 166.191 330.51C165.473 331.266 164.647 331.677 163.713 331.742V330.342C164.488 330.221 165.155 329.726 165.715 328.858C166.275 327.981 166.7 326.842 166.989 325.442C167.279 324.042 167.428 322.493 167.437 320.794L168.851 320.85ZM189.472 322.782V324.098H187.792V327.108H186.406V320.5H187.792V322.782H189.472ZM181.156 324.434C180.746 325.115 180.19 325.671 179.49 326.1C178.8 326.52 178.016 326.777 177.138 326.87V325.624C178.109 325.493 178.888 325.101 179.476 324.448C180.074 323.785 180.419 322.969 180.512 321.998H177.292V320.808H184.922V321.998H181.898C181.87 322.446 181.791 322.889 181.66 323.328L185.3 325.568L184.614 326.604L181.156 324.434ZM182.85 327.5C184.39 327.5 185.627 327.701 186.56 328.102C187.503 328.503 187.974 329.129 187.974 329.978C187.974 330.827 187.503 331.453 186.56 331.854C185.627 332.255 184.39 332.456 182.85 332.456C181.31 332.456 180.069 332.255 179.126 331.854C178.193 331.453 177.726 330.827 177.726 329.978C177.726 329.129 178.193 328.503 179.126 328.102C180.069 327.701 181.31 327.5 182.85 327.5ZM182.85 331.308C183.933 331.308 184.81 331.196 185.482 330.972C186.154 330.748 186.49 330.417 186.49 329.978C186.49 329.539 186.154 329.208 185.482 328.984C184.81 328.76 183.933 328.648 182.85 328.648C181.777 328.648 180.9 328.76 180.218 328.984C179.546 329.208 179.21 329.539 179.21 329.978C179.21 330.417 179.546 330.748 180.218 330.972C180.89 331.196 181.768 331.308 182.85 331.308Z" fill="black"/>
<path d="M245.342 215.5H246.728V224.376H245.342V215.5ZM239.476 222.57C238.71 222.57 238.038 222.421 237.46 222.122C236.89 221.823 236.452 221.413 236.144 220.89C235.836 220.358 235.682 219.761 235.682 219.098C235.682 218.435 235.836 217.843 236.144 217.32C236.452 216.788 236.89 216.373 237.46 216.074C238.038 215.775 238.71 215.626 239.476 215.626C240.241 215.626 240.908 215.775 241.478 216.074C242.047 216.373 242.486 216.783 242.794 217.306C243.102 217.829 243.256 218.426 243.256 219.098C243.256 219.77 243.102 220.367 242.794 220.89C242.486 221.413 242.047 221.823 241.478 222.122C240.908 222.421 240.241 222.57 239.476 222.57ZM239.476 221.394C240.194 221.394 240.773 221.189 241.212 220.778C241.65 220.358 241.87 219.798 241.87 219.098C241.87 218.398 241.646 217.838 241.198 217.418C240.759 216.998 240.185 216.788 239.476 216.788C238.757 216.788 238.174 216.998 237.726 217.418C237.287 217.838 237.068 218.398 237.068 219.098C237.068 219.798 237.287 220.358 237.726 220.778C238.174 221.189 238.757 221.394 239.476 221.394ZM236.732 223.396H238.146V226.042H247.05V227.302H236.732V223.396ZM261.539 221.674H259.859V227.456H258.473V215.5H259.859V220.344H261.539V221.674ZM254.203 215.85C254.184 217.745 254.025 219.401 253.727 220.82L257.493 225.916L256.373 226.714L253.293 222.444C252.863 223.76 252.294 224.791 251.585 225.538C250.875 226.275 250.059 226.677 249.135 226.742V225.342C249.909 225.221 250.567 224.726 251.109 223.858C251.659 222.99 252.075 221.856 252.355 220.456C252.635 219.056 252.779 217.502 252.789 215.794L254.203 215.85ZM274.445 221.002V222.122H262.503V221.002H267.781V219.77H263.357V215.64H273.591V216.76H264.743V218.65H273.731V219.77H269.153V221.002H274.445ZM268.467 223.116C270.045 223.116 271.314 223.289 272.275 223.634C273.246 223.979 273.731 224.535 273.731 225.3C273.731 226.065 273.246 226.621 272.275 226.966C271.305 227.321 270.035 227.498 268.467 227.498C266.899 227.498 265.63 227.321 264.659 226.966C263.689 226.621 263.203 226.065 263.203 225.3C263.203 224.535 263.684 223.979 264.645 223.634C265.616 223.289 266.89 223.116 268.467 223.116ZM268.467 226.406C269.559 226.406 270.465 226.317 271.183 226.14C271.911 225.963 272.275 225.683 272.275 225.3C272.275 224.927 271.911 224.651 271.183 224.474C270.465 224.297 269.559 224.208 268.467 224.208C267.375 224.208 266.465 224.297 265.737 224.474C265.019 224.651 264.659 224.927 264.659 225.3C264.659 225.683 265.019 225.963 265.737 226.14C266.465 226.317 267.375 226.406 268.467 226.406ZM241.534 235.596C239.994 235.596 238.724 235.377 237.726 234.938C236.727 234.499 236.228 233.855 236.228 233.006C236.228 232.166 236.727 231.527 237.726 231.088C238.724 230.649 239.994 230.43 241.534 230.43C243.074 230.43 244.343 230.649 245.342 231.088C246.34 231.527 246.84 232.166 246.84 233.006C246.84 233.855 246.34 234.499 245.342 234.938C244.343 235.377 243.074 235.596 241.534 235.596ZM241.534 231.55C240.432 231.55 239.518 231.676 238.79 231.928C238.062 232.18 237.698 232.539 237.698 233.006C237.698 233.473 238.062 233.837 238.79 234.098C239.518 234.35 240.432 234.476 241.534 234.476C242.635 234.476 243.55 234.35 244.278 234.098C245.006 233.837 245.37 233.473 245.37 233.006C245.37 232.539 245.006 232.18 244.278 231.928C243.55 231.676 242.635 231.55 241.534 231.55ZM247.512 236.632V237.808H242.234V239.866H240.834V237.808H235.57V236.632H247.512ZM237.81 241.126H246.896V242.316H236.396V238.914H237.81V241.126ZM256.779 232.782H249.065V231.676H252.383V230.29H253.783V231.676H256.779V232.782ZM258.921 237.178H257.115V236.002H258.921V234.378H257.115V233.202H258.921V230.5H260.293V239.446H258.921V237.178ZM253.083 238.34C252.065 238.34 251.23 238.13 250.577 237.71C249.933 237.281 249.611 236.683 249.611 235.918C249.611 235.162 249.933 234.569 250.577 234.14C251.23 233.711 252.065 233.496 253.083 233.496C254.091 233.496 254.917 233.711 255.561 234.14C256.214 234.569 256.541 235.162 256.541 235.918C256.541 236.683 256.219 237.281 255.575 237.71C254.931 238.13 254.1 238.34 253.083 238.34ZM253.083 234.56C252.429 234.56 251.907 234.691 251.515 234.952C251.132 235.204 250.941 235.526 250.941 235.918C250.941 236.319 251.132 236.651 251.515 236.912C251.907 237.164 252.429 237.29 253.083 237.29C253.736 237.29 254.254 237.164 254.637 236.912C255.019 236.651 255.211 236.319 255.211 235.918C255.211 235.526 255.019 235.204 254.637 234.952C254.254 234.691 253.736 234.56 253.083 234.56ZM260.573 241.07V242.302H250.115V238.9H251.515V241.07H260.573ZM272.177 231.816H263.273V230.64H273.577V234.504H272.177V231.816ZM269.167 236.268V237.822C270.53 237.878 271.627 238.097 272.457 238.48C273.297 238.853 273.717 239.404 273.717 240.132C273.717 240.925 273.227 241.513 272.247 241.896C271.277 242.279 270.017 242.47 268.467 242.47C266.918 242.47 265.653 242.279 264.673 241.896C263.703 241.513 263.217 240.925 263.217 240.132C263.217 239.385 263.628 238.83 264.449 238.466C265.28 238.093 266.386 237.878 267.767 237.822V236.268H262.503V235.106H274.445V236.268H269.167ZM272.261 240.132C272.261 239.74 271.893 239.441 271.155 239.236C270.418 239.021 269.522 238.914 268.467 238.914C267.394 238.914 266.493 239.017 265.765 239.222C265.037 239.418 264.673 239.721 264.673 240.132C264.673 240.533 265.042 240.837 265.779 241.042C266.517 241.257 267.413 241.364 268.467 241.364C269.522 241.364 270.418 241.257 271.155 241.042C271.893 240.837 272.261 240.533 272.261 240.132ZM241.338 249.336H239.658V252.108H238.272V245.5H239.658V248.034H241.338V249.336ZM237.404 251.408C237.031 251.567 236.499 251.697 235.808 251.8C235.127 251.893 234.366 251.94 233.526 251.94H229.256V245.794H236.55V246.914H230.628V248.314H236.312V249.406H230.628V250.82H233.638C234.45 250.82 235.183 250.773 235.836 250.68C236.499 250.587 237.022 250.456 237.404 250.288V251.408ZM238.286 252.766H239.658V257.302H229.662V252.766H231.034V253.858H238.286V252.766ZM238.286 256.182V254.95H231.034V256.182H238.286ZM252.005 246.774H243.087V245.64H253.391V249.28H252.005V246.774ZM254.245 250.036V251.156H242.303V250.036H246.783V248.034H248.183V250.036H254.245ZM244.487 256.224H253.629V257.316H243.129V254.194H252.061V253.228H243.101V252.136H253.419V255.244H244.487V256.224ZM265.444 246.816H256.568V245.64H266.83V249.7H265.444V246.816ZM267.712 250.54V251.688H255.77V250.54H260.25V248.202H261.65V250.54H267.712ZM261.734 252.808C263.283 252.808 264.543 252.999 265.514 253.382C266.494 253.765 266.984 254.348 266.984 255.132C266.984 255.925 266.494 256.513 265.514 256.896C264.543 257.279 263.283 257.47 261.734 257.47C260.185 257.47 258.92 257.279 257.94 256.896C256.969 256.513 256.484 255.925 256.484 255.132C256.484 254.32 256.965 253.732 257.926 253.368C258.897 252.995 260.166 252.808 261.734 252.808ZM261.734 256.364C262.789 256.364 263.685 256.257 264.422 256.042C265.159 255.837 265.528 255.533 265.528 255.132C265.528 254.74 265.159 254.441 264.422 254.236C263.685 254.021 262.789 253.914 261.734 253.914C260.661 253.914 259.76 254.017 259.032 254.222C258.304 254.418 257.94 254.721 257.94 255.132C257.94 255.533 258.309 255.837 259.046 256.042C259.783 256.257 260.679 256.364 261.734 256.364ZM279.107 253.004V245.5H280.493V254.866H279.107V254.124H275.481V253.004H279.107ZM273.493 250.19C272.429 250.19 271.57 249.985 270.917 249.574C270.273 249.163 269.951 248.589 269.951 247.852C269.951 247.115 270.273 246.545 270.917 246.144C271.57 245.733 272.429 245.528 273.493 245.528C274.557 245.528 275.411 245.733 276.055 246.144C276.708 246.545 277.035 247.115 277.035 247.852C277.035 248.589 276.708 249.163 276.055 249.574C275.411 249.985 274.557 250.19 273.493 250.19ZM273.493 246.62C272.839 246.62 272.312 246.727 271.911 246.942C271.509 247.147 271.309 247.451 271.309 247.852C271.309 248.253 271.509 248.561 271.911 248.776C272.312 248.991 272.839 249.098 273.493 249.098C274.146 249.098 274.673 248.991 275.075 248.776C275.476 248.561 275.677 248.253 275.677 247.852C275.677 247.451 275.476 247.147 275.075 246.942C274.673 246.727 274.146 246.62 273.493 246.62ZM272.541 252.178H269.237V251.03H274.179C276.045 251.03 277.352 250.871 278.099 250.554V251.702C277.389 252.019 276.069 252.178 274.137 252.178H273.927V254.32H272.541V252.178ZM280.801 256.126V257.302H270.343V253.676H271.729V256.126H280.801Z" fill="black"/>
<path d="M227.126 305.5V317.456H225.74V311.128H222.66V309.826H225.74V305.5H227.126ZM220.868 305.85C220.868 307.437 220.751 308.921 220.518 310.302L224.256 316.014L223.094 316.77L220.112 312.066C219.701 313.494 219.141 314.614 218.432 315.426C217.722 316.229 216.901 316.667 215.968 316.742V315.328C216.714 315.207 217.344 314.712 217.858 313.844C218.38 312.976 218.772 311.847 219.034 310.456C219.304 309.056 219.444 307.502 219.454 305.794L220.868 305.85ZM235.3 309.812C233.732 309.812 232.463 309.639 231.492 309.294C230.531 308.939 230.05 308.384 230.05 307.628C230.05 306.881 230.531 306.335 231.492 305.99C232.463 305.635 233.732 305.458 235.3 305.458C236.868 305.458 238.133 305.635 239.094 305.99C240.065 306.335 240.55 306.881 240.55 307.628C240.55 308.384 240.065 308.939 239.094 309.294C238.133 309.639 236.868 309.812 235.3 309.812ZM235.3 306.508C234.18 306.508 233.261 306.601 232.542 306.788C231.833 306.975 231.478 307.255 231.478 307.628C231.478 308.001 231.833 308.281 232.542 308.468C233.252 308.655 234.171 308.748 235.3 308.748C236.43 308.748 237.349 308.655 238.058 308.468C238.768 308.281 239.122 308.001 239.122 307.628C239.122 307.255 238.763 306.975 238.044 306.788C237.335 306.601 236.42 306.508 235.3 306.508ZM235.986 311.506V312.584H240.452V315.44H231.52V316.28H240.662V317.316H230.162V314.46H239.094V313.62H230.134V312.584H234.614V311.506H229.336V310.428H241.278V311.506H235.986ZM253.625 308.076V309.812H255.305V311.016H253.625V312.64H252.239V305.5H253.625V306.872H255.305V308.076H253.625ZM246.527 312.262C245.79 312.262 245.137 312.122 244.567 311.842C244.007 311.553 243.573 311.156 243.265 310.652C242.967 310.148 242.817 309.579 242.817 308.944C242.817 308.309 242.967 307.74 243.265 307.236C243.573 306.732 244.007 306.34 244.567 306.06C245.137 305.771 245.79 305.626 246.527 305.626C247.265 305.626 247.913 305.771 248.473 306.06C249.033 306.34 249.463 306.732 249.761 307.236C250.069 307.74 250.223 308.309 250.223 308.944C250.223 309.579 250.069 310.148 249.761 310.652C249.463 311.156 249.033 311.553 248.473 311.842C247.913 312.122 247.265 312.262 246.527 312.262ZM246.527 306.788C245.837 306.788 245.277 306.984 244.847 307.376C244.418 307.759 244.203 308.281 244.203 308.944C244.203 309.607 244.418 310.134 244.847 310.526C245.277 310.909 245.837 311.1 246.527 311.1C247.218 311.1 247.773 310.904 248.193 310.512C248.623 310.12 248.837 309.597 248.837 308.944C248.837 308.291 248.623 307.768 248.193 307.376C247.773 306.984 247.218 306.788 246.527 306.788ZM243.657 313.298H253.625V317.456H252.225V314.502H243.657V313.298ZM266.154 310.022H263.97V308.86H266.154V307.852H263.97V306.69H266.154V305.5H267.526V312.626H266.154V310.022ZM261.758 308.398V306.928H256.732V305.794H263.13V309.504H258.132V311.002H260.82C261.651 311.002 262.397 310.965 263.06 310.89C263.723 310.806 264.231 310.689 264.586 310.54V311.674C264.231 311.814 263.709 311.926 263.018 312.01C262.327 312.094 261.562 312.136 260.722 312.136H256.76V308.398H261.758ZM262.472 313.004C264.049 313.004 265.309 313.181 266.252 313.536C267.195 313.881 267.666 314.446 267.666 315.23C267.666 316.005 267.195 316.569 266.252 316.924C265.309 317.279 264.049 317.456 262.472 317.456C260.895 317.456 259.635 317.279 258.692 316.924C257.749 316.569 257.278 316.005 257.278 315.23C257.278 314.446 257.749 313.881 258.692 313.536C259.635 313.181 260.895 313.004 262.472 313.004ZM262.472 316.35C263.592 316.35 264.493 316.257 265.174 316.07C265.855 315.893 266.196 315.613 266.196 315.23C266.196 314.847 265.855 314.567 265.174 314.39C264.493 314.203 263.592 314.11 262.472 314.11C261.352 314.11 260.451 314.203 259.77 314.39C259.089 314.567 258.748 314.847 258.748 315.23C258.748 315.613 259.089 315.893 259.77 316.07C260.451 316.257 261.352 316.35 262.472 316.35ZM280.895 305.5V317.456H279.509V305.5H280.895ZM275.085 305.85C275.066 307.717 274.907 309.355 274.609 310.764L278.473 315.916L277.353 316.714L274.175 312.374C273.727 313.709 273.143 314.754 272.425 315.51C271.706 316.266 270.88 316.677 269.947 316.742V315.342C270.721 315.221 271.389 314.726 271.949 313.858C272.509 312.981 272.933 311.842 273.223 310.442C273.512 309.042 273.661 307.493 273.671 305.794L275.085 305.85ZM295.706 307.782V309.098H294.026V312.108H292.64V305.5H294.026V307.782H295.706ZM287.39 309.434C286.979 310.115 286.424 310.671 285.724 311.1C285.033 311.52 284.249 311.777 283.372 311.87V310.624C284.342 310.493 285.122 310.101 285.71 309.448C286.307 308.785 286.652 307.969 286.746 306.998H283.526V305.808H291.156V306.998H288.132C288.104 307.446 288.024 307.889 287.894 308.328L291.534 310.568L290.848 311.604L287.39 309.434ZM289.084 312.5C290.624 312.5 291.86 312.701 292.794 313.102C293.736 313.503 294.208 314.129 294.208 314.978C294.208 315.827 293.736 316.453 292.794 316.854C291.86 317.255 290.624 317.456 289.084 317.456C287.544 317.456 286.302 317.255 285.36 316.854C284.426 316.453 283.96 315.827 283.96 314.978C283.96 314.129 284.426 313.503 285.36 313.102C286.302 312.701 287.544 312.5 289.084 312.5ZM289.084 316.308C290.166 316.308 291.044 316.196 291.716 315.972C292.388 315.748 292.724 315.417 292.724 314.978C292.724 314.539 292.388 314.208 291.716 313.984C291.044 313.76 290.166 313.648 289.084 313.648C288.01 313.648 287.133 313.76 286.452 313.984C285.78 314.208 285.444 314.539 285.444 314.978C285.444 315.417 285.78 315.748 286.452 315.972C287.124 316.196 288.001 316.308 289.084 316.308Z" fill="black"/>
<path d="M348.543 218.482C347.946 218.967 347.19 219.345 346.275 219.616C345.361 219.887 344.409 220.031 343.419 220.05V218.916C344.119 218.897 344.81 218.799 345.491 218.622C346.182 218.445 346.775 218.197 347.269 217.88C347.773 217.563 348.1 217.189 348.249 216.76H343.615V215.64H353.919V216.76H349.663C349.607 217.04 349.5 217.311 349.341 217.572L354.241 219.014L353.877 220.106L348.543 218.482ZM354.745 221.044V222.164H342.803V221.044H348.081V219.602H349.453V221.044H354.745ZM348.767 223.13C350.345 223.13 351.614 223.303 352.575 223.648C353.546 223.984 354.031 224.535 354.031 225.3C354.031 226.065 353.546 226.621 352.575 226.966C351.605 227.321 350.335 227.498 348.767 227.498C347.199 227.498 345.93 227.321 344.959 226.966C343.989 226.621 343.503 226.065 343.503 225.3C343.503 224.535 343.984 223.984 344.945 223.648C345.916 223.303 347.19 223.13 348.767 223.13ZM348.767 226.406C349.859 226.406 350.765 226.317 351.483 226.14C352.202 225.963 352.561 225.683 352.561 225.3C352.561 224.927 352.202 224.656 351.483 224.488C350.765 224.311 349.859 224.222 348.767 224.222C347.675 224.222 346.77 224.311 346.051 224.488C345.333 224.656 344.973 224.927 344.973 225.3C344.973 225.683 345.333 225.963 346.051 226.14C346.77 226.317 347.675 226.406 348.767 226.406ZM368.212 225.594V226.882H356.27V225.594H359.252V222.682H357.054V215.934H367.414V222.682H365.23V225.594H368.212ZM358.44 221.394H366.028V217.236H358.44V221.394ZM360.638 225.594H363.844V222.682H360.638V225.594Z" fill="black"/>
<path d="M327.126 305.5V317.456H325.74V311.128H322.66V309.826H325.74V305.5H327.126ZM320.868 305.85C320.868 307.437 320.751 308.921 320.518 310.302L324.256 316.014L323.094 316.77L320.112 312.066C319.701 313.494 319.141 314.614 318.432 315.426C317.722 316.229 316.901 316.667 315.968 316.742V315.328C316.714 315.207 317.344 314.712 317.858 313.844C318.38 312.976 318.772 311.847 319.034 310.456C319.304 309.056 319.444 307.502 319.454 305.794L320.868 305.85ZM335.3 309.812C333.732 309.812 332.463 309.639 331.492 309.294C330.531 308.939 330.05 308.384 330.05 307.628C330.05 306.881 330.531 306.335 331.492 305.99C332.463 305.635 333.732 305.458 335.3 305.458C336.868 305.458 338.133 305.635 339.094 305.99C340.065 306.335 340.55 306.881 340.55 307.628C340.55 308.384 340.065 308.939 339.094 309.294C338.133 309.639 336.868 309.812 335.3 309.812ZM335.3 306.508C334.18 306.508 333.261 306.601 332.542 306.788C331.833 306.975 331.478 307.255 331.478 307.628C331.478 308.001 331.833 308.281 332.542 308.468C333.252 308.655 334.171 308.748 335.3 308.748C336.43 308.748 337.349 308.655 338.058 308.468C338.768 308.281 339.122 308.001 339.122 307.628C339.122 307.255 338.763 306.975 338.044 306.788C337.335 306.601 336.42 306.508 335.3 306.508ZM335.986 311.506V312.584H340.452V315.44H331.52V316.28H340.662V317.316H330.162V314.46H339.094V313.62H330.134V312.584H334.614V311.506H329.336V310.428H341.278V311.506H335.986ZM354.045 310.12H343.489V309.028H345.603V306.732H343.615V305.64H353.919V306.732H351.931V309.028H354.045V310.12ZM346.989 309.028H350.545V306.732H346.989V309.028ZM349.453 312.276V313.368C350.844 313.405 351.955 313.587 352.785 313.914C353.625 314.241 354.045 314.74 354.045 315.412C354.045 316.149 353.56 316.677 352.589 316.994C351.619 317.321 350.345 317.484 348.767 317.484C347.19 317.484 345.916 317.321 344.945 316.994C343.975 316.667 343.489 316.14 343.489 315.412C343.489 314.74 343.905 314.241 344.735 313.914C345.575 313.587 346.691 313.405 348.081 313.368V312.276H342.803V311.17H354.745V312.276H349.453ZM352.589 315.412C352.589 315.067 352.23 314.819 351.511 314.67C350.793 314.511 349.878 314.432 348.767 314.432C347.657 314.432 346.742 314.511 346.023 314.67C345.305 314.819 344.945 315.067 344.945 315.412C344.945 315.767 345.305 316.019 346.023 316.168C346.742 316.327 347.657 316.406 348.767 316.406C349.878 316.406 350.793 316.327 351.511 316.168C352.23 316.019 352.589 315.767 352.589 315.412ZM367.344 309.518H357.124V305.64H367.344V309.518ZM365.972 306.704H358.51V308.454H365.972V306.704ZM362.92 311.506V312.584H367.386V315.44H358.454V316.28H367.596V317.316H357.096V314.46H366.028V313.62H357.068V312.584H361.548V311.506H356.27V310.428H368.212V311.506H362.92ZM380.895 305.5V317.456H379.509V305.5H380.895ZM375.085 305.85C375.066 307.717 374.907 309.355 374.609 310.764L378.473 315.916L377.353 316.714L374.175 312.374C373.727 313.709 373.143 314.754 372.425 315.51C371.706 316.266 370.88 316.677 369.947 316.742V315.342C370.721 315.221 371.389 314.726 371.949 313.858C372.509 312.981 372.933 311.842 373.223 310.442C373.512 309.042 373.661 307.493 373.671 305.794L375.085 305.85ZM395.706 307.782V309.098H394.026V312.108H392.64V305.5H394.026V307.782H395.706ZM387.39 309.434C386.979 310.115 386.424 310.671 385.724 311.1C385.033 311.52 384.249 311.777 383.372 311.87V310.624C384.342 310.493 385.122 310.101 385.71 309.448C386.307 308.785 386.652 307.969 386.746 306.998H383.526V305.808H391.156V306.998H388.132C388.104 307.446 388.024 307.889 387.894 308.328L391.534 310.568L390.848 311.604L387.39 309.434ZM389.084 312.5C390.624 312.5 391.86 312.701 392.794 313.102C393.736 313.503 394.208 314.129 394.208 314.978C394.208 315.827 393.736 316.453 392.794 316.854C391.86 317.255 390.624 317.456 389.084 317.456C387.544 317.456 386.302 317.255 385.36 316.854C384.426 316.453 383.96 315.827 383.96 314.978C383.96 314.129 384.426 313.503 385.36 313.102C386.302 312.701 387.544 312.5 389.084 312.5ZM389.084 316.308C390.166 316.308 391.044 316.196 391.716 315.972C392.388 315.748 392.724 315.417 392.724 314.978C392.724 314.539 392.388 314.208 391.716 313.984C391.044 313.76 390.166 313.648 389.084 313.648C388.01 313.648 387.133 313.76 386.452 313.984C385.78 314.208 385.444 314.539 385.444 314.978C385.444 315.417 385.78 315.748 386.452 315.972C387.124 316.196 388.001 316.308 389.084 316.308Z" fill="black"/>
<path d="M442.338 218.174V219.462H440.686V222.808H439.3V215.5H440.686V218.174H442.338ZM435.772 216.858H430.41V215.696H437.158V219.882H435.772V216.858ZM438.306 221.436C437.597 221.753 436.276 221.912 434.344 221.912H429.836V220.778H432.174V218.286H433.546V220.778H434.386C436.253 220.778 437.56 220.619 438.306 220.302V221.436ZM435.716 222.864C437.294 222.864 438.549 223.06 439.482 223.452C440.425 223.835 440.896 224.413 440.896 225.188C440.896 225.963 440.425 226.541 439.482 226.924C438.54 227.307 437.284 227.498 435.716 227.498C434.148 227.498 432.893 227.307 431.95 226.924C431.008 226.541 430.536 225.963 430.536 225.188C430.536 224.413 431.003 223.835 431.936 223.452C432.879 223.06 434.139 222.864 435.716 222.864ZM435.716 226.42C436.846 226.42 437.746 226.317 438.418 226.112C439.1 225.916 439.44 225.608 439.44 225.188C439.44 224.768 439.1 224.455 438.418 224.25C437.737 224.045 436.836 223.942 435.716 223.942C434.596 223.942 433.696 224.045 433.014 224.25C432.333 224.455 431.992 224.768 431.992 225.188C431.992 225.608 432.328 225.916 433 226.112C433.682 226.317 434.587 226.42 435.716 226.42ZM455.805 217.782V219.098H454.125V222.108H452.739V215.5H454.125V217.782H455.805ZM447.489 219.434C447.079 220.115 446.523 220.671 445.823 221.1C445.133 221.52 444.349 221.777 443.471 221.87V220.624C444.442 220.493 445.221 220.101 445.809 219.448C446.407 218.785 446.752 217.969 446.845 216.998H443.625V215.808H451.255V216.998H448.231C448.203 217.446 448.124 217.889 447.993 218.328L451.633 220.568L450.947 221.604L447.489 219.434ZM449.183 222.5C450.723 222.5 451.96 222.701 452.893 223.102C453.836 223.503 454.307 224.129 454.307 224.978C454.307 225.827 453.836 226.453 452.893 226.854C451.96 227.255 450.723 227.456 449.183 227.456C447.643 227.456 446.402 227.255 445.459 226.854C444.526 226.453 444.059 225.827 444.059 224.978C444.059 224.129 444.526 223.503 445.459 223.102C446.402 222.701 447.643 222.5 449.183 222.5ZM449.183 226.308C450.266 226.308 451.143 226.196 451.815 225.972C452.487 225.748 452.823 225.417 452.823 224.978C452.823 224.539 452.487 224.208 451.815 223.984C451.143 223.76 450.266 223.648 449.183 223.648C448.11 223.648 447.233 223.76 446.551 223.984C445.879 224.208 445.543 224.539 445.543 224.978C445.543 225.417 445.879 225.748 446.551 225.972C447.223 226.196 448.101 226.308 449.183 226.308ZM467.928 215.5V227.456H466.542V215.5H467.928ZM462.118 215.85C462.099 217.717 461.941 219.355 461.642 220.764L465.506 225.916L464.386 226.714L461.208 222.374C460.76 223.709 460.177 224.754 459.458 225.51C458.739 226.266 457.913 226.677 456.98 226.742V225.342C457.755 225.221 458.422 224.726 458.982 223.858C459.542 222.981 459.967 221.842 460.256 220.442C460.545 219.042 460.695 217.493 460.704 215.794L462.118 215.85ZM482.739 217.782V219.098H481.059V222.108H479.673V215.5H481.059V217.782H482.739ZM474.423 219.434C474.012 220.115 473.457 220.671 472.757 221.1C472.066 221.52 471.282 221.777 470.405 221.87V220.624C471.375 220.493 472.155 220.101 472.743 219.448C473.34 218.785 473.685 217.969 473.779 216.998H470.559V215.808H478.189V216.998H475.165C475.137 217.446 475.057 217.889 474.927 218.328L478.567 220.568L477.881 221.604L474.423 219.434ZM476.117 222.5C477.657 222.5 478.893 222.701 479.827 223.102C480.769 223.503 481.241 224.129 481.241 224.978C481.241 225.827 480.769 226.453 479.827 226.854C478.893 227.255 477.657 227.456 476.117 227.456C474.577 227.456 473.335 227.255 472.393 226.854C471.459 226.453 470.993 225.827 470.993 224.978C470.993 224.129 471.459 223.503 472.393 223.102C473.335 222.701 474.577 222.5 476.117 222.5ZM476.117 226.308C477.199 226.308 478.077 226.196 478.749 225.972C479.421 225.748 479.757 225.417 479.757 224.978C479.757 224.539 479.421 224.208 478.749 223.984C478.077 223.76 477.199 223.648 476.117 223.648C475.043 223.648 474.166 223.76 473.485 223.984C472.813 224.208 472.477 224.539 472.477 224.978C472.477 225.417 472.813 225.748 473.485 225.972C474.157 226.196 475.034 226.308 476.117 226.308Z" fill="black"/>
<path d="M455.745 311.002V312.122H443.803V311.002H449.081V309.77H444.657V305.64H454.891V306.76H446.043V308.65H455.031V309.77H450.453V311.002H455.745ZM449.767 313.116C451.345 313.116 452.614 313.289 453.575 313.634C454.546 313.979 455.031 314.535 455.031 315.3C455.031 316.065 454.546 316.621 453.575 316.966C452.605 317.321 451.335 317.498 449.767 317.498C448.199 317.498 446.93 317.321 445.959 316.966C444.989 316.621 444.503 316.065 444.503 315.3C444.503 314.535 444.984 313.979 445.945 313.634C446.916 313.289 448.19 313.116 449.767 313.116ZM449.767 316.406C450.859 316.406 451.765 316.317 452.483 316.14C453.211 315.963 453.575 315.683 453.575 315.3C453.575 314.927 453.211 314.651 452.483 314.474C451.765 314.297 450.859 314.208 449.767 314.208C448.675 314.208 447.765 314.297 447.037 314.474C446.319 314.651 445.959 314.927 445.959 315.3C445.959 315.683 446.319 315.963 447.037 316.14C447.765 316.317 448.675 316.406 449.767 316.406ZM469.212 315.594V316.882H457.27V315.594H460.252V312.682H458.054V305.934H468.414V312.682H466.23V315.594H469.212ZM459.44 311.394H467.028V307.236H459.44V311.394ZM461.638 315.594H464.844V312.682H461.638V315.594Z" fill="black"/>
<circle cx="56" cy="15" r="15" fill="#D70D00"/>
<circle cx="56" cy="15" r="7" fill="white"/>
<circle cx="156" cy="15" r="15" fill="#D70D00"/>
<circle cx="156" cy="15" r="7" fill="white"/>
<circle cx="356" cy="15" r="15" fill="#D70D00"/>
<circle cx="356" cy="15" r="7" fill="white"/>
<circle cx="456" cy="15" r="15" fill="#D70D00"/>
<circle cx="456" cy="15" r="7" fill="white"/>
<circle cx="456" cy="105" r="15" fill="#D70D00"/>
<circle cx="456" cy="105" r="7" fill="white"/>
<circle cx="456" cy="195" r="15" fill="#D70D00"/>
<circle cx="456" cy="195" r="7" fill="white"/>
<circle cx="456" cy="285" r="15" fill="#D70D00"/>
<circle cx="456" cy="285" r="7" fill="white"/>
<circle cx="356" cy="105" r="15" fill="#D70D00"/>
<circle cx="356" cy="105" r="7" fill="white"/>
<circle cx="356" cy="195" r="15" fill="#D70D00"/>
<circle cx="356" cy="195" r="7" fill="white"/>
<circle cx="356" cy="285" r="15" fill="#D70D00"/>
<circle cx="356" cy="285" r="7" fill="white"/>
<circle cx="256" cy="105" r="15" fill="#D70D00"/>
<circle cx="256" cy="105" r="7" fill="white"/>
<circle cx="256" cy="195" r="15" fill="#D70D00"/>
<circle cx="256" cy="195" r="7" fill="white"/>
<circle cx="256" cy="15" r="15" fill="#D70D00"/>
<circle cx="256" cy="15" r="7" fill="white"/>
<circle cx="256" cy="285" r="15" fill="#D70D00"/>
<circle cx="256" cy="285" r="7" fill="white"/>
<circle cx="156" cy="105" r="15" fill="#D70D00"/>
<circle cx="156" cy="105" r="7" fill="white"/>
<circle cx="156" cy="195" r="15" fill="#D70D00"/>
<circle cx="156" cy="195" r="7" fill="white"/>
<circle cx="156" cy="285" r="15" fill="#D70D00"/>
<circle cx="156" cy="285" r="7" fill="white"/>
<circle cx="56" cy="105" r="15" fill="#D70D00"/>
<circle cx="56" cy="105" r="7" fill="white"/>
<circle cx="56" cy="195" r="15" fill="#D70D00"/>
<circle cx="56" cy="195" r="7" fill="white"/>
<circle cx="56" cy="285" r="15" fill="#D70D00"/>
<circle cx="56" cy="285" r="7" fill="white"/>
<rect x="70" y="13" width="72" height="5" fill="#D70D00"/>
<rect x="70" y="102" width="72" height="5" fill="#D70D00"/>
<rect x="70" y="192" width="72" height="5" fill="#D70D00"/>
<rect x="70" y="282" width="72" height="5" fill="#D70D00"/>
<rect x="170" y="13" width="72" height="5" fill="#D70D00"/>
<rect x="170" y="102" width="72" height="5" fill="#D70D00"/>
<rect x="170" y="192" width="72" height="5" fill="#D70D00"/>
<rect x="170" y="282" width="72" height="5" fill="#D70D00"/>
<rect x="270" y="13" width="72" height="5" fill="#D70D00"/>
<rect x="270" y="102" width="72" height="5" fill="#D70D00"/>
<rect x="270" y="192" width="72" height="5" fill="#D70D00"/>
<rect x="270" y="282" width="72" height="5" fill="#D70D00"/>
<rect x="370" y="13" width="72" height="5" fill="#D70D00"/>
<rect x="370" y="102" width="72" height="5" fill="#D70D00"/>
<rect x="370" y="192" width="72" height="5" fill="#D70D00"/>
<rect x="370" y="282" width="72" height="5" fill="#D70D00"/>
<path d="M42 194C-10.1464 194 -9.85343 105 42 105" stroke="#D70D00" stroke-width="5"/>
<path d="M463 16C515.146 16 514.853 105 463 105" stroke="#D70D00" stroke-width="5"/>
<path d="M463 195C515.146 195 514.853 284 463 284" stroke="#D70D00" stroke-width="5"/>
</svg>
