<svg width="532" height="179" viewBox="0 0 532 179" fill="none" xmlns="http://www.w3.org/2000/svg">
<path d="M59.272 53.9922V55.2802H57.62V58.6262H56.234V51.3182H57.62V53.9922H59.272ZM52.706 52.6762H47.344V51.5142H54.092V55.7002H52.706V52.6762ZM55.24 57.2542C54.5307 57.5715 53.21 57.7302 51.278 57.7302H46.77V56.5962H49.108V54.1042H50.48V56.5962H51.32C53.1867 56.5962 54.4933 56.4375 55.24 56.1202V57.2542ZM52.65 58.6822C54.2273 58.6822 55.4827 58.8782 56.416 59.2702C57.3587 59.6528 57.83 60.2315 57.83 61.0062C57.83 61.7808 57.3587 62.3595 56.416 62.7422C55.4733 63.1248 54.218 63.3162 52.65 63.3162C51.082 63.3162 49.8267 63.1248 48.884 62.7422C47.9413 62.3595 47.47 61.7808 47.47 61.0062C47.47 60.2315 47.9367 59.6528 48.87 59.2702C49.8127 58.8782 51.0727 58.6822 52.65 58.6822ZM52.65 62.2382C53.7793 62.2382 54.68 62.1355 55.352 61.9302C56.0333 61.7342 56.374 61.4262 56.374 61.0062C56.374 60.5862 56.0333 60.2735 55.352 60.0682C54.6707 59.8628 53.77 59.7602 52.65 59.7602C51.53 59.7602 50.6293 59.8628 49.948 60.0682C49.2667 60.2735 48.926 60.5862 48.926 61.0062C48.926 61.4262 49.262 61.7342 49.934 61.9302C50.6153 62.1355 51.5207 62.2382 52.65 62.2382ZM68.2868 53.9222H60.1808V52.7042H63.5268V51.1922H64.9408V52.7042H68.2868V53.9222ZM72.7388 57.3802H71.0868V63.2742H69.7008V51.3182H71.0868V56.0502H72.7388V57.3802ZM64.9268 61.3282C66.7095 61.3095 67.9695 61.1322 68.7068 60.7962V62.0562C68.3335 62.2242 67.8015 62.3502 67.1108 62.4342C66.4295 62.5182 65.6595 62.5602 64.8008 62.5602H60.2368V61.3282H63.5408V59.5502C62.6915 59.4568 62.0195 59.2002 61.5248 58.7802C61.0395 58.3508 60.7968 57.8002 60.7968 57.1282C60.7968 56.3628 61.1095 55.7608 61.7348 55.3222C62.3601 54.8742 63.2001 54.6502 64.2548 54.6502C65.3095 54.6502 66.1495 54.8742 66.7748 55.3222C67.4001 55.7608 67.7128 56.3628 67.7128 57.1282C67.7128 57.8002 67.4655 58.3508 66.9708 58.7802C66.4761 59.2095 65.7948 59.4708 64.9268 59.5642V61.3282ZM62.1128 57.1282C62.1128 57.5202 62.2995 57.8422 62.6728 58.0942C63.0461 58.3368 63.5735 58.4582 64.2548 58.4582C64.9361 58.4582 65.4635 58.3368 65.8368 58.0942C66.2101 57.8422 66.3968 57.5202 66.3968 57.1282C66.3968 56.7362 66.2101 56.4142 65.8368 56.1622C65.4635 55.9102 64.9361 55.7842 64.2548 55.7842C63.5735 55.7842 63.0461 55.9102 62.6728 56.1622C62.2995 56.4142 62.1128 56.7362 62.1128 57.1282ZM84.7776 56.2462H74.5576V51.4582H84.7776V56.2462ZM83.3916 52.6062H75.9436V55.0982H83.3916V52.6062ZM85.6456 57.4502V58.6262H80.3676V60.6842H78.9676V58.6262H73.7036V57.4502H85.6456ZM75.9436 61.9442H85.0436V63.1342H74.5436V59.6482H75.9436V61.9442ZM98.4264 51.3182V58.4582H97.0544V56.9322H94.9404L95.0244 55.7002H97.0544V53.8242H95.0244L94.9404 52.5922H97.0544V51.3182H98.4264ZM94.6184 54.7622C94.6184 55.3968 94.4691 55.9662 94.1704 56.4702C93.8717 56.9742 93.4424 57.3708 92.8824 57.6602C92.3317 57.9402 91.6877 58.0802 90.9504 58.0802C90.2131 58.0802 89.5644 57.9402 89.0044 57.6602C88.4444 57.3708 88.0151 56.9742 87.7164 56.4702C87.4177 55.9662 87.2684 55.3968 87.2684 54.7622C87.2684 54.1275 87.4177 53.5582 87.7164 53.0542C88.0151 52.5502 88.4444 52.1582 89.0044 51.8782C89.5644 51.5888 90.2131 51.4442 90.9504 51.4442C91.6877 51.4442 92.3317 51.5888 92.8824 51.8782C93.4424 52.1582 93.8717 52.5502 94.1704 53.0542C94.4691 53.5582 94.6184 54.1275 94.6184 54.7622ZM88.6544 54.7622C88.6544 55.4248 88.8644 55.9522 89.2844 56.3442C89.7044 56.7268 90.2597 56.9182 90.9504 56.9182C91.6224 56.9182 92.1684 56.7222 92.5884 56.3302C93.0177 55.9382 93.2324 55.4155 93.2324 54.7622C93.2324 54.0995 93.0224 53.5768 92.6024 53.1942C92.1824 52.8022 91.6317 52.6062 90.9504 52.6062C90.2597 52.6062 89.7044 52.8022 89.2844 53.1942C88.8644 53.5768 88.6544 54.0995 88.6544 54.7622ZM88.2904 59.1162H98.4264V63.2742H97.0124V60.3202H88.2904V59.1162Z" fill="white"/>
<path d="M191.811 52.7682V54.0982H190.131V56.8562H188.745V50.3182H190.131V52.7682H191.811ZM186.505 51.9562C186.505 53.5428 185.894 54.7235 184.671 55.4982C183.458 56.2635 181.773 56.6462 179.617 56.6462V55.4422C181.344 55.4328 182.688 55.1575 183.649 54.6162C184.62 54.0655 185.105 53.2582 185.105 52.1942V51.7882H179.617V50.6122H186.505V51.9562ZM185.189 57.2622C186.738 57.2622 187.98 57.4628 188.913 57.8642C189.846 58.2655 190.313 58.9002 190.313 59.7682C190.313 60.6362 189.846 61.2708 188.913 61.6722C187.98 62.0735 186.738 62.2742 185.189 62.2742C183.64 62.2742 182.398 62.0735 181.465 61.6722C180.532 61.2708 180.065 60.6362 180.065 59.7682C180.065 58.9002 180.532 58.2655 181.465 57.8642C182.398 57.4628 183.64 57.2622 185.189 57.2622ZM185.189 61.1122C186.281 61.1122 187.163 61.0048 187.835 60.7902C188.507 60.5662 188.843 60.2255 188.843 59.7682C188.843 59.3202 188.502 58.9842 187.821 58.7602C187.149 58.5268 186.272 58.4102 185.189 58.4102C184.116 58.4102 183.238 58.5268 182.557 58.7602C181.876 58.9842 181.535 59.3202 181.535 59.7682C181.535 60.2162 181.871 60.5522 182.543 60.7762C183.224 61.0002 184.106 61.1122 185.189 61.1122ZM202.66 55.8062H200.7V54.5742H202.66V52.9082H200.7V51.6762H202.66V50.3182H204.032V59.1942H202.66V55.8062ZM200.084 57.2622H193.266V50.5282H194.624V52.5862H198.726V50.5282H200.084V57.2622ZM198.726 56.0722V53.7622H194.624V56.0722H198.726ZM204.284 60.8602V62.1202H193.854V58.2982H195.268V60.8602H204.284ZM217.317 55.3022H207.097V50.3882H208.469V51.7602H215.959V50.3882H217.317V55.3022ZM215.959 54.2102V52.8102H208.469V54.2102H215.959ZM212.893 57.5282V58.8022H217.345V62.2882H215.945V59.9362H206.971V58.8022H211.521V57.5282H206.243V56.3802H218.185V57.5282H212.893ZM231.651 60.4262V61.7002H219.709V60.4262H224.945V58.1722H220.507V53.8602H229.495V51.9842H220.507V50.7522H230.867V55.0502H221.893V56.9402H231.049V58.1722H226.359V60.4262H231.651Z" fill="white"/>
<path d="M321.993 53.2022V54.5322H320.313V59.1942H318.927V50.3182H320.313V53.2022H321.993ZM316.897 57.2622H309.911V50.5282H311.269V52.6142H315.539V50.5282H316.897V57.2622ZM315.539 56.0722V53.7902H311.269V56.0722H315.539ZM311.717 60.8602H320.635V62.1202H310.317V58.2982H311.717V60.8602ZM334.9 60.3982V61.7002H322.958V60.3982H328.208V57.6962H323.574V56.4222H325.688V52.1102H323.7V50.8222H334.144V52.1102H332.156V56.4222H334.27V57.6962H329.622V60.3982H334.9ZM327.088 56.4222H330.756V52.1102H327.088V56.4222ZM347.919 50.3182V62.2742H346.603V56.4362H344.657V62.0642H343.341V50.3882H344.657V55.1342H346.603V50.3182H347.919ZM339.687 60.3282C340.2 60.3282 340.699 60.2908 341.185 60.2162C341.679 60.1322 342.109 60.0155 342.473 59.8662V61.0842C342.127 61.2335 341.689 61.3502 341.157 61.4342C340.625 61.5182 340.083 61.5602 339.533 61.5602H336.789V50.7522H341.955V51.9842H338.147V60.3282H339.687ZM359.649 52.0262H350.605V50.7382H361.063V58.6342H359.649V52.0262ZM361.833 60.4262V61.7002H349.891V60.4262H352.215V55.6242H353.601V60.4262H355.953V55.6242H357.353V60.4262H361.833Z" fill="white"/>
<path d="M449.543 53.4962H446.659V52.2642H449.543V50.3182H450.929V57.0382H449.543V53.4962ZM443.677 54.2102C443.238 54.9195 442.678 55.4982 441.997 55.9462C441.325 56.3942 440.559 56.6788 439.701 56.8002V55.5402C440.429 55.4002 441.059 55.0922 441.591 54.6162C442.132 54.1308 442.547 53.5288 442.837 52.8102C443.126 52.0822 443.275 51.2888 443.285 50.4302L444.671 50.5142C444.671 51.4382 444.521 52.2968 444.223 53.0902L447.863 55.5822L447.093 56.5622L443.677 54.2102ZM445.861 57.4302C447.419 57.4302 448.67 57.6262 449.613 58.0182C450.555 58.4102 451.027 59.0215 451.027 59.8522C451.027 60.6828 450.555 61.2942 449.613 61.6862C448.67 62.0782 447.419 62.2742 445.861 62.2742C444.302 62.2742 443.051 62.0782 442.109 61.6862C441.166 61.2942 440.695 60.6828 440.695 59.8522C440.695 59.0215 441.166 58.4102 442.109 58.0182C443.051 57.6262 444.302 57.4302 445.861 57.4302ZM445.861 61.1402C446.953 61.1402 447.839 61.0328 448.521 60.8182C449.211 60.5942 449.557 60.2722 449.557 59.8522C449.557 59.4322 449.211 59.1148 448.521 58.9002C447.839 58.6762 446.953 58.5642 445.861 58.5642C444.769 58.5642 443.877 58.6762 443.187 58.9002C442.505 59.1148 442.165 59.4322 442.165 59.8522C442.165 60.2722 442.505 60.5942 443.187 60.8182C443.877 61.0328 444.769 61.1402 445.861 61.1402ZM458.978 53.7062C458.306 54.6208 457.48 55.3395 456.5 55.8622C455.529 56.3848 454.502 56.6508 453.42 56.6602V55.3442C454.26 55.3442 455.072 55.1202 455.856 54.6722C456.649 54.2148 457.321 53.5942 457.872 52.8102C458.422 52.0262 458.782 51.1675 458.95 50.2342L460.378 50.4582C460.238 51.2235 459.995 51.9515 459.65 52.6422L464.774 55.4842L464.13 56.6462L458.978 53.7062ZM465.082 59.2082H459.804V62.5542H458.39V59.2082H453.14V57.9202H465.082V59.2082ZM478.1 50.3182V62.2742H476.784V56.4362H474.838V62.0642H473.522V50.3882H474.838V55.1342H476.784V50.3182H478.1ZM469.868 60.3282C470.382 60.3282 470.881 60.2908 471.366 60.2162C471.861 60.1322 472.29 60.0155 472.654 59.8662V61.0842C472.309 61.2335 471.87 61.3502 471.338 61.4342C470.806 61.5182 470.265 61.5602 469.714 61.5602H466.97V50.7522H472.136V51.9842H468.328V60.3282H469.868ZM489.831 52.0262H480.787V50.7382H491.245V58.6342H489.831V52.0262ZM492.015 60.4262V61.7002H480.073V60.4262H482.397V55.6242H483.783V60.4262H486.135V55.6242H487.535V60.4262H492.015Z" fill="white"/>
<path d="M447.751 166.495H439.631V165.361H442.991V164.017H444.391V165.361H447.751V166.495ZM452.175 167.503V168.833H450.495V173.187H449.109V164.227H450.495V167.503H452.175ZM443.691 172.067C443.019 172.067 442.412 171.974 441.871 171.787C441.339 171.591 440.919 171.307 440.611 170.933C440.303 170.56 440.149 170.121 440.149 169.617C440.149 169.113 440.303 168.675 440.611 168.301C440.919 167.928 441.339 167.648 441.871 167.461C442.412 167.265 443.019 167.167 443.691 167.167C444.363 167.167 444.965 167.265 445.497 167.461C446.029 167.648 446.449 167.928 446.757 168.301C447.065 168.665 447.219 169.104 447.219 169.617C447.219 170.131 447.065 170.574 446.757 170.947C446.449 171.311 446.029 171.591 445.497 171.787C444.965 171.974 444.363 172.067 443.691 172.067ZM443.691 168.231C443.028 168.231 442.496 168.362 442.095 168.623C441.693 168.885 441.493 169.216 441.493 169.617C441.493 170.028 441.693 170.364 442.095 170.625C442.496 170.877 443.028 171.003 443.691 171.003C444.353 171.003 444.885 170.877 445.287 170.625C445.688 170.364 445.889 170.028 445.889 169.617C445.889 169.216 445.688 168.885 445.287 168.623C444.885 168.362 444.353 168.231 443.691 168.231ZM441.899 174.797H450.817V176.029H440.499V172.753H441.899V174.797ZM465.642 167.741H463.962V170.583H462.576V164.227H463.962V166.397H465.642V167.741ZM461.708 169.477C461.334 169.636 460.807 169.767 460.126 169.869C459.454 169.963 458.698 170.009 457.858 170.009H453.56V164.451H454.96V168.805H457.942C458.754 168.805 459.486 168.759 460.14 168.665C460.802 168.572 461.325 168.441 461.708 168.273V169.477ZM453.966 171.311H463.962V176.029H453.966V171.311ZM455.352 174.853H462.576V172.501H455.352V174.853ZM478.1 164.227V176.183H476.784V170.345H474.838V175.973H473.522V164.297H474.838V169.043H476.784V164.227H478.1ZM469.868 174.237C470.382 174.237 470.881 174.2 471.366 174.125C471.861 174.041 472.29 173.925 472.654 173.775V174.993C472.309 175.143 471.87 175.259 471.338 175.343C470.806 175.427 470.265 175.469 469.714 175.469H466.97V164.661H472.136V165.893H468.328V174.237H469.868ZM489.831 165.935H480.787V164.647H491.245V172.543H489.831V165.935ZM492.015 174.335V175.609H480.073V174.335H482.397V169.533H483.783V174.335H486.135V169.533H487.535V174.335H492.015Z" fill="white"/>
<path d="M305.274 164.675L312.064 173.411V164.605H313.548V175.819H312.162L305.372 167.083V175.889H303.902V164.675H305.274ZM326.769 164.227V176.183H325.383V169.855H322.303V168.553H325.383V164.227H326.769ZM320.511 164.577C320.511 166.164 320.395 167.648 320.161 169.029L323.899 174.741L322.737 175.497L319.755 170.793C319.345 172.221 318.785 173.341 318.075 174.153C317.366 174.956 316.545 175.395 315.611 175.469V174.055C316.358 173.934 316.988 173.439 317.501 172.571C318.024 171.703 318.416 170.574 318.677 169.183C318.948 167.783 319.088 166.229 319.097 164.521L320.511 164.577ZM334.944 168.539C333.376 168.539 332.107 168.367 331.136 168.021C330.175 167.667 329.694 167.111 329.694 166.355C329.694 165.609 330.175 165.063 331.136 164.717C332.107 164.363 333.376 164.185 334.944 164.185C336.512 164.185 337.777 164.363 338.738 164.717C339.709 165.063 340.194 165.609 340.194 166.355C340.194 167.111 339.709 167.667 338.738 168.021C337.777 168.367 336.512 168.539 334.944 168.539ZM334.944 165.235C333.824 165.235 332.905 165.329 332.186 165.515C331.477 165.702 331.122 165.982 331.122 166.355C331.122 166.729 331.477 167.009 332.186 167.195C332.895 167.382 333.815 167.475 334.944 167.475C336.073 167.475 336.993 167.382 337.702 167.195C338.411 167.009 338.766 166.729 338.766 166.355C338.766 165.982 338.407 165.702 337.688 165.515C336.979 165.329 336.064 165.235 334.944 165.235ZM335.63 170.233V171.311H340.096V174.167H331.164V175.007H340.306V176.043H329.806V173.187H338.738V172.347H329.778V171.311H334.258V170.233H328.98V169.155H340.922V170.233H335.63ZM354.949 170.401H353.269V176.183H351.883V164.227H353.269V169.071H354.949V170.401ZM347.753 174.195C348.322 174.195 348.887 174.144 349.447 174.041C350.016 173.939 350.483 173.803 350.847 173.635V174.895C350.492 175.073 350.026 175.213 349.447 175.315C348.878 175.418 348.299 175.469 347.711 175.469H343.007V164.661H349.909V165.935H344.393V169.337H349.699V170.611H344.393V174.195H347.753ZM367.17 164.227V176.183H365.784V174.727H362.158V173.551H365.784V164.227H367.17ZM360.1 170.177C359.409 170.177 358.793 170.061 358.252 169.827C357.72 169.585 357.3 169.249 356.992 168.819C356.693 168.39 356.544 167.891 356.544 167.321C356.544 166.752 356.693 166.253 356.992 165.823C357.3 165.394 357.72 165.063 358.252 164.829C358.793 164.587 359.409 164.465 360.1 164.465C360.79 164.465 361.402 164.587 361.934 164.829C362.475 165.063 362.895 165.394 363.194 165.823C363.502 166.253 363.656 166.752 363.656 167.321C363.656 167.891 363.502 168.39 363.194 168.819C362.895 169.249 362.475 169.585 361.934 169.827C361.402 170.061 360.79 170.177 360.1 170.177ZM360.1 165.599C359.428 165.599 358.886 165.758 358.476 166.075C358.074 166.393 357.874 166.808 357.874 167.321C357.874 167.835 358.074 168.25 358.476 168.567C358.886 168.885 359.428 169.043 360.1 169.043C360.762 169.043 361.294 168.885 361.696 168.567C362.106 168.25 362.312 167.835 362.312 167.321C362.312 166.808 362.106 166.393 361.696 166.075C361.294 165.758 360.762 165.599 360.1 165.599ZM364.776 171.913C363.954 172.221 362.652 172.375 360.87 172.375H360.632V176.183H359.246V172.375H355.914V171.157H360.856C362.694 171.157 364.001 170.999 364.776 170.681V171.913Z" fill="white"/>
<path d="M185.078 167.741H183.398V170.583H182.012V164.227H183.398V166.397H185.078V167.741ZM181.144 169.477C180.77 169.636 180.243 169.767 179.562 169.869C178.89 169.963 178.134 170.009 177.294 170.009H172.996V164.451H174.396V168.805H177.378C178.19 168.805 178.922 168.759 179.576 168.665C180.238 168.572 180.761 168.441 181.144 168.273V169.477ZM173.402 171.311H183.398V176.029H173.402V171.311ZM174.788 174.853H182.012V172.501H174.788V174.853ZM197.537 164.227V176.183H196.221V170.345H194.275V175.973H192.959V164.297H194.275V169.043H196.221V164.227H197.537ZM189.305 174.237C189.818 174.237 190.317 174.2 190.803 174.125C191.297 174.041 191.727 173.925 192.091 173.775V174.993C191.745 175.143 191.307 175.259 190.775 175.343C190.243 175.427 189.701 175.469 189.151 175.469H186.407V164.661H191.573V165.893H187.765V174.237H189.305ZM210.583 169.155H200.363V164.367H210.583V169.155ZM209.197 165.515H201.749V168.007H209.197V165.515ZM211.451 170.359V171.535H206.173V173.593H204.773V171.535H199.509V170.359H211.451ZM201.749 174.853H210.849V176.043H200.349V172.557H201.749V174.853ZM224.134 164.227V176.183H222.748V164.227H224.134ZM218.324 164.577C218.305 166.444 218.147 168.082 217.848 169.491L221.712 174.643L220.592 175.441L217.414 171.101C216.966 172.436 216.383 173.481 215.664 174.237C214.945 174.993 214.119 175.404 213.186 175.469V174.069C213.961 173.948 214.628 173.453 215.188 172.585C215.748 171.708 216.173 170.569 216.462 169.169C216.751 167.769 216.901 166.22 216.91 164.521L218.324 164.577ZM238.945 166.509V167.825H237.265V170.835H235.879V164.227H237.265V166.509H238.945ZM230.629 168.161C230.218 168.843 229.663 169.398 228.963 169.827C228.272 170.247 227.488 170.504 226.611 170.597V169.351C227.582 169.221 228.361 168.829 228.949 168.175C229.546 167.513 229.892 166.696 229.985 165.725H226.765V164.535H234.395V165.725H231.371C231.343 166.173 231.264 166.617 231.133 167.055L234.773 169.295L234.087 170.331L230.629 168.161ZM232.323 171.227C233.863 171.227 235.1 171.428 236.033 171.829C236.976 172.231 237.447 172.856 237.447 173.705C237.447 174.555 236.976 175.18 236.033 175.581C235.1 175.983 233.863 176.183 232.323 176.183C230.783 176.183 229.542 175.983 228.599 175.581C227.666 175.18 227.199 174.555 227.199 173.705C227.199 172.856 227.666 172.231 228.599 171.829C229.542 171.428 230.783 171.227 232.323 171.227ZM232.323 175.035C233.406 175.035 234.283 174.923 234.955 174.699C235.627 174.475 235.963 174.144 235.963 173.705C235.963 173.267 235.627 172.935 234.955 172.711C234.283 172.487 233.406 172.375 232.323 172.375C231.25 172.375 230.372 172.487 229.691 172.711C229.019 172.935 228.683 173.267 228.683 173.705C228.683 174.144 229.019 174.475 229.691 174.699C230.363 174.923 231.24 175.035 232.323 175.035Z" fill="white"/>
<path d="M53.2153 168.777C52.786 169.412 52.24 169.935 51.5773 170.345C50.924 170.756 50.1866 171.003 49.3653 171.087V169.883C50.2613 169.753 50.9986 169.379 51.5773 168.763C52.156 168.138 52.5106 167.387 52.6413 166.509H49.4913V165.347H52.6553V164.017H54.0553V165.347H57.1773V166.509H54.0553C53.9993 166.929 53.9013 167.326 53.7613 167.699L57.3873 169.953L56.7293 170.989L53.2153 168.777ZM58.9973 167.125V164.227H60.3833V171.353H58.9973V168.357H56.7013V167.125H58.9973ZM55.3293 171.731C56.9066 171.731 58.1666 171.909 59.1093 172.263C60.052 172.609 60.5233 173.173 60.5233 173.957C60.5233 174.732 60.052 175.297 59.1093 175.651C58.1666 176.006 56.9066 176.183 55.3293 176.183C53.752 176.183 52.492 176.006 51.5493 175.651C50.6066 175.297 50.1353 174.732 50.1353 173.957C50.1353 173.173 50.6066 172.609 51.5493 172.263C52.492 171.909 53.752 171.731 55.3293 171.731ZM55.3293 175.077C56.4493 175.077 57.35 174.984 58.0313 174.797C58.7126 174.62 59.0533 174.34 59.0533 173.957C59.0533 173.575 58.7126 173.295 58.0313 173.117C57.35 172.931 56.4493 172.837 55.3293 172.837C54.2093 172.837 53.3086 172.931 52.6273 173.117C51.946 173.295 51.6053 173.575 51.6053 173.957C51.6053 174.34 51.946 174.62 52.6273 174.797C53.3086 174.984 54.2093 175.077 55.3293 175.077ZM74.0881 164.227V176.183H72.7861V164.227H74.0881ZM69.8461 164.297H71.1481V175.973H69.8461V172.277H67.0181C66.5888 173.285 66.0148 174.065 65.2961 174.615C64.5774 175.157 63.7654 175.432 62.8601 175.441V174.139C63.5974 174.121 64.2368 173.855 64.7781 173.341C65.3194 172.819 65.7348 172.095 66.0241 171.171C66.3134 170.247 66.4581 169.174 66.4581 167.951V165.921H62.8601V164.661H67.8021V167.223H69.8461V164.297ZM69.8461 170.989V168.511H67.7881C67.7414 169.445 67.6248 170.271 67.4381 170.989H69.8461ZM88.5629 166.901V168.189H86.9109V171.535H85.5249V164.227H86.9109V166.901H88.5629ZM81.9969 165.585H76.6349V164.423H83.3829V168.609H81.9969V165.585ZM84.5309 170.163C83.8216 170.481 82.5009 170.639 80.5689 170.639H76.0609V169.505H78.3989V167.013H79.7709V169.505H80.6109C82.4776 169.505 83.7842 169.347 84.5309 169.029V170.163ZM81.9409 171.591C83.5182 171.591 84.7736 171.787 85.7069 172.179C86.6496 172.562 87.1209 173.141 87.1209 173.915C87.1209 174.69 86.6496 175.269 85.7069 175.651C84.7642 176.034 83.5089 176.225 81.9409 176.225C80.3729 176.225 79.1176 176.034 78.1749 175.651C77.2322 175.269 76.7609 174.69 76.7609 173.915C76.7609 173.141 77.2276 172.562 78.1609 172.179C79.1036 171.787 80.3636 171.591 81.9409 171.591ZM81.9409 175.147C83.0702 175.147 83.9709 175.045 84.6429 174.839C85.3242 174.643 85.6649 174.335 85.6649 173.915C85.6649 173.495 85.3242 173.183 84.6429 172.977C83.9616 172.772 83.0609 172.669 81.9409 172.669C80.8209 172.669 79.9202 172.772 79.2389 172.977C78.5576 173.183 78.2169 173.495 78.2169 173.915C78.2169 174.335 78.5529 174.643 79.2249 174.839C79.9062 175.045 80.8116 175.147 81.9409 175.147ZM102.03 166.509V167.825H100.35V170.835H98.9637V164.227H100.35V166.509H102.03ZM93.7137 168.161C93.303 168.843 92.7477 169.398 92.0477 169.827C91.357 170.247 90.573 170.504 89.6957 170.597V169.351C90.6664 169.221 91.4457 168.829 92.0337 168.175C92.631 167.513 92.9764 166.696 93.0697 165.725H89.8497V164.535H97.4797V165.725H94.4557C94.4277 166.173 94.3484 166.617 94.2177 167.055L97.8577 169.295L97.1717 170.331L93.7137 168.161ZM95.4077 171.227C96.9477 171.227 98.1844 171.428 99.1177 171.829C100.06 172.231 100.532 172.856 100.532 173.705C100.532 174.555 100.06 175.18 99.1177 175.581C98.1844 175.983 96.9477 176.183 95.4077 176.183C93.8677 176.183 92.6264 175.983 91.6837 175.581C90.7504 175.18 90.2837 174.555 90.2837 173.705C90.2837 172.856 90.7504 172.231 91.6837 171.829C92.6264 171.428 93.8677 171.227 95.4077 171.227ZM95.4077 175.035C96.4904 175.035 97.3677 174.923 98.0397 174.699C98.7117 174.475 99.0477 174.144 99.0477 173.705C99.0477 173.267 98.7117 172.935 98.0397 172.711C97.3677 172.487 96.4904 172.375 95.4077 172.375C94.3344 172.375 93.457 172.487 92.7757 172.711C92.1037 172.935 91.7677 173.267 91.7677 173.705C91.7677 174.144 92.1037 174.475 92.7757 174.699C93.4477 174.923 94.325 175.035 95.4077 175.035Z" fill="white"/>
<circle cx="75.2907" cy="21.697" r="21.697" fill="#FFE15D"/>
<circle cx="75.2908" cy="21.697" r="10.1253" fill="white"/>
<circle cx="205.473" cy="21.697" r="21.697" fill="#FFE15D"/>
<circle cx="205.472" cy="21.697" r="10.1253" fill="white"/>
<circle cx="335.654" cy="21.697" r="21.697" fill="#FFE15D"/>
<circle cx="335.655" cy="21.697" r="10.1253" fill="white"/>
<circle cx="465.836" cy="21.697" r="21.697" fill="#FFE15D"/>
<circle cx="465.836" cy="21.697" r="10.1253" fill="white"/>
<circle cx="465.836" cy="135.606" r="21.697" fill="#FFE15D"/>
<circle cx="465.836" cy="135.606" r="10.1253" fill="white"/>
<circle cx="335.654" cy="135.606" r="21.697" fill="#FFE15D"/>
<circle cx="335.655" cy="135.606" r="10.1253" fill="white"/>
<circle cx="205.473" cy="135.606" r="21.697" fill="#FFE15D"/>
<circle cx="205.472" cy="135.606" r="10.1253" fill="white"/>
<circle cx="75.2907" cy="135.606" r="21.697" fill="#FFE15D"/>
<circle cx="75.2908" cy="135.606" r="10.1253" fill="white"/>
<rect x="93.7334" y="18.4424" width="90.0424" height="5.42424" fill="#FFE15D"/>
<rect x="225" y="18.4424" width="90.0424" height="5.42424" fill="#FFE15D"/>
<rect x="356.267" y="18.4424" width="90.0424" height="5.42424" fill="#FFE15D"/>
<rect x="94.8184" y="132.352" width="90.0424" height="5.42424" fill="#FFE15D"/>
<rect x="225" y="132.352" width="90.0424" height="5.42424" fill="#FFE15D"/>
<rect x="356.267" y="132.352" width="90.0424" height="5.42424" fill="#FFE15D"/>
<path d="M486.449 21.697C543.02 21.697 542.702 136.691 486.449 136.691" stroke="#FFE15D" stroke-width="5"/>
</svg>
